<svg xmlns="http://www.w3.org/2000/svg" width="250.03" height="138.03" viewBox="0 0 250.03 138.03">
  <metadata><?xpacket begin="﻿" id="W5M0MpCehiHzreSzNTczkc9d"?>
<x:xmpmeta xmlns:x="adobe:ns:meta/" x:xmptk="Adobe XMP Core 5.6-c142 79.160924, 2017/07/13-01:06:39        ">
   <rdf:RDF xmlns:rdf="http://www.w3.org/1999/02/22-rdf-syntax-ns#">
      <rdf:Description rdf:about=""/>
   </rdf:RDF>
</x:xmpmeta>
                                                                                                    
                                                                                                    
                                                                                                    
                                                                                                    
                                                                                                    
                                                                                                    
                                                                                                    
                                                                                                    
                                                                                                    
                                                                                                    
                                                                                                    
                                                                                                    
                                                                                                    
                                                                                                    
                                                                                                    
                                                                                                    
                                                                                                    
                                                                                                    
                                                                                                    
                                                                                                    
                           
<?xpacket end="w"?></metadata>
<defs>
    <style>
      .cls-1 {
        fill: #9498a5;
        fill-rule: evenodd;
      }
    </style>
  </defs>
  <path id="Прямоугольник_6" data-name="Прямоугольник 6" class="cls-1" d="M997.5,3156.99H980.488a3.48,3.48,0,0,1-2.463-1.02v-0.01A3.468,3.468,0,0,1,977,3153.5v-23.01a3.468,3.468,0,0,1,1.024-2.46h0a3.493,3.493,0,0,1,2.461-1.03H997.5a3.491,3.491,0,0,1,2.465,1.03h0a3.466,3.466,0,0,1,1.021,2.46v23.01A3.484,3.484,0,0,1,997.5,3156.99Zm1.581-3.49v-23.01a1.6,1.6,0,0,0-.463-1.12h0a1.6,1.6,0,0,0-1.117-.46H980.488a1.594,1.594,0,0,0-1.116.46h0a1.6,1.6,0,0,0-.464,1.12v23.01a1.578,1.578,0,0,0,.463,1.12h0a1.6,1.6,0,0,0,1.116.46H997.5a1.6,1.6,0,0,0,1.117-.46A1.583,1.583,0,0,0,999.085,3153.5Zm-16.327-5.5h12.454v1.01H982.758V3148Zm0.25-3h11.986v1.01H983.008V3145Zm0-3h11.986v0.99H983.008V3142Zm0-2.99h11.986v0.98H983.008v-0.98Zm0-3.02h11.986V3137H983.008v-1.01Zm0-3h11.986V3134H983.008v-1.01Zm11.986,19.02H983.008v-1.02h11.986v1.02Zm9.986-24h1.03v17.97h-1.03v-17.97Zm5.03,0v17.97h-1.02v-17.97h1.02Zm0.98,28.98h-6v-6h6v6Zm-1-5.01h-4.01v4.01h4.01v-4.01Zm3.02-23.97H1014v17.97h-0.99v-17.97Zm4.99,0v17.97h-0.99v-17.97H1018Zm0.99,28.98h-6v-6h6v6Zm-1-5.01h-4.01v4.01h4.01v-4.01Zm2.99-23.97h1.03v17.97h-1.03v-17.97Zm5.03,0v17.97h-1.02v-17.97h1.02Zm0.98,28.98h-6v-6h6v6Zm-1-5.01h-4.01v4.01h4.01v-4.01Zm3.02-23.97H1030v17.97h-0.99v-17.97Zm4.99,0v17.97h-0.99v-17.97H1034Zm0.99,28.98h-6v-6h6v6Zm-1-5.01h-4.01v4.01h4.01v-4.01Zm2.99-23.97h1.03v17.97h-1.03v-17.97Zm5.03,0v17.97h-1.02v-17.97h1.02Zm0.98,28.98h-6v-6h6v6Zm-1-5.01h-4.01v4.01h4.01v-4.01Zm3.02-23.97H1046v17.97h-0.99v-17.97Zm4.99,0v17.97h-0.99v-17.97H1050Zm0.99,28.98h-6v-6h6v6Zm-1-5.01h-4.01v4.01h4.01v-4.01Zm2.99-23.97h1.03v17.97h-1.03v-17.97Zm5.03,0v17.97h-1.02v-17.97h1.02Zm0.98,28.98h-6v-6h6v6Zm-1-5.01h-4.01v4.01h4.01v-4.01Zm3.02-23.97H1062v17.97h-0.99v-17.97Zm4.99,0v17.97h-0.99v-17.97H1066Zm0.99,28.98h-6v-6h6v6Zm-1-5.01h-4.01v4.01h4.01v-4.01Zm9.01-15.99a4.031,4.031,0,0,1-2.84-1.17,3.984,3.984,0,0,1,0-5.66,4.015,4.015,0,0,1,6.86,2.83,3.99,3.99,0,0,1-1.17,2.83A4.055,4.055,0,0,1,1075,3135.99Zm2.58-4a2.522,2.522,0,0,0-.76-1.81,2.56,2.56,0,1,0,0,3.62A2.522,2.522,0,0,0,1077.58,3131.99Zm9.26,4a4.013,4.013,0,0,1-2.84-1.17,3.984,3.984,0,0,1,0-5.66,4.009,4.009,0,1,1,5.68,5.66h0A4.031,4.031,0,0,1,1086.84,3135.99Zm1.82-5.81a2.583,2.583,0,0,0-3.64,0,2.559,2.559,0,0,0,0,3.62A2.567,2.567,0,1,0,1088.66,3130.18Zm10.33,5.81a4.013,4.013,0,0,1-2.84-1.17h-0.01a4.013,4.013,0,0,1,5.69-5.66,4.008,4.008,0,0,1,0,5.66A4.031,4.031,0,0,1,1098.99,3135.99Zm10.04,26.34a5.744,5.744,0,0,1-4.07,1.69H975.019a5.758,5.758,0,0,1-4.07-1.69,5.7,5.7,0,0,1-1.692-4.05v-4.5h-3.931a3.337,3.337,0,0,1-2.348-.98h0a3.283,3.283,0,0,1-.976-2.34v-15.99a3.3,3.3,0,0,1,.976-2.34h0a3.328,3.328,0,0,1,2.348-.97h3.931v-5.43a5.756,5.756,0,0,1,5.762-5.74H1102.57l1.4,1.93H975.019a3.831,3.831,0,0,0-3.824,3.81v5.43h0.027v22.62H971.2v4.5a3.831,3.831,0,0,0,3.824,3.81H1104.96a3.818,3.818,0,0,0,2.7-1.12,3.78,3.78,0,0,0,1.13-2.69v-29.69l1.94,2.69v27A5.682,5.682,0,0,1,1109.03,3162.33Zm-139.773-26.4h-1.49a0.731,0.731,0,0,0-.741.73v11.61a0.714,0.714,0,0,0,.218.52v0.01a0.745,0.745,0,0,0,.523.21h1.49v-13.08Zm0,15.01h-1.49a2.691,2.691,0,0,1-1.891-.78h0a2.653,2.653,0,0,1-.787-1.89v-11.61a2.692,2.692,0,0,1,2.68-2.67h1.49v-0.9h-3.931a1.417,1.417,0,0,0-.979.4v0.01a1.363,1.363,0,0,0-.408.97v15.99a1.386,1.386,0,0,0,.408.98h0a1.374,1.374,0,0,0,.979.4h3.931v-0.9Zm28.247-40.95H980.488a3.48,3.48,0,0,1-2.463-1.02v-0.01A3.468,3.468,0,0,1,977,3106.5v-23.01a3.468,3.468,0,0,1,1.024-2.46h0a3.493,3.493,0,0,1,2.461-1.03H997.5a3.491,3.491,0,0,1,2.465,1.03h0a3.466,3.466,0,0,1,1.021,2.46v23.01A3.484,3.484,0,0,1,997.5,3109.99Zm1.581-26.5a1.6,1.6,0,0,0-.463-1.12h0a1.6,1.6,0,0,0-1.117-.46H980.488a1.594,1.594,0,0,0-1.116.46h0a1.6,1.6,0,0,0-.464,1.12v23.01a1.578,1.578,0,0,0,.463,1.12h0a1.6,1.6,0,0,0,1.116.46H997.5a1.6,1.6,0,0,0,1.117-.46,1.583,1.583,0,0,0,.464-1.12v-23.01ZM982.758,3101h12.454v1.01H982.758V3101Zm0.25-3h11.986v1.01H983.008V3098Zm0-3h11.986v0.99H983.008V3095Zm0-2.99h11.986v0.98H983.008v-0.98Zm0-3.02h11.986V3090H983.008v-1.01Zm0-3h11.986V3087H983.008v-1.01Zm11.986,19.02H983.008v-1.02h11.986v1.02Zm9.986-24h1.03v17.98h-1.03v-17.98Zm5.03,0v17.98h-1.02v-17.98h1.02Zm0.98,28.98h-6v-6h6v6Zm-1-5.01h-4.01v4.01h4.01v-4.01Zm3.02-23.97H1014v17.98h-0.99v-17.98Zm4.99,0v17.98h-0.99v-17.98H1018Zm0.99,28.98h-6v-6h6v6Zm-1-5.01h-4.01v4.01h4.01v-4.01Zm2.99-23.97h1.03v17.98h-1.03v-17.98Zm5.03,0v17.98h-1.02v-17.98h1.02Zm0.98,28.98h-6v-6h6v6Zm-1-5.01h-4.01v4.01h4.01v-4.01Zm3.02-23.97H1030v17.98h-0.99v-17.98Zm4.99,0v17.98h-0.99v-17.98H1034Zm0.99,28.98h-6v-6h6v6Zm-1-5.01h-4.01v4.01h4.01v-4.01Zm2.99-23.97h1.03v17.98h-1.03v-17.98Zm5.03,0v17.98h-1.02v-17.98h1.02Zm0.98,28.98h-6v-6h6v6Zm-1-5.01h-4.01v4.01h4.01v-4.01Zm3.02-23.97H1046v17.98h-0.99v-17.98Zm4.99,0v17.98h-0.99v-17.98H1050Zm0.99,28.98h-6v-6h6v6Zm-1-5.01h-4.01v4.01h4.01v-4.01Zm2.99-23.97h1.03v17.98h-1.03v-17.98Zm5.03,0v17.98h-1.02v-17.98h1.02Zm0.98,28.98h-6v-6h6v6Zm-1-5.01h-4.01v4.01h4.01v-4.01Zm3.02-23.97H1062v17.98h-0.99v-17.98Zm4.99,0v17.98h-0.99v-17.98H1066Zm0.99,28.98h-6v-6h6v6Zm-1-5.01h-4.01v4.01h4.01v-4.01Zm2.51-30.06H975.019a3.831,3.831,0,0,0-3.824,3.81v5.43h0.027v22.62H971.2v4.5a3.831,3.831,0,0,0,3.824,3.81H1098.89l1.46,1.93H975.019a5.758,5.758,0,0,1-4.07-1.69,5.7,5.7,0,0,1-1.692-4.05v-4.5h-3.931a3.337,3.337,0,0,1-2.348-.98h0a3.283,3.283,0,0,1-.976-2.34v-15.99a3.3,3.3,0,0,1,.976-2.34l0,0.01a3.3,3.3,0,0,1,2.348-.98h3.931v-5.43a5.756,5.756,0,0,1,5.762-5.74h92.021Zm-99.243,14.01h-1.49a0.731,0.731,0,0,0-.741.73v11.61a0.714,0.714,0,0,0,.218.52v0.01a0.745,0.745,0,0,0,.523.21h1.49v-13.08Zm0,15.01h-1.49a2.691,2.691,0,0,1-1.891-.78h0a2.653,2.653,0,0,1-.787-1.89v-11.61a2.692,2.692,0,0,1,2.68-2.67h1.49v-0.9h-3.931a1.417,1.417,0,0,0-.979.4v0.01a1.363,1.363,0,0,0-.408.97v15.99a1.386,1.386,0,0,0,.408.98h0a1.374,1.374,0,0,0,.979.4h3.931v-0.9Zm103.923-20.76a2.559,2.559,0,0,0,0,3.62,2.583,2.583,0,0,0,3.64,0,2.436,2.436,0,0,0,.35-0.43l0.89,1.19c-0.07.08-.13,0.18-0.21,0.26a4.044,4.044,0,0,1-5.69,0,3.984,3.984,0,0,1,0-5.66,4.1,4.1,0,0,1,1.2-.81l0.91,1.2A2.545,2.545,0,0,0,1073.18,3083.18Zm138.6-10.47-66.64,90.77a1.284,1.284,0,0,1-1.04.52c-0.05,0-.11-0.01-0.17-0.01a1.251,1.251,0,0,1-1.02-.8l-0.13-.34-66.06-90.14a1.187,1.187,0,0,1-.02-1.38l13.3-19.16a1.285,1.285,0,0,1,1.06-.54h106.38a1.285,1.285,0,0,1,1.06.54l13.3,19.16A1.187,1.187,0,0,1,1211.78,3072.71Zm-3.74.86h-29.59l-30.14,81.36Zm-64.06,85.28,31.59-85.28h-63.59Zm-4.46-4.68-30.24-80.6h-28.82Zm-47.78-100.11-11.85,17.07h29.54l9.73-17.07h-27.42Zm30.26,0a1.476,1.476,0,0,1-.13.35l-9.55,16.72h62.98l-9.55-16.68,0.72-.39H1122Zm74.76,0h-28.14l9.78,17.07h30.21Zm-101.42-9.7a1.335,1.335,0,0,1-.53.03,0.68,0.68,0,0,1-.72-0.73l4.99-17.16a0.933,0.933,0,0,1,1.06-.49,0.669,0.669,0,0,1,.72.73l-4.98,17.16A0.753,0.753,0,0,1,1095.34,3044.36Zm-7.94-1.03a1.373,1.373,0,0,1-.54.22,0.562,0.562,0,0,1-.63-0.2l-8.68-14.99a0.957,0.957,0,0,1,.56-1.09,0.868,0.868,0,0,1,1.18-.02l8.67,14.99A0.952,0.952,0,0,1,1087.4,3043.33Zm-4.02,6.36a0.884,0.884,0,0,1-.94.66l-18.03-4.9a0.721,0.721,0,0,1-.33-1.01,0.87,0.87,0,0,1,.95-0.65l18.02,4.89A0.728,0.728,0,0,1,1083.38,3049.69Z" transform="translate(-962 -3026)"/>
</svg>
