<svg width="61" height="74" viewBox="0 0 61 74" fill="none" xmlns="http://www.w3.org/2000/svg">
<path d="M56.0206 30.905H4.72656V73.1841H56.0206V30.905Z" fill="#00754B"/>
<path d="M60.375 29.351C60.375 30.2065 59.6757 30.9052 58.821 30.9052H1.9293C1.074 30.9053 0.375 30.2065 0.375 29.351V15.9848C0.375 15.1292 1.074 14.4299 1.9293 14.4299H58.821C59.6756 14.4299 60.375 15.1296 60.375 15.9848V29.351Z" fill="#00BC78"/>
<path d="M6.28076 18.7815H4.72656V20.3358H6.28076V18.7815Z" fill="#7EEDC5"/>
<path d="M9.39024 18.7815H7.83594V20.3358H9.39024V18.7815Z" fill="#7EEDC5"/>
<path d="M12.4983 18.7815H10.9434V20.3358H12.4983V18.7815Z" fill="#7EEDC5"/>
<path d="M15.609 18.7815H14.0547V20.3358H15.609V18.7815Z" fill="#7EEDC5"/>
<path d="M18.7183 18.7815H17.1641V20.3358H18.7183V18.7815Z" fill="#7EEDC5"/>
<path d="M21.8282 18.7815H20.2734V20.3358H21.8282V18.7815Z" fill="#7EEDC5"/>
<path d="M24.9371 18.7815H23.3828V20.3358H24.9371V18.7815Z" fill="#7EEDC5"/>
<path d="M28.0445 18.7815H26.4902V20.3358H28.0445V18.7815Z" fill="#7EEDC5"/>
<path d="M6.28086 21.8901H4.72656V23.4443H6.28086V21.8901Z" fill="#7EEDC5"/>
<path d="M9.39024 21.8901H7.83594V23.4443H9.39024V21.8901Z" fill="#7EEDC5"/>
<path d="M12.4983 21.8901H10.9434V23.4443H12.4983V21.8901Z" fill="#7EEDC5"/>
<path d="M15.609 21.8901H14.0547V23.4443H15.609V21.8901Z" fill="#7EEDC5"/>
<path d="M18.7183 21.8901H17.1641V23.4443H18.7183V21.8901Z" fill="#7EEDC5"/>
<path d="M21.8282 21.8901H20.2734V23.4443H21.8282V21.8901Z" fill="#7EEDC5"/>
<path d="M24.9371 21.8901H23.3828V23.4443H24.9371V21.8901Z" fill="#7EEDC5"/>
<path d="M28.0445 21.8901H26.4902V23.4443H28.0445V21.8901Z" fill="#7EEDC5"/>
<path d="M6.28086 25.0005H4.72656V26.5553H6.28086V25.0005Z" fill="#7EEDC5"/>
<path d="M9.39024 25.0005H7.83594V26.5553H9.39024V25.0005Z" fill="#7EEDC5"/>
<path d="M12.4983 25.0005H10.9434V26.5553H12.4983V25.0005Z" fill="#7EEDC5"/>
<path d="M15.609 25.0005H14.0547V26.5553H15.609V25.0005Z" fill="#7EEDC5"/>
<path d="M18.7183 25.0005H17.1641V26.5553H18.7183V25.0005Z" fill="#7EEDC5"/>
<path d="M21.8282 25.0005H20.2734V26.5553H21.8282V25.0005Z" fill="#7EEDC5"/>
<path d="M24.9371 25.0005H23.3828V26.5553H24.9371V25.0005Z" fill="#7EEDC5"/>
<path d="M28.0445 25.0005H26.4902V26.5553H28.0445V25.0005Z" fill="#7EEDC5"/>
<path d="M52.9141 22.6681C52.9141 23.5264 53.6098 24.2224 54.4681 24.2224C55.3263 24.2224 56.0221 23.5264 56.0221 22.6681C56.0221 21.8098 55.3263 21.1138 54.4681 21.1138C53.6098 21.1138 52.9141 21.8098 52.9141 22.6681Z" fill="#FFCE1F"/>
<path d="M46.6934 22.6681C46.6934 23.5264 47.3893 24.2224 48.2476 24.2224C49.1059 24.2224 49.8017 23.5264 49.8017 22.6681C49.8017 21.8098 49.1059 21.1138 48.2476 21.1138C47.3893 21.1138 46.6934 21.8098 46.6934 22.6681Z" fill="#00754B"/>
<path d="M40.4805 22.6681C40.4805 23.526 41.176 24.2224 42.0339 24.2224C42.8918 24.2224 43.5872 23.526 43.5872 22.6681C43.5872 21.8102 42.8918 21.1138 42.0339 21.1138C41.176 21.1138 40.4805 21.8102 40.4805 22.6681Z" fill="#00754B"/>
<path d="M60.375 48.9373C60.375 49.7929 59.6757 50.4919 58.821 50.4919H1.9293C1.074 50.4915 0.375 49.7925 0.375 48.9373V35.5692C0.375 34.7136 1.074 34.0137 1.9293 34.0137H58.821C59.6756 34.0137 60.375 34.7135 60.375 35.5692V48.9373Z" fill="#00BC78"/>
<path d="M6.28076 38.3684H4.72656V39.9227H6.28076V38.3684Z" fill="#7EEDC5"/>
<path d="M9.39024 38.3684H7.83594V39.9227H9.39024V38.3684Z" fill="#7EEDC5"/>
<path d="M12.4983 38.3684H10.9434V39.9227H12.4983V38.3684Z" fill="#7EEDC5"/>
<path d="M15.609 38.3684H14.0547V39.9227H15.609V38.3684Z" fill="#7EEDC5"/>
<path d="M18.7183 38.3684H17.1641V39.9227H18.7183V38.3684Z" fill="#7EEDC5"/>
<path d="M21.8282 38.3684H20.2734V39.9227H21.8282V38.3684Z" fill="#7EEDC5"/>
<path d="M24.9371 38.3684H23.3828V39.9227H24.9371V38.3684Z" fill="#7EEDC5"/>
<path d="M28.0445 38.3684H26.4902V39.9227H28.0445V38.3684Z" fill="#7EEDC5"/>
<path d="M6.28086 41.4766H4.72656V43.0306H6.28086V41.4766Z" fill="#7EEDC5"/>
<path d="M9.39024 41.4766H7.83594V43.0306H9.39024V41.4766Z" fill="#7EEDC5"/>
<path d="M12.4983 41.4766H10.9434V43.0306H12.4983V41.4766Z" fill="#7EEDC5"/>
<path d="M15.609 41.4766H14.0547V43.0306H15.609V41.4766Z" fill="#7EEDC5"/>
<path d="M18.7183 41.4766H17.1641V43.0306H18.7183V41.4766Z" fill="#7EEDC5"/>
<path d="M21.8282 41.4766H20.2734V43.0306H21.8282V41.4766Z" fill="#7EEDC5"/>
<path d="M24.9371 41.4766H23.3828V43.0306H24.9371V41.4766Z" fill="#7EEDC5"/>
<path d="M28.0445 41.4766H26.4902V43.0306H28.0445V41.4766Z" fill="#7EEDC5"/>
<path d="M6.28086 44.5842H4.72656V46.1385H6.28086V44.5842Z" fill="#7EEDC5"/>
<path d="M9.39024 44.5842H7.83594V46.1385H9.39024V44.5842Z" fill="#7EEDC5"/>
<path d="M12.4983 44.5842H10.9434V46.1385H12.4983V44.5842Z" fill="#7EEDC5"/>
<path d="M15.609 44.5842H14.0547V46.1385H15.609V44.5842Z" fill="#7EEDC5"/>
<path d="M18.7183 44.5842H17.1641V46.1385H18.7183V44.5842Z" fill="#7EEDC5"/>
<path d="M21.8282 44.5842H20.2734V46.1385H21.8282V44.5842Z" fill="#7EEDC5"/>
<path d="M24.9371 44.5842H23.3828V46.1385H24.9371V44.5842Z" fill="#7EEDC5"/>
<path d="M28.0445 44.5842H26.4902V46.1385H28.0445V44.5842Z" fill="#7EEDC5"/>
<path d="M52.9141 42.254C52.9141 43.1123 53.6098 43.8084 54.4681 43.8084C55.3264 43.8084 56.0221 43.1123 56.0221 42.254C56.0221 41.3958 55.3264 40.6997 54.4681 40.6997C53.6098 40.6997 52.9141 41.3958 52.9141 42.254Z" fill="#00754B"/>
<path d="M46.6953 42.254C46.6953 43.1124 47.3911 43.8084 48.2495 43.8084C49.1078 43.8084 49.8036 43.1124 49.8036 42.254C49.8036 41.3957 49.1078 40.6997 48.2495 40.6997C47.3911 40.6997 46.6953 41.3957 46.6953 42.254Z" fill="#00754B"/>
<path d="M40.4805 42.2538C40.4805 43.1117 41.176 43.8081 42.0339 43.8081C42.8918 43.8081 43.5872 43.1117 43.5872 42.2538C43.5872 41.3959 42.8918 40.6995 42.0339 40.6995C41.176 40.6995 40.4805 41.3959 40.4805 42.2538Z" fill="#FFCE1F"/>
<path d="M60.375 68.5213C60.375 69.3769 59.6757 70.0768 58.821 70.0768H1.9293C1.074 70.0765 0.375 69.3766 0.375 68.5213V55.1557C0.375 54.3001 1.074 53.6011 1.9293 53.6011H58.821C59.6756 53.6011 60.375 54.3001 60.375 55.1557V68.5213Z" fill="#00BC78"/>
<path d="M6.28076 57.9524H4.72656V59.5072H6.28076V57.9524Z" fill="#7EEDC5"/>
<path d="M9.39024 57.9524H7.83594V59.5072H9.39024V57.9524Z" fill="#7EEDC5"/>
<path d="M12.4983 57.9524H10.9434V59.5072H12.4983V57.9524Z" fill="#7EEDC5"/>
<path d="M15.609 57.9524H14.0547V59.5072H15.609V57.9524Z" fill="#7EEDC5"/>
<path d="M18.7183 57.9524H17.1641V59.5072H18.7183V57.9524Z" fill="#7EEDC5"/>
<path d="M21.8282 57.9524H20.2734V59.5072H21.8282V57.9524Z" fill="#7EEDC5"/>
<path d="M24.9371 57.9524H23.3828V59.5072H24.9371V57.9524Z" fill="#7EEDC5"/>
<path d="M28.0445 57.9524H26.4902V59.5072H28.0445V57.9524Z" fill="#7EEDC5"/>
<path d="M6.28086 61.0605H4.72656V62.616H6.28086V61.0605Z" fill="#7EEDC5"/>
<path d="M9.39024 61.0605H7.83594V62.616H9.39024V61.0605Z" fill="#7EEDC5"/>
<path d="M12.4983 61.0605H10.9434V62.616H12.4983V61.0605Z" fill="#7EEDC5"/>
<path d="M15.609 61.0605H14.0547V62.616H15.609V61.0605Z" fill="#7EEDC5"/>
<path d="M18.7183 61.0605H17.1641V62.616H18.7183V61.0605Z" fill="#7EEDC5"/>
<path d="M21.8282 61.0605H20.2734V62.616H21.8282V61.0605Z" fill="#7EEDC5"/>
<path d="M24.9371 61.0605H23.3828V62.616H24.9371V61.0605Z" fill="#7EEDC5"/>
<path d="M28.0445 61.0605H26.4902V62.616H28.0445V61.0605Z" fill="#7EEDC5"/>
<path d="M6.28086 64.1716H4.72656V65.7263H6.28086V64.1716Z" fill="#7EEDC5"/>
<path d="M9.39024 64.1716H7.83594V65.7263H9.39024V64.1716Z" fill="#7EEDC5"/>
<path d="M12.4983 64.1716H10.9434V65.7263H12.4983V64.1716Z" fill="#7EEDC5"/>
<path d="M15.609 64.1716H14.0547V65.7263H15.609V64.1716Z" fill="#7EEDC5"/>
<path d="M18.7183 64.1716H17.1641V65.7263H18.7183V64.1716Z" fill="#7EEDC5"/>
<path d="M21.8282 64.1716H20.2734V65.7263H21.8282V64.1716Z" fill="#7EEDC5"/>
<path d="M24.9371 64.1716H23.3828V65.7263H24.9371V64.1716Z" fill="#7EEDC5"/>
<path d="M28.0445 64.1716H26.4902V65.7263H28.0445V64.1716Z" fill="#7EEDC5"/>
<path d="M52.9141 61.8403C52.9141 62.6984 53.61 63.394 54.4681 63.394C55.3261 63.394 56.0221 62.6984 56.0221 61.8403C56.0221 60.9822 55.3261 60.2866 54.4681 60.2866C53.61 60.2866 52.9141 60.9822 52.9141 61.8403Z" fill="#00754B"/>
<path d="M46.6953 61.8403C46.6953 62.6984 47.3914 63.394 48.2495 63.394C49.1075 63.394 49.8036 62.6984 49.8036 61.8403C49.8036 60.9822 49.1075 60.2866 48.2495 60.2866C47.3914 60.2866 46.6953 60.9822 46.6953 61.8403Z" fill="#FFCE1F"/>
<path d="M40.4805 61.8403C40.4805 62.6982 41.176 63.394 42.0339 63.394C42.8918 63.394 43.5872 62.6982 43.5872 61.8403C43.5872 60.9824 42.8918 60.2866 42.0339 60.2866C41.176 60.2866 40.4805 60.9824 40.4805 61.8403Z" fill="#00754B"/>
<path d="M26.375 11.8069H37.375V73.1933H26.375V11.8069Z" fill="black" fill-opacity="0.1"/>
<path d="M24.375 11.8069H35.375V73.1933H24.375V11.8069Z" fill="#F6C358"/>
<path fill-rule="evenodd" clip-rule="evenodd" d="M42.4959 18.1173C46.8796 20.358 52.6892 24.3037 55.136 30.2793C55.225 30.4966 55.2253 30.7139 55.1609 30.9052H50.5079L48.9813 30.6416C48.6587 30.5859 48.3417 30.6918 48.1189 30.9052H42.3094C40.987 28.4341 39.3743 25.7151 37.634 23.4258C36.7538 24.8545 35.175 25.8069 33.3738 25.8069H30.3738C28.6512 25.8069 27.132 24.9357 26.2328 23.6099C24.554 25.8641 23.0002 28.5026 21.72 30.9052H15.9242C15.7014 30.6918 15.3844 30.5859 15.0617 30.6416L13.5352 30.9052H8.88212C8.81782 30.7139 8.81812 30.4966 8.90712 30.2793C11.3499 24.3134 17.1447 20.3707 21.5259 18.1281C18.1457 18.1903 13.6133 17.5608 8.51382 14.9763C8.24882 14.8522 8.03732 14.6599 7.89062 14.4299H56.4987C56.352 14.6598 56.1406 14.8522 55.8755 14.9762C50.5705 17.665 45.8967 18.2378 42.4959 18.1173ZM55.016 4.80689H45.5432C48.1093 3.81789 50.9487 3.42429 53.8645 4.26779C54.2804 4.39439 54.6666 4.57749 55.016 4.80689ZM9.41562 4.80689H18.92C16.354 3.81789 13.5145 3.42429 10.5988 4.26779C10.1714 4.39159 9.77442 4.57489 9.41562 4.80689Z" fill="black" fill-opacity="0.1"/>
<path d="M24.875 16.3069L27.9617 10.3678C27.9617 10.3678 18.7425 -1.66627 8.59992 1.26778C6.59382 1.84858 5.25932 3.74158 5.38292 5.82528L5.68082 10.6806L24.875 16.3069Z" fill="url(#paint0_linear)"/>
<path d="M25.7288 14.0913C25.7288 14.0913 17.4182 17.502 6.51603 11.9764C5.77143 11.6279 5.44974 10.7402 5.79974 9.9956C5.98434 9.6009 6.33433 9.306 6.75433 9.1913C13.4982 7.2 20.7916 9.0841 25.7288 14.0913Z" fill="#BC9934"/>
<path d="M34.738 14.0912L32.5039 10.3678C32.5039 10.3678 41.7231 -1.66627 51.8656 1.26778C53.848 1.87098 55.1541 3.75798 55.0231 5.82528L54.7103 10.6806L34.738 14.0912Z" fill="url(#paint1_linear)"/>
<path d="M34.7383 14.0911C34.7383 14.0911 42.9745 17.5017 53.8766 11.9762C54.6213 11.6277 54.943 10.74 54.593 9.99526C54.4083 9.60056 54.0583 9.30565 53.6383 9.19105C46.9168 7.22955 39.6606 9.11056 34.7383 14.0911Z" fill="#BC9934"/>
<path d="M35.0307 12.8069C35.0307 12.8069 48.968 17.0953 53.138 27.2793C53.4187 27.9648 52.8174 28.6491 52.0874 28.5231L46.9834 27.6416C46.4885 27.5561 46.0069 27.851 45.8581 28.3307L44.5805 32.4486C44.3033 33.342 43.0344 33.4187 42.6397 32.5707C40.3756 27.7072 35.0474 17.3298 30.0234 15.4578L35.0307 12.8069Z" fill="#F6C358"/>
<path d="M25.0156 12.8069C25.0156 12.8069 11.0782 17.0953 6.90829 27.2793C6.62759 27.9648 7.22889 28.6491 7.95879 28.5231L13.0629 27.6416C13.5578 27.5561 14.0393 27.851 14.1882 28.3307L15.4641 32.4433C15.7415 33.3372 17.0116 33.4133 17.4054 32.5641C19.6688 27.6842 24.998 17.267 30.0229 15.3947L25.0156 12.8069Z" fill="#F6C358"/>
<path d="M33.375 8.80688H30.375C27.6136 8.80688 25.375 11.0455 25.375 13.8069V20.8069C25.375 23.5683 27.6136 25.8069 30.375 25.8069H33.375C36.1364 25.8069 38.375 23.5683 38.375 20.8069V13.8069C38.375 11.0455 36.1364 8.80688 33.375 8.80688Z" fill="black" fill-opacity="0.1"/>
<path d="M31.375 5.80688H28.375C25.6136 5.80688 23.375 8.04546 23.375 10.8069V17.8069C23.375 20.5683 25.6136 22.8069 28.375 22.8069H31.375C34.1364 22.8069 36.375 20.5683 36.375 17.8069V10.8069C36.375 8.04546 34.1364 5.80688 31.375 5.80688Z" fill="url(#paint2_linear)"/>
<defs>
<linearGradient id="paint0_linear" x1="5.37502" y1="0.806884" x2="24.375" y2="13.3069" gradientUnits="userSpaceOnUse">
<stop stop-color="#FCD462"/>
<stop offset="1" stop-color="#E6C35F"/>
</linearGradient>
<linearGradient id="paint1_linear" x1="43.768" y1="0.806884" x2="43.768" y2="14.0912" gradientUnits="userSpaceOnUse">
<stop offset="0.161458" stop-color="#FCD462"/>
<stop offset="1" stop-color="#E8C55F"/>
</linearGradient>
<linearGradient id="paint2_linear" x1="24.875" y1="6.30688" x2="36.375" y2="21.8069" gradientUnits="userSpaceOnUse">
<stop stop-color="#FCD462"/>
<stop offset="1" stop-color="#E3C15F"/>
</linearGradient>
</defs>
</svg>
