<?xml version="1.0" encoding="utf-8"?>
<!-- Generator: Adobe Illustrator 22.0.1, SVG Export Plug-In . SVG Version: 6.00 Build 0)  -->
<svg version="1.1" id="Слой_1" xmlns="http://www.w3.org/2000/svg" xmlns:xlink="http://www.w3.org/1999/xlink" x="0px" y="0px"
	 viewBox="0 0 500 500" style="enable-background:new 0 0 500 500;" xml:space="preserve">
<style type="text/css">
	.st0{fill:none;stroke:#4CBF5E;stroke-width:10;stroke-linecap:round;stroke-linejoin:round;stroke-miterlimit:10;}
	.st1{fill:none;stroke:#4CBF5E;stroke-width:24;stroke-linecap:round;stroke-linejoin:round;stroke-miterlimit:10;}
	.st2{fill:none;stroke:#4CBF5E;stroke-width:27;stroke-linecap:round;stroke-miterlimit:10;}
</style>
<g>
	<line class="st0" x1="59.2" y1="61.1" x2="76.7" y2="61.1"/>
	<line class="st0" x1="59.7" y1="79.1" x2="100.5" y2="79.1"/>
	<line class="st0" x1="59.7" y1="96.7" x2="100.5" y2="96.7"/>
	<line class="st0" x1="399.9" y1="401.9" x2="417.5" y2="401.9"/>
	<line class="st0" x1="400.4" y1="419.9" x2="441.3" y2="419.9"/>
	<line class="st0" x1="400.4" y1="437.4" x2="441.3" y2="437.4"/>
	<line class="st0" x1="59.2" y1="401.9" x2="76.7" y2="401.9"/>
	<line class="st0" x1="59.7" y1="419.9" x2="100.5" y2="419.9"/>
	<line class="st0" x1="59.7" y1="437.4" x2="100.5" y2="437.4"/>
	<line class="st0" x1="399.9" y1="61.1" x2="417.5" y2="61.1"/>
	<line class="st0" x1="400.4" y1="79.1" x2="441.3" y2="79.1"/>
	<line class="st0" x1="400.4" y1="96.7" x2="441.3" y2="96.7"/>
	<g>
		<g>
			<path class="st1" d="M420.4,368c-5.5,0-10.8,0.8-15.7,2.4L377,342.8c40.4-55.1,40.4-130.5,0-185.6l27.6-27.6
				c5,1.6,10.2,2.4,15.7,2.4c28.9,0,52.4-23.4,52.4-52.3c0-28.9-23.4-52.4-52.4-52.4S368,50.7,368,79.6c0,5.5,0.8,10.8,2.4,15.7
				L342.8,123c-55.1-40.4-130.5-40.4-185.6,0l-27.6-27.6c1.6-5,2.4-10.2,2.4-15.7c0-28.9-23.4-52.4-52.3-52.4S27.3,50.7,27.3,79.6
				S50.7,132,79.6,132c5.5,0,10.8-0.8,15.7-2.4l27.6,27.6c-40.4,55.1-40.4,130.5,0,185.6l-27.6,27.6c-5-1.6-10.2-2.4-15.7-2.4
				c-28.9,0-52.4,23.4-52.4,52.4c0,28.9,23.4,52.4,52.3,52.4s52.4-23.4,52.4-52.4c0-5.5-0.8-10.8-2.4-15.7l27.6-27.6
				c55.1,40.4,130.5,40.4,185.6,0l27.6,27.6c-1.6,5-2.4,10.2-2.4,15.7c0,28.9,23.4,52.4,52.4,52.4s52.4-23.4,52.4-52.4
				C472.7,391.5,449.3,368,420.4,368z"/>
		</g>
	</g>
	<line class="st2" x1="197.9" y1="245.6" x2="239.8" y2="287.5"/>
	<line class="st2" x1="310.8" y1="219.3" x2="243.7" y2="286.5"/>
</g>
</svg>
