<?xml version="1.0" encoding="utf-8"?>
<!-- Generator: Adobe Illustrator 22.0.1, SVG Export Plug-In . SVG Version: 6.00 Build 0)  -->
<svg version="1.1" id="Слой_1" xmlns="http://www.w3.org/2000/svg" xmlns:xlink="http://www.w3.org/1999/xlink" x="0px" y="0px"
	 viewBox="0 0 50 50" style="enable-background:new 0 0 50 50;" xml:space="preserve">
<style type="text/css">
	.st0{fill:#4CBF5E;}
</style>
<g>
	<path class="st0" d="M19.2,6.6H6.5C4,6.6,2,8.7,2,11.2v9.5c0,2.5,2,4.5,4.5,4.5h5.4v1.6H9.6V29h6.6v-2.2h-2.4v-1.6h5.4
		c2.5,0,4.5-2,4.5-4.5v-9.5C23.8,8.7,21.7,6.6,19.2,6.6z M6.5,8.5h12.7c1.5,0,2.6,1.2,2.6,2.6v8.2h-18v-8.2C3.9,9.7,5.1,8.5,6.5,8.5
		z M19.2,23.3H6.5c-1.5,0-2.6-1.2-2.6-2.6v-0.1h18v0.1C21.9,22.1,20.7,23.3,19.2,23.3z"/>
	<circle class="st0" cx="12.9" cy="32" r="1.7"/>
	<circle class="st0" cx="4.4" cy="39.1" r="1.7"/>
	<circle class="st0" cx="21.3" cy="39.1" r="1.7"/>
	<path class="st0" d="M12.9,34.9c-2.3,0-4.2,1.9-4.2,4.2s1.9,4.2,4.2,4.2s4.2-1.9,4.2-4.2S15.2,34.9,12.9,34.9z M12.9,41.5
		c-1.3,0-2.4-1.1-2.4-2.4s1.1-2.4,2.4-2.4s2.4,1.1,2.4,2.4S14.2,41.5,12.9,41.5z"/>
	<path class="st0" d="M43.5,6.6H30.8c-2.5,0-4.5,2-4.5,4.5v9.5c0,2.5,2,4.5,4.5,4.5h5.4v1.6h-2.4V29h6.6v-2.2h-2.4v-1.6h5.4
		c2.5,0,4.5-2,4.5-4.5v-9.5C48,8.7,46,6.6,43.5,6.6z M30.8,8.5h12.7c1.5,0,2.6,1.2,2.6,2.6v8.2h-18v-8.2C28.1,9.7,29.3,8.5,30.8,8.5
		z M43.5,23.3H30.8c-1.5,0-2.6-1.2-2.6-2.6v-0.1h18v0.1C46.1,22.1,44.9,23.3,43.5,23.3z"/>
	<circle class="st0" cx="37.1" cy="32" r="1.7"/>
	<circle class="st0" cx="28.7" cy="39.1" r="1.7"/>
	<circle class="st0" cx="45.6" cy="39.1" r="1.7"/>
	<path class="st0" d="M37.1,34.9c-2.3,0-4.2,1.9-4.2,4.2s1.9,4.2,4.2,4.2c2.3,0,4.2-1.9,4.2-4.2S39.5,34.9,37.1,34.9z M37.1,41.5
		c-1.3,0-2.4-1.1-2.4-2.4s1.1-2.4,2.4-2.4c1.3,0,2.4,1.1,2.4,2.4S38.4,41.5,37.1,41.5z"/>
</g>
</svg>
