<?xml version="1.0" encoding="UTF-8"?>
<!DOCTYPE svg PUBLIC "-//W3C//DTD SVG 1.1//EN" "http://www.w3.org/Graphics/SVG/1.1/DTD/svg11.dtd">
<!-- Creator: CorelDRAW 2018 (64-Bit Оценочная версия) -->
<svg xmlns="http://www.w3.org/2000/svg" xml:space="preserve" width="41.123mm" height="41.1296mm" version="1.1" style="shape-rendering:geometricPrecision; text-rendering:geometricPrecision; image-rendering:optimizeQuality; fill-rule:evenodd; clip-rule:evenodd"
viewBox="0 0 193.16 193.19"
 xmlns:xlink="http://www.w3.org/1999/xlink">
 <defs>
  <style type="text/css">
   <![CDATA[
    .fil0 {fill:#4CBF5E}
   ]]>
  </style>
 </defs>
 <g id="Слой_x0020_1">
  <metadata id="CorelCorpID_0Corel-Layer"/>
  <g id="_2774132816960">
   <path class="fil0" d="M169.22 32.94c-15.29,-17.44 -36.3,-28.81 -59.16,-32 -1.55,-0.22 -2.98,0.86 -3.19,2.41 -0.22,1.55 0.86,2.98 2.41,3.19 21.51,3.01 41.29,13.71 55.68,30.13 14.53,16.57 22.54,37.86 22.54,59.93 0,24.29 -9.46,47.13 -26.63,64.3 -17.17,17.17 -40.01,26.63 -64.29,26.63 -21.47,0 -42.31,-7.62 -58.67,-21.47 -1.19,-1.01 -2.98,-0.86 -3.99,0.33 -1.01,1.19 -0.86,2.98 0.33,3.99 17.39,14.71 39.52,22.8 62.33,22.8 25.8,0 50.05,-10.05 68.29,-28.29 18.24,-18.24 28.29,-42.5 28.29,-68.3 0,-23.44 -8.5,-46.05 -23.94,-63.66l-0 0zm0 0z"/>
   <path class="fil0" d="M96.58 5.66c1.56,0 2.83,-1.27 2.83,-2.83 0,-1.56 -1.27,-2.83 -2.83,-2.83 -25.8,0 -50.05,10.05 -68.29,28.29 -18.24,18.24 -28.29,42.5 -28.29,68.3 0,23.16 8.32,45.56 23.43,63.08 0.56,0.65 1.35,0.98 2.14,0.98 0.66,0 1.31,-0.23 1.85,-0.69 1.18,-1.02 1.31,-2.81 0.29,-3.99 -14.22,-16.48 -22.06,-37.57 -22.06,-59.38 0,-24.29 9.46,-47.13 26.63,-64.3 17.17,-17.17 40.01,-26.63 64.29,-26.63l0 0zm0 0z"/>
   <path class="fil0" d="M86.57 43.77l-16.83 16.83c-4.68,4.68 -4.68,12.29 0,16.96l16.62 16.62c1.99,1.99 4.63,3.09 7.44,3.11 -0.8,0.46 -1.55,1.03 -2.22,1.7l-0.03 0.03c-3.99,3.99 -4.13,10.39 -0.42,14.55l-14.27 0c-5.86,0 -10.63,4.77 -10.63,10.63 0,5.86 4.77,10.63 10.63,10.63l14.46 -0c-3.7,4.17 -3.55,10.58 0.44,14.57 2.01,2.01 4.68,3.11 7.52,3.11 2.84,0 5.51,-1.11 7.52,-3.11l16.62 -16.62c4.68,-4.68 4.68,-12.29 0,-16.96l-2.67 -2.68c-1.11,-1.11 -2.9,-1.11 -4,0 -1.11,1.1 -1.11,2.9 0,4l2.67 2.67c2.47,2.47 2.47,6.49 0,8.96l-16.62 16.62c-0.94,0.94 -2.19,1.46 -3.52,1.46 -1.33,0 -2.58,-0.52 -3.51,-1.46 -1.94,-1.94 -1.94,-5.09 0,-7.03l4.36 -4.36c0.81,-0.81 1.05,-2.03 0.61,-3.08 -0.44,-1.06 -1.47,-1.75 -2.61,-1.75l-21.26 0c-2.74,0 -4.97,-2.23 -4.97,-4.97 0,-2.74 2.23,-4.97 4.97,-4.97l21.07 0c1.14,0 2.18,-0.69 2.61,-1.75 0.44,-1.06 0.19,-2.27 -0.61,-3.08l-4.38 -4.38c-1.93,-1.93 -1.93,-5.07 0,-7l0.03 -0.03c0.93,-0.93 2.18,-1.45 3.5,-1.45 1.32,0 2.56,0.51 3.5,1.45l4.89 4.89c1.11,1.11 2.9,1.11 4,0 1.1,-1.11 1.1,-2.9 0,-4l-4.89 -4.89c-1.98,-1.98 -4.61,-3.08 -7.42,-3.1 0.8,-0.46 1.55,-1.03 2.23,-1.71 3.99,-3.99 4.14,-10.4 0.44,-14.57l14.46 -0c5.86,0 10.63,-4.77 10.63,-10.63 0,-5.86 -4.77,-10.63 -10.63,-10.63l-14.27 0c3.71,-4.16 3.56,-10.56 -0.42,-14.55l-0.03 -0.03c-2,-2 -4.67,-3.11 -7.5,-3.11 -2.83,0 -5.5,1.1 -7.5,3.11l-0 0zm11.03 4.03c1.93,1.93 1.93,5.07 0,7l-4.38 4.38c-0.81,0.81 -1.05,2.03 -0.61,3.08 0.44,1.06 1.47,1.75 2.61,1.75l21.07 0c2.74,0 4.97,2.23 4.97,4.97 0,2.74 -2.23,4.97 -4.97,4.97l-21.27 0c-1.14,0 -2.18,0.69 -2.61,1.75 -0.44,1.06 -0.2,2.27 0.61,3.08l4.36 4.36c1.94,1.94 1.94,5.09 0,7.03 -0.94,0.94 -2.19,1.45 -3.52,1.45 -1.33,0 -2.57,-0.52 -3.51,-1.45l-16.62 -16.62c-2.47,-2.47 -2.47,-6.49 0,-8.96l16.83 -16.83c0.93,-0.93 2.18,-1.45 3.5,-1.45 1.32,0 2.56,0.51 3.5,1.45l0.03 0.03zm0 0z"/>
  </g>
 </g>
</svg>
