<svg id="Слой_1" data-name="Слой 1" xmlns="http://www.w3.org/2000/svg" viewBox="0 0 116.57 116.59"><defs><style>.cls-1{fill:#4cbf5e;}</style></defs><path class="cls-1" d="M102.79,63.29a28.55,28.55,0,1,0,0,40.38A28.54,28.54,0,0,0,102.79,63.29ZM82.6,108.67a25.19,25.19,0,1,1,25.19-25.19A25.22,25.22,0,0,1,82.6,108.67Z"/><path class="cls-1" d="M90.81,74a6.09,6.09,0,0,0-6.08,6.08v7a6.09,6.09,0,1,0,12.17,0v-7A6.09,6.09,0,0,0,90.81,74Zm2.73,13.13a2.73,2.73,0,1,1-5.45,0v-7a2.73,2.73,0,0,1,5.45,0Z"/><path class="cls-1" d="M79.36,82.34a6.33,6.33,0,0,0-4.59-2c-.41,0-.78,0-1.12,0h0l.48-2.9h4.31a1.68,1.68,0,0,0,1.68-1.76,1.65,1.65,0,0,0-1.65-1.55H72.73a1.66,1.66,0,0,0-1.64,1.38L70,82.44a1.67,1.67,0,0,0,.66,1.62,1.64,1.64,0,0,0,1.73.13l.13-.06a4.76,4.76,0,0,1,2.3-.46,3,3,0,0,1,3,3.19,3,3,0,0,1-5.67,1.3,1.65,1.65,0,0,0-2.91,1.57A6.34,6.34,0,0,0,74.77,93h.13a6.35,6.35,0,0,0,6.19-6,6.23,6.23,0,0,0-1.73-4.69Z"/><path class="cls-1" d="M65.55,106.39A14.51,14.51,0,0,1,60,108.45v-7.51a28.32,28.32,0,0,1-3.59-6v13.56c-7.68-1.09-14.41-9.1-18.64-20.94a91.74,91.74,0,0,1,16.34-2.13c0-.62-.07-1.24-.07-1.87s0-1.15.06-1.72a94.28,94.28,0,0,0-17.46,2.3,89.74,89.74,0,0,1-3.53-23.94h23.3v12A28.32,28.32,0,0,1,60,66.07V60.15h6.19a28.42,28.42,0,0,1,7-3.58H60V35a94.61,94.61,0,0,0,19.76-2.36A89.64,89.64,0,0,1,83.27,55a28.5,28.5,0,0,1,3.6.3,93.32,93.32,0,0,0-3.59-23.54,62.45,62.45,0,0,0,13.61-5.42,50.1,50.1,0,0,1,11.52,30.24H92a28.42,28.42,0,0,1,7,3.58h9.42a50.26,50.26,0,0,1-1.15,9,27.89,27.89,0,0,1,2.35,5.15A53.79,53.79,0,0,0,58.22,4.54a55.77,55.77,0,0,0-5.77.31,50.28,50.28,0,0,0-5.2.84l-1,.21A53.84,53.84,0,0,0,19.74,20.75c-.67.69-1.33,1.4-2,2.13a53.82,53.82,0,0,0,54.66,87.29A28.57,28.57,0,0,1,65.55,106.39Zm5.6-96.56,1.13.32,1.35.41,1.13.39,1.32.47,1.11.45,1.28.53,1.09.5,1.26.61c.36.18.72.36,1.07.55l1.21.67,1.05.61,1.17.73,1,.67,1.13.79c.33.24.66.47,1,.72l1.1.86.94.76c.36.3.71.61,1.06.92l.91.81c.34.32.67.65,1,1s.59.57.87.86l.15.17a60,60,0,0,1-12.29,4.73A44.45,44.45,0,0,0,70.71,9.73ZM60,8.27c7.67,1.09,14.4,9.11,18.63,20.94A91.25,91.25,0,0,1,60,31.4Zm-3.59,48.3H33.13a89.8,89.8,0,0,1,3.53-23.94A94.7,94.7,0,0,0,56.43,35Zm0-48.3V31.4a91.35,91.35,0,0,1-18.64-2.19C42,17.38,48.75,9.36,56.43,8.27ZM22.13,23.44l.87-.86c.33-.33.66-.66,1-1l.92-.83c.35-.3.69-.61,1-.91l1-.77L28,18.25c.33-.24.66-.48,1-.71s.74-.54,1.12-.79l1-.67c.38-.25.77-.49,1.15-.72l1.06-.62,1.2-.66,1.08-.56,1.23-.6,1.1-.5,1.28-.54,1.11-.45L41.68,11l1.13-.39,1.35-.4c.38-.11.75-.23,1.13-.33l.44-.1A44.53,44.53,0,0,0,34.26,28.35,60,60,0,0,1,22,23.62Zm-2.58,2.89a62.33,62.33,0,0,0,13.62,5.42,93.06,93.06,0,0,0-3.63,24.82H8A50.15,50.15,0,0,1,19.55,26.33Zm0,64.06A50.15,50.15,0,0,1,8,60.15h21.5A93.06,93.06,0,0,0,33.17,85,62.83,62.83,0,0,0,19.55,90.39Zm25.73,16.5-1.11-.32-1.36-.41-1.12-.39-1.32-.47-1.11-.44L38,104.32l-1.1-.5-1.25-.61-1.08-.55L33.34,102c-.36-.2-.7-.4-1-.61s-.79-.48-1.17-.73-.69-.44-1-.67-.76-.52-1.14-.79l-1-.72c-.37-.28-.73-.57-1.09-.86s-.64-.5-.95-.76-.7-.61-1.05-.92L24,95.12l-1-1-.86-.86L22,93.11a60,60,0,0,1,12.29-4.73A44.53,44.53,0,0,0,45.72,107Z"/></svg>