<svg width="23" height="22" viewBox="0 0 23 22" fill="none" xmlns="http://www.w3.org/2000/svg">
<path d="M11.4477 0C13.164 0 14.797 0.399306 16.2624 1.11359C16.4922 1.21888 16.7236 1.34488 16.9526 1.471L15.9478 2.37479L14.4415 0.798723L11.8459 3.11002L10.3175 1.44973L5.54465 5.75767L8.60037 9.14088L7.40745 10.1913L10.4222 13.5745L9.22921 14.6245L13.5417 19.4367L16.094 17.0831L18.314 19.6053C17.874 19.9416 17.3926 20.2785 16.8699 20.5722C15.2787 21.4757 13.4363 22 11.4688 22C5.4186 22 0.500069 17.0629 0.500069 10.9906C0.478704 4.95927 5.3981 0 11.4477 0ZM9.43776 10.3176L12.0545 7.96401L14.3995 10.5906L11.7822 12.944L9.43776 10.3176ZM11.3013 14.8567L13.8968 12.4822L16.2624 15.1086L13.6456 17.4623L11.3013 14.8567ZM7.57582 5.84201L10.1918 3.48838L12.5363 6.11497L9.91942 8.46849L7.57582 5.84201ZM12.3685 4.5808L14.3155 2.81578L16.0743 4.7701L14.1273 6.55597L12.3685 4.5808ZM15.8438 12.6709L17.7901 10.9058L19.5488 12.8805L17.6018 14.6467L15.8438 12.6709ZM17.5601 16.6429L19.5071 14.8774L21.2644 16.8316L19.3182 18.6172L17.5601 16.6429ZM18.3557 7.5647L19.6534 6.38783L20.8252 7.69115L19.5278 8.86758L18.3557 7.5647ZM16.681 3.67723L17.9788 2.47974L19.1515 3.80335L17.8528 4.98011L16.681 3.67723ZM20.0092 11.4525L21.3069 10.2757L22.5 11.5786L21.1817 12.7551L20.0092 11.4525ZM14.169 8.53155L16.1161 6.76642L17.874 8.7203L15.9278 10.4858L14.169 8.53155Z" fill="#036CB5"/>
</svg>
