<svg width="39" height="12" viewBox="0 0 39 12" fill="none" xmlns="http://www.w3.org/2000/svg">
<path d="M36.3772 0.184204H33.9254C33.1842 0.184204 32.614 0.412274 32.2719 1.1535L27.5965 11.8158H30.9035C30.9035 11.8158 31.4737 10.3903 31.5877 10.0482C31.9298 10.0482 35.1798 10.0482 35.6359 10.0482C35.75 10.4474 36.0351 11.7588 36.0351 11.7588H39L36.3772 0.184204ZM32.5 7.6535C32.7851 6.96929 33.7544 4.4035 33.7544 4.4035C33.7544 4.46052 34.0395 3.71929 34.1535 3.32017L34.3816 4.34648C34.3816 4.34648 35.0088 7.14034 35.1228 7.71051H32.5V7.6535Z" fill="#3362AB"/>
<path d="M27.8245 7.9956C27.8245 10.3903 25.6579 11.9868 22.2938 11.9868C20.8684 11.9868 19.5 11.7017 18.7588 11.3596L19.2149 8.73683L19.614 8.90788C20.6403 9.36402 21.3245 9.53508 22.5789 9.53508C23.4912 9.53508 24.4605 9.19297 24.4605 8.39473C24.4605 7.88157 24.0614 7.53946 22.807 6.96929C21.6096 6.39911 20.0131 5.48683 20.0131 3.83333C20.0131 1.55263 22.2368 0.0131531 25.3728 0.0131531C26.5702 0.0131531 27.5965 0.241223 28.2237 0.526311L27.7675 3.03508L27.5395 2.80701C26.9693 2.57894 26.228 2.35087 25.1447 2.35087C23.9473 2.40789 23.3772 2.92105 23.3772 3.37719C23.3772 3.89034 24.0614 4.28947 25.1447 4.80262C26.9693 5.65789 27.8245 6.62718 27.8245 7.9956Z" fill="#3362AB"/>
<path d="M0 0.29823L0.0570175 0.0701599H4.96052C5.64473 0.0701599 6.15789 0.29823 6.32894 1.03946L7.41227 6.17103C6.32894 3.43419 3.82017 1.21051 0 0.29823Z" fill="#F9B50B"/>
<path d="M14.3114 0.184215L9.35088 11.7588H5.98685L3.13597 2.06579C5.1886 3.37719 6.89913 5.42982 7.52632 6.85526L7.86842 8.05263L10.9474 0.127197H14.3114V0.184215Z" fill="#3362AB"/>
<path d="M15.6228 0.127197H18.7588L16.7631 11.7588H13.6272L15.6228 0.127197Z" fill="#3362AB"/>
</svg>
