<svg width="27" height="18" viewBox="0 0 27 18" fill="none" xmlns="http://www.w3.org/2000/svg">
<path d="M17.1502 2.42374H9.84979V15.5762H17.1502V2.42374Z" fill="#FF5F00"/>
<path d="M10.3133 8.99997C10.3133 6.32765 11.5648 3.95741 13.4884 2.42373C12.0747 1.30832 10.2901 0.63443 8.34335 0.63443C3.73133 0.63443 0 4.37569 0 8.99997C0 13.6243 3.73133 17.3655 8.34335 17.3655C10.2901 17.3655 12.0747 16.6916 13.4884 15.5762C11.5648 14.0658 10.3133 11.6723 10.3133 8.99997Z" fill="#EB001B"/>
<path d="M27 9C27 13.6243 23.2687 17.3655 18.6567 17.3655C16.7099 17.3655 14.9253 16.6917 13.5116 15.5762C15.4584 14.0426 16.6867 11.6723 16.6867 9C16.6867 6.32768 15.4352 3.95744 13.5116 2.42376C14.9253 1.30835 16.7099 0.63446 18.6567 0.63446C23.2687 0.63446 27 4.39896 27 9Z" fill="#F79E1B"/>
</svg>
