<svg width="35" height="12" viewBox="0 0 35 12" fill="none" xmlns="http://www.w3.org/2000/svg">
<path d="M31.4019 0.929901H24.6635C25.0561 3.1542 27.2149 5.24766 29.5701 5.24766H34.9346C35 5.0514 35 4.7243 35 4.52803C35 2.56542 33.3645 0.929901 31.4019 0.929901Z" fill="url(#paint0_linear)"/>
<path d="M25.2523 5.6402V11.0701H28.5233V8.1916H31.4019C32.9719 8.1916 34.3458 7.07945 34.8037 5.6402H25.2523Z" fill="#4FAD50"/>
<path d="M13.7383 0.929901V11.0047H16.6168C16.6168 11.0047 17.3364 11.0047 17.729 10.285C19.6916 6.42523 20.2804 5.24766 20.2804 5.24766H20.6729V11.0047H23.9439V0.929901H21.0654C21.0654 0.929901 20.3458 0.995326 19.9533 1.64953C18.3178 4.98598 17.4019 6.68692 17.4019 6.68692H17.0093V0.929901H13.7383Z" fill="#4FAD50"/>
<path d="M-3.05176e-05 11.0701V0.995331H3.271C3.271 0.995331 4.1869 0.995329 4.71026 2.43458C6.01867 6.22898 6.14952 6.75235 6.14952 6.75235C6.14952 6.75235 6.41119 5.83645 7.58876 2.43458C8.11213 0.995329 9.02802 0.995331 9.02802 0.995331H12.2991V11.0701H9.02802V5.6402H8.6355L6.80373 11.0701H5.36447L3.5327 5.6402H3.14017V11.0701H-3.05176e-05Z" fill="#4FAD50"/>
<defs>
<linearGradient id="paint0_linear" x1="24.6519" y1="3.11973" x2="34.9768" y2="3.11973" gradientUnits="userSpaceOnUse">
<stop stop-color="#27B1E6"/>
<stop offset="1" stop-color="#148ACA"/>
</linearGradient>
</defs>
</svg>
