<svg width="23" height="22" viewBox="0 0 23 22" fill="none" xmlns="http://www.w3.org/2000/svg">
<g clip-path="url(#clip0)">
<path d="M11.5 22C17.5751 22 22.5 17.0751 22.5 11C22.5 4.92488 17.5751 0 11.5 0C5.42488 0 0.5 4.92488 0.5 11C0.5 17.0751 5.42488 22 11.5 22Z" fill="#F7931A"/>
<path fill-rule="evenodd" clip-rule="evenodd" d="M16.0759 9.28877C16.2915 7.84759 15.1942 7.07286 13.6938 6.556L14.1805 4.60378L12.9922 4.30761L12.5183 6.2084C12.2059 6.13058 11.8851 6.05711 11.5662 5.98437L12.0435 4.07103L10.8558 3.77487L10.3688 5.72646C10.1102 5.66757 9.85634 5.60931 9.60994 5.54808L9.61127 5.54199L7.97245 5.13279L7.65634 6.402C7.65634 6.402 8.53804 6.60408 8.51943 6.61659C9.00072 6.73677 9.08767 7.05526 9.07314 7.30771L8.51874 9.53178C8.55192 9.54021 8.59487 9.5524 8.64226 9.57138L8.60202 9.56129H8.60197C8.57443 9.55437 8.54587 9.54722 8.51672 9.54021L7.73957 12.6558C7.68072 12.802 7.53145 13.0213 7.19503 12.9381C7.20685 12.9553 6.33125 12.7225 6.33125 12.7225L5.74133 14.0827L7.28775 14.4682C7.46045 14.5115 7.63109 14.556 7.79994 14.6L7.80017 14.6001C7.9125 14.6294 8.02406 14.6585 8.13493 14.6869L7.64314 16.6615L8.83013 16.9576L9.31716 15.004C9.64143 15.092 9.95617 15.1733 10.2642 15.2497L9.77884 17.1942L10.9672 17.4904L11.459 15.5195C13.4853 15.903 15.0091 15.7483 15.6505 13.9155C16.1673 12.4398 15.6247 11.5886 14.5586 11.0335C15.335 10.8545 15.9199 10.3437 16.0759 9.28877ZM13.3608 13.0961C13.0238 14.45 10.9046 13.8903 9.93504 13.6341H9.9349C9.84772 13.6111 9.76981 13.5905 9.70335 13.574L10.3559 10.9581C10.4369 10.9782 10.5358 11.0005 10.6478 11.0256H10.6479C11.6508 11.2506 13.706 11.7118 13.3608 13.0961ZM10.8494 9.81159C11.6578 10.0273 13.4212 10.4979 13.7283 9.26741C14.042 8.00878 12.3281 7.62937 11.4911 7.44407C11.3969 7.42326 11.3139 7.40484 11.2461 7.38797L10.6544 9.76058C10.7103 9.77451 10.7759 9.79202 10.8494 9.81159Z" fill="white"/>
</g>
<defs>
<clipPath id="clip0">
<rect width="22" height="22" fill="white" transform="translate(0.5)"/>
</clipPath>
</defs>
</svg>
