<svg width="15" height="24" viewBox="0 0 15 24" fill="none" xmlns="http://www.w3.org/2000/svg">
<g clip-path="url(#clip0)">
<path d="M7.49783 -3.05176e-05L7.34064 0.546737V16.4127L7.49783 16.5732L14.6946 12.2199L7.49783 -3.05176e-05Z" fill="#343434"/>
<path d="M7.49794 -3.05176e-05L0.301147 12.2198L7.49794 16.5731V8.87237V-3.05176e-05Z" fill="#8C8C8C"/>
<path d="M7.49782 17.9676L7.40924 18.0781V23.7299L7.49782 23.9946L14.6989 13.6165L7.49782 17.9676Z" fill="#3C3C3B"/>
<path d="M7.49788 23.9947V17.9675L0.301086 13.6164L7.49788 23.9947Z" fill="#8C8C8C"/>
<path d="M7.4978 16.5733L14.6946 12.22L7.4978 8.87247V16.5733Z" fill="#141414"/>
<path d="M0.301086 12.2198L7.49777 16.5731V8.87234L0.301086 12.2198Z" fill="#393939"/>
</g>
<defs>
<clipPath id="clip0">
<rect width="14.4" height="24" fill="white" transform="translate(0.300049)"/>
</clipPath>
</defs>
</svg>
