<svg width="23" height="22" viewBox="0 0 23 22" fill="none" xmlns="http://www.w3.org/2000/svg">
<path d="M22.5 3.05556V19.5556C22.5 20.2039 22.2425 20.8256 21.784 21.284C21.3256 21.7425 20.7039 22 20.0556 22H3.55556C2.74517 22 1.96798 21.6781 1.39495 21.105C0.821924 20.532 0.5 19.7548 0.5 18.9444V3.05556C0.5 2.24517 0.821924 1.46798 1.39495 0.894952C1.96798 0.321924 2.74517 0 3.55556 0H19.4444C20.2548 0 21.032 0.321924 21.605 0.894952C22.1781 1.46798 22.5 2.24517 22.5 3.05556Z" fill="#5B9EDD"/>
<path d="M15.1117 12.9372C16.3889 10.7806 17 7.94446 17 7.94446H12.7222V6.72224H18.2222V5.50002H12.7222V3.0678L10.2778 3.05557V5.50002H4.7778V6.72224H10.2778V7.94446H5.38891V9.16668C5.38891 9.16668 13.4097 9.16668 14.25 9.16057C14.0783 9.64518 13.645 11.1094 13.0186 12.2497C10.6457 11.5134 8.45608 11 6.69852 11C2.48308 11 1.54808 13.1273 1.7473 15.0725C1.90802 16.6247 3.05813 18.8907 6.5708 18.8907C9.77974 18.8907 12.3702 17.0433 13.9646 14.8439C17.0049 16.2501 20.2163 17.6666 22.5 18.9445V15.2546C20.0855 14.4229 17.5439 13.769 15.1117 12.9372ZM6.05991 17.5768C3.09113 17.5768 2.63158 15.8962 2.58024 14.8928C2.53196 14.0152 3.12169 12.3677 6.47363 12.3677C7.7203 12.3677 9.69785 13.0069 11.918 13.9382C10.6634 15.5931 8.65285 17.5768 6.05991 17.5768Z" fill="white"/>
</svg>
