<svg width="684" height="336" viewBox="0 0 684 336" fill="none" xmlns="http://www.w3.org/2000/svg">
<path d="M585.471 207.756L574.07 208.062L573.559 201.868L575.431 202.668L579.872 202.208L579.413 196.525L567.076 196.661L563.723 192.203L563.911 189.837L548 175.56L544.154 178.606L566.803 206.361L570.037 207.467V208.947H565.714L566.803 212.384L594.677 213.61L585.471 207.756Z" fill="#1D2B40"/>
<path d="M603.33 193.275L605.27 191.999V176.786L603.33 175.986L602.445 171.204H599.654L597.851 176.02L595.724 177.943L579.592 186.689V195.334L584.969 202.447H598.531L600.284 198.023L603.33 195.266V193.275Z" fill="#1D2B40"/>
<path d="M615.277 191.998L607.143 195.164L607.245 196.95H605.254V208.215H609.389L608.776 201.051L612.027 202.208V207.296L615.379 207.024L615.277 191.998Z" fill="#1D2B40"/>
<path d="M683.91 260.269L681.664 251.166L673.377 244.053L672.73 230.49L667.251 221.08L662.333 220.859L660.325 237.876L650.898 237.178L648.277 235.578L647.937 228.823L652.923 229.861L657.109 225.777L648.192 220.348H637.676L630.137 231.086H627.04V227.7L618.004 228.397L603.676 244.716L596.07 244.818L587.596 250.672L586.949 275.925L581.912 280.877V285.335L606.569 276.861L626.547 276.061L633.915 292.346L656.615 293.112L678.482 272.538L683.91 260.269Z" fill="#1D2B40"/>
<path d="M636.918 304.836L644.933 305.738L651.416 302.181L651.535 297.263L644.456 296.532L636.918 304.836Z" fill="#1D2B40"/>
<path d="M651.08 198.516L645.907 198.652L646.315 193.275L641.364 190.348L634.387 197.359L639.049 203.144L649.242 204.608L654.926 207.586L655.079 210.342H651.369L651.522 216.06L663.86 215.294L668.352 210.513L673.1 210.053V218.851H681.438V215.294H677.269L676.503 204.608L656.61 195.555L651.08 198.516Z" fill="#1D2B40"/>
<path d="M503.172 172.923L505.095 178.181L512.106 175.56L512.871 168.311L507.222 167.171L503.172 172.923Z" fill="#1D2B40"/>
<path d="M420.898 233.945L411.318 232.72V240.122L414.704 244.121L412.118 248.103L408.221 252.595V260.763L413.479 265.851L418.261 258.177L427.654 244.41L432.163 222.85H426.446L420.898 233.945Z" fill="#1D2B40"/>
<path d="M617.333 211.176H614.219V212.844L616.635 213.61L617.333 211.176Z" fill="#1D2B40"/>
<path d="M603.323 213.61H599.631V215.669H603.323V213.61Z" fill="#1D2B40"/>
<path d="M608.657 215.669H610.972V213.865L612.622 213.61V211.84H608.929L607.415 213.61L605.254 215.669V217.456L608.657 217.098V215.669Z" fill="#1D2B40"/>
<path d="M618.093 217.268H621.82V215.362L624.423 215.669L624.049 212.385L619.846 213.048L619.471 215.141L614.758 215.669H614.52V218.885H618.093V217.268Z" fill="#1D2B40"/>
<path d="M49.3916 51.646L44.3887 50.8802C44.3887 51.1865 44.763 56.5298 45.1544 56.5298C45.5458 56.5298 48.6088 56.5298 48.6088 56.5298L49.3916 51.646Z" fill="#1D2B40"/>
<path d="M300.235 51.8831L300.609 54.912L296.168 55.8309L295.538 62.2122H300.949L308.096 61.5145L311.789 57.1412L307.875 55.6097L305.714 53.1083L302.464 47.9012L300.949 40.4819L294.823 41.7071L293.139 44.3447V47.2545L296.083 49.2966L300.235 51.8831Z" fill="#1D2B40"/>
<path d="M295.054 54.3344L295.394 50.3525L291.821 48.787L286.835 49.9611L283.125 55.9V59.7627H287.43L295.054 54.3344Z" fill="#1D2B40"/>
<path d="M550.846 171.46L572.814 192.492L573.971 188.749L556.155 163.326L557.993 155.906L567.403 166.61L572.678 167.12L579.553 162.526L578.43 155.617L567.029 146.411L566.569 138.141L569.785 133.717L575.571 135.572L575.111 139.485L578.43 144.573L581.357 142.514L579.757 136.49L595.906 130.705L603.002 124.749L601.93 114.046L587.84 99.258L587.602 87.2613H593.847L613.229 102.049L618.742 100.585L615.084 95.8036L604.72 89.4905L605.316 80.0803L617.67 80.1143L618.657 68.4749L613.977 62.2638L616.768 59.3029L622.775 65.2928L624.698 62.7743L616.989 53.9597L597.812 51.6625L595.31 46.5745L600.841 38.6958L605.248 41.9459L618.385 43.069L635.044 31.9742L637.801 35.4286L634.074 41.2142V46.9999L649.321 59.4901L654.171 56.9717L652.35 48.6335L641.476 38.4916L655.804 37.5216V33.3696L662.747 31.9742L657.421 28.3156L657.676 25.5249L672.208 27.8902L674.948 25.5249L655.328 17.2208L583.705 13.5282L576.966 10.1078L566.331 8.50826L558.316 8.27003L551.067 15.5872L547.97 15.3489L538.338 8.16792H509.955L496.784 0.323242L470.374 1.99087L450.294 10.9246L450.465 21.3558L444.304 23.2106L442.909 12.7794L440.612 9.18891L433.703 7.45323L432.053 13.6983L434.129 18.7863L409.471 17.1867L397.747 22.6321L395.96 17.476L392.999 18.2418L390.872 23.9253L384.729 28.741L369.669 28.3156L368.989 25.0314L384.729 24.3337L387.945 21.577L368.989 12.7624L345.88 13.4941L332.948 20.1136L328.081 28.7581L319.538 32.1103L315.931 36.0242L316.765 40.5846L321.172 41.1802L323.827 47.8678L331.416 44.7707L332.692 53.6704H330.395L324.133 52.7345L317.207 53.8917L310.503 63.3699L300.905 64.9014L299.527 73.0694L303.577 74.0394L302.437 79.3315L292.89 77.4427L284.144 79.3315L282.306 84.1813L283.821 94.3913L288.943 96.7906L297.536 96.7566L303.356 96.2291L305.125 91.6176L314.178 79.825L320.168 81.0162L326.056 75.69L327.162 79.8761L341.626 89.6436L339.873 92.094L333.339 91.7537L335.84 95.3102L339.856 96.2121L344.553 94.2211L344.451 88.5716L346.561 87.5336L344.842 85.7468L335.211 80.3696L332.675 73.1885H340.707L343.26 75.741L350.185 81.6968L350.475 88.9119L357.656 96.5183L360.293 86.0872L365.279 83.3645L366.198 91.9409L371.065 97.2671L385.648 97.0289L390.004 100.245V107.885L384.695 112.735H369.874L360.872 106.014L351.377 106.95V112.735H348.382L345.166 110.404L328.744 106.252V95.6165L307.933 97.2501L301.45 100.704H293.248L289.198 100.279L279.158 105.86V116.36L258.67 131.147L260.389 137.46H264.524L263.452 143.484L260.542 144.556L260.389 160.28L278.069 180.478H285.794L286.237 179.253H300.105L304.104 175.561H311.966L316.288 179.883L327.996 181.074L326.464 196.661L339.499 219.634L332.624 232.737L333.084 238.88L338.478 244.291V259.078L345.557 268.625V280.962H366.521L382.245 264.779L387.163 255.998L393.459 254.603V247.218L397.645 242.266L406.425 230.269L404.605 211.959L400.725 205.153L418.031 188.629L437.089 161.369L433.397 159.65L413.606 163.802L408.501 161.301L387.673 122.094L389.137 120.393L409.778 145.458L410.271 153.201L415.019 157.982L424.684 157.353L444.985 142.667L451.332 138.515L451.196 133.427L444.458 132.56C444.458 132.56 420.702 121.363 420.702 120.852C420.702 120.342 420.873 111.272 420.873 111.272H426.131L426.896 117.891L437.889 124.204L450.447 124.8L477.742 129.292L484.123 133.274V139.519L483.29 148.028L497.277 171.034L501.804 172.072L506.296 165.521L508.781 146.939L513.426 136.899L520.93 134.108L534.169 135.367L550.812 150.155V171.426H550.846V171.46ZM359.153 25.1676L349.981 30.7831V34.4757L355.171 36.909L355.529 41.8609L348.194 52.8026L335.466 52.6665L334.666 50.0459L342.63 45.9959L342.681 30.9022L356.226 21.4919H359.17L359.153 25.1676ZM387.418 89.4054L375.438 88.9119L371.831 89.4054V81.2374L374.519 78.2084L377.429 77.2725L383.793 76.5408L385.155 74.3797L387.758 75.673L388.116 83.1262L395.075 86.0191L395.671 89.4054H387.418ZM433.465 95.2591L431.372 97.2841L426.522 96.8927L425.586 95.4293L417.963 94.9018L418.507 92.4174L422.489 88.9289V86.0021L414.815 80.3866L414.474 73.2056L416.04 69.6831L422.251 69.1215L427.577 71.3848L427.815 75.0774L420.294 74.652L419.92 78.1063L429.415 84.3855V89.031L433.482 92.026L433.465 95.2591Z" fill="#1D2B40"/>
<path d="M191.338 74.1751H186.012V76.8977H187.271C187.271 76.8977 187.339 77.4933 187.458 78.2591L190.708 77.9868L192.733 76.7275L193.261 74.1751L195.881 73.9368L196.936 71.8097L194.503 71.2822L192.393 71.3843L191.338 74.1751Z" fill="#1D2B40"/>
<path d="M178.502 79.0425L182.399 78.7022L182.756 76.0136L180.459 74.1758L178.723 76.3369L178.502 79.0425Z" fill="#1D2B40"/>
<path d="M229.187 197.887L212.885 197.751L199.918 192.799L199.306 183.593L194.983 176.021L183.276 175.85L176.486 165.215L170.479 162.288L170.19 165.504L159.214 166.151L155.216 160.586L143.814 158.238L134.421 169.129L119.617 166.644L118.545 149.968L107.756 148.164L112.078 139.996L110.836 135.283L96.6783 144.795L87.7275 143.706L84.5454 136.729L86.5023 129.548L91.4201 120.478L102.736 114.727H124.62L124.552 121.414L132.43 125.073L131.784 113.672L137.45 107.988L148.885 100.45L149.668 95.1575L161.069 83.3309L173.202 76.6093L172.13 75.7075L180.349 67.9989L183.361 68.7987L184.739 70.5344L187.853 67.08L188.619 66.7227L185.199 66.2632L181.745 65.1401V61.7708L183.582 60.2393H187.632L189.487 61.0731L191.087 64.2893L193.044 63.983V63.7107L193.622 63.8809L199.289 63.013L200.088 60.2223L203.322 61.0561V64.0511L200.327 66.11L200.752 69.4283L211.047 72.6274C211.047 72.6274 211.064 72.6615 211.081 72.7295L213.447 72.5253L213.6 68.067L205.449 64.3403L204.972 62.1792L211.762 59.882L212.051 53.3986L204.972 49.1104L204.513 38.1347L194.796 42.9164H191.257L192.21 34.6122L178.988 31.4812L173.525 35.5652V48.1915L163.707 51.3226L159.776 59.5246L155.505 60.1883V49.689L146.265 48.4298L141.653 45.4349L139.798 38.6282L156.339 28.9287L164.456 26.4613L165.238 31.8726L169.765 31.6343L170.122 28.9117L174.819 28.248L174.887 27.2781L172.879 26.4443L172.436 23.5514L178.239 23.092L181.71 19.4334L181.932 19.1611L181.949 19.1952L183.038 18.1061L195.205 16.5406L200.582 21.1351L186.458 28.6394L204.428 32.8936L206.776 26.8697H214.621L217.394 21.6456L211.864 20.2502V13.6307L194.456 5.88815L182.442 7.28352L175.653 10.84L176.112 19.4504L169.033 18.3784L167.944 13.6307L174.717 7.45369L162.397 6.82407L158.857 7.89611L157.292 12.0822L161.869 12.831L160.95 17.4425L153.071 17.9019L151.846 20.9989L140.445 21.3052C140.445 21.3052 140.122 14.8219 139.696 14.8219C139.22 14.8219 148.596 14.6517 148.596 14.6517L155.369 8.03223L151.676 6.21148L146.741 10.9591L138.59 10.5337L133.655 3.72705H123.19L112.214 11.895H122.254L123.19 14.8219L120.553 17.3063L131.647 17.6126L133.349 21.6286L120.876 21.1351L120.28 18.0721L112.402 16.3704L108.233 14.0391L89.7695 14.2093L84.0519 19.7567L80.1892 19.4164L75.8839 16.949L63.0874 13.0862H39.6725L26.0932 22.3262L17.0234 23.7556L12.8543 26.9718L19.3376 27.9417V30.4942H5.46906L0.0917969 34.357L7.01757 40.2107L25.9571 40.3809L28.5777 37.5902H44.4372L50.1378 42.7122L49.8485 50.5568L54.6131 55.0492L50.6142 57.874L51.5501 68.2712L37.2051 85.6792V102.032L44.9136 105.725V120.376L52.2989 132.968L58.3228 133.904L59.1055 129.582L52.0266 118.64L50.6312 108.039H54.7833L56.553 118.981L66.8141 133.904L64.1765 138.754L70.6768 148.692L86.8767 152.691V150.087L93.326 150.989L92.7304 155.635L97.8184 156.571L105.68 158.732L116.758 171.358L130.933 172.413L132.311 183.984L122.612 190.757L122.169 201.052L120.774 207.433L134.779 224.994L135.851 231.001C135.851 231.001 140.956 232.363 141.585 232.363C142.181 232.363 152.986 240.514 152.986 240.514V272.25L156.849 273.322L154.195 287.939L160.695 296.583L159.487 311.116L168.046 326.141L179.039 335.722L190.066 335.96L191.138 332.404L183.038 325.597L183.497 322.177L184.927 318.024L185.25 313.804L179.788 313.634L177.031 310.18L181.574 305.79L182.187 302.471L177.099 301.025L177.422 297.962L184.671 296.873L195.681 291.564L199.374 284.791L210.945 270.004L208.307 258.432L211.881 252.255L222.499 252.613L229.663 246.929L231.978 224.637L239.924 214.529L241.303 208.046L234.071 205.749L229.187 197.887ZM145.448 83.9946L142.81 86.6491H136.889L137.825 82.6332L140.598 82.3609L141.177 80.9996L145.448 80.404V83.9946ZM146.843 76.7114L144.07 78.4982L140.598 79.1278C140.598 79.1278 140.598 73.5804 140.598 73.0188H146.843V76.7114ZM152.102 72.4232L154.96 74.193L152.663 76.0478L150.434 74.193L152.102 72.4232ZM148.341 77.0347H148.8L155.845 79.1278V82.7183H149.94L148.324 80.387L148.341 77.0347ZM143.712 67.097L147.558 70.5514L143.712 71.4873V67.097ZM127.546 67.6756L132.856 65.4805H140.139V67.6756H141.755V71.5043H130.678L126.525 70.3472L127.546 67.6756ZM126.508 77.6133L130.763 73.0188H136.889L129.044 83.9946L125.811 82.2589L126.508 77.6133ZM120.842 51.5098L125.232 52.5478L123.735 58.4356L119.004 59.967L115.992 53.8241L120.842 51.5098ZM98.8904 23.5344V23.1941H102.923L103.281 21.7987H109.9V24.6915L108.011 27.2441H98.8904V23.5344ZM105.357 32.5703C105.357 32.5703 109.407 31.8385 109.747 31.8385C110.104 31.8385 109.747 35.8885 109.747 35.8885L100.626 36.4841L98.8904 34.391L105.357 32.5703Z" fill="#1D2B40"/>
</svg>
