<svg width="55" height="55" viewBox="0 0 55 55" fill="none" xmlns="http://www.w3.org/2000/svg">
<path d="M39.0696 41.82C38.3005 42.2307 37.4414 42.4437 36.5696 42.44H18.1896C17.4822 42.44 16.7818 42.3005 16.1284 42.0295C15.475 41.7585 14.8815 41.3613 14.3818 40.8607C13.8821 40.3601 13.486 39.7658 13.2162 39.1119C12.9465 38.458 12.8083 37.7574 12.8096 37.05V18.68C12.8162 17.7371 13.0715 16.8127 13.5496 16" stroke="#92A6C2" stroke-linecap="round" stroke-linejoin="round"/>
<path d="M13.5498 16C14.0241 15.1905 14.7019 14.5192 15.5158 14.0526C16.3298 13.586 17.2516 13.3403 18.1898 13.34H36.5698C37.9976 13.3293 39.3713 13.8857 40.3894 14.8868C41.4074 15.888 41.9866 17.2522 41.9998 18.68V37.05C41.9948 38.1032 41.6744 39.1307 41.0798 40" stroke="#92A6C2" stroke-linecap="round" stroke-linejoin="round"/>
<path d="M27.3799 6.88021V2.97021" stroke="#92A6C2" stroke-linecap="round" stroke-linejoin="round"/>
<path d="M27.3799 13.2902V8.66016" stroke="#92A6C2" stroke-linecap="round" stroke-linejoin="round"/>
<path d="M23.4297 13.2901V9.38013" stroke="#92A6C2" stroke-linecap="round" stroke-linejoin="round"/>
<path d="M19.4894 13.2901V9.82012C19.4874 9.5293 19.4117 9.24373 19.2694 8.99012L16.6494 4.37012" stroke="#92A6C2" stroke-linecap="round" stroke-linejoin="round"/>
<path d="M31.3301 13.2901V9.38013" stroke="#92A6C2" stroke-linecap="round" stroke-linejoin="round"/>
<path d="M35.2695 13.2902V7.21021" stroke="#92A6C2" stroke-linecap="round" stroke-linejoin="round"/>
<path d="M35.2702 7.20999C36.1593 7.20999 36.8802 6.48917 36.8802 5.59999C36.8802 4.71081 36.1593 3.98999 35.2702 3.98999C34.381 3.98999 33.6602 4.71081 33.6602 5.59999C33.6602 6.48917 34.381 7.20999 35.2702 7.20999Z" stroke="#92A6C2" stroke-linecap="round" stroke-linejoin="round"/>
<path d="M15.8502 4.58011C16.7394 4.58011 17.4602 3.85929 17.4602 2.97011C17.4602 2.08093 16.7394 1.36011 15.8502 1.36011C14.9611 1.36011 14.2402 2.08093 14.2402 2.97011C14.2402 3.85929 14.9611 4.58011 15.8502 4.58011Z" stroke="#92A6C2" stroke-linecap="round" stroke-linejoin="round"/>
<path d="M27.3799 42.4402V52.7602" stroke="#92A6C2" stroke-linecap="round" stroke-linejoin="round"/>
<path d="M23.4297 42.4402V46.3502" stroke="#92A6C2" stroke-linecap="round" stroke-linejoin="round"/>
<path d="M17.7194 49.4702L16.6494 51.3602" stroke="#92A6C2" stroke-linecap="round" stroke-linejoin="round"/>
<path d="M19.4897 42.4402V45.9102C19.4877 46.201 19.412 46.4866 19.2697 46.7402L18.6797 47.7402" stroke="#92A6C2" stroke-linecap="round" stroke-linejoin="round"/>
<path d="M31.3301 42.4402V46.3502" stroke="#92A6C2" stroke-linecap="round" stroke-linejoin="round"/>
<path d="M35.2695 42.4402V48.5202" stroke="#92A6C2" stroke-linecap="round" stroke-linejoin="round"/>
<path d="M35.2702 51.74C36.1593 51.74 36.8802 51.0192 36.8802 50.13C36.8802 49.2408 36.1593 48.52 35.2702 48.52C34.381 48.52 33.6602 49.2408 33.6602 50.13C33.6602 51.0192 34.381 51.74 35.2702 51.74Z" stroke="#92A6C2" stroke-linecap="round" stroke-linejoin="round"/>
<path d="M15.8502 54.3701C16.7394 54.3701 17.4602 53.6493 17.4602 52.7601C17.4602 51.871 16.7394 51.1501 15.8502 51.1501C14.9611 51.1501 14.2402 51.871 14.2402 52.7601C14.2402 53.6493 14.9611 54.3701 15.8502 54.3701Z" stroke="#92A6C2" stroke-linecap="round" stroke-linejoin="round"/>
<path d="M41.96 28.24H52.27" stroke="#92A6C2" stroke-linecap="round" stroke-linejoin="round"/>
<path d="M41.96 24.3H45.87" stroke="#92A6C2" stroke-linecap="round" stroke-linejoin="round"/>
<path d="M42 20.35H45.47C45.7577 20.3481 46.04 20.2723 46.29 20.13L50.92 17.51" stroke="#92A6C2" stroke-linecap="round" stroke-linejoin="round"/>
<path d="M41.96 32.1902H45.87" stroke="#92A6C2" stroke-linecap="round" stroke-linejoin="round"/>
<path d="M41.96 36.1401H48.03" stroke="#92A6C2" stroke-linecap="round" stroke-linejoin="round"/>
<path d="M49.6403 37.75C50.5295 37.75 51.2503 37.0292 51.2503 36.14C51.2503 35.2509 50.5295 34.53 49.6403 34.53C48.7511 34.53 48.0303 35.2509 48.0303 36.14C48.0303 37.0292 48.7511 37.75 49.6403 37.75Z" stroke="#92A6C2" stroke-linecap="round" stroke-linejoin="round"/>
<path d="M52.2701 18.3201C53.1593 18.3201 53.8801 17.5993 53.8801 16.7101C53.8801 15.8209 53.1593 15.1001 52.2701 15.1001C51.381 15.1001 50.6602 15.8209 50.6602 16.7101C50.6602 17.5993 51.381 18.3201 52.2701 18.3201Z" stroke="#92A6C2" stroke-linecap="round" stroke-linejoin="round"/>
<path d="M12.8102 28.24H2.49023" stroke="#92A6C2" stroke-linecap="round" stroke-linejoin="round"/>
<path d="M12.8096 24.3H8.88965" stroke="#92A6C2" stroke-linecap="round" stroke-linejoin="round"/>
<path d="M12.8099 20.35H9.32988C9.04222 20.3481 8.75987 20.2723 8.50988 20.13L3.87988 17.51" stroke="#92A6C2" stroke-linecap="round" stroke-linejoin="round"/>
<path d="M12.8096 32.1902H8.88965" stroke="#92A6C2" stroke-linecap="round" stroke-linejoin="round"/>
<path d="M12.8095 36.1401H6.72949" stroke="#92A6C2" stroke-linecap="round" stroke-linejoin="round"/>
<path d="M5.11977 37.75C6.00894 37.75 6.72976 37.0292 6.72976 36.14C6.72976 35.2509 6.00894 34.53 5.11977 34.53C4.23059 34.53 3.50977 35.2509 3.50977 36.14C3.50977 37.0292 4.23059 37.75 5.11977 37.75Z" stroke="#92A6C2" stroke-linecap="round" stroke-linejoin="round"/>
<path d="M2.48988 18.3201C3.37906 18.3201 4.09988 17.5993 4.09988 16.7101C4.09988 15.8209 3.37906 15.1001 2.48988 15.1001C1.6007 15.1001 0.879883 15.8209 0.879883 16.7101C0.879883 17.5993 1.6007 18.3201 2.48988 18.3201Z" stroke="#92A6C2" stroke-linecap="round" stroke-linejoin="round"/>
<path d="M23.5303 25.4101C23.0844 26.0958 22.8385 26.8923 22.8203 27.7101C22.7784 28.7283 23.0781 29.7313 23.6717 30.5596C24.2654 31.388 25.1188 31.9942 26.0965 32.2818C27.0741 32.5695 28.1198 32.5221 29.0675 32.1472C30.0151 31.7724 30.8103 31.0915 31.3265 30.2129C31.8428 29.3342 32.0506 28.3083 31.9169 27.298C31.7832 26.2877 31.3156 25.3511 30.5885 24.6371C29.8614 23.923 28.9165 23.4725 27.904 23.357C26.8915 23.2416 25.8694 23.468 25.0003 24.0001" stroke="#05D89C" stroke-linecap="round" stroke-linejoin="round"/>
<path d="M38.0005 25.9199L35.4405 25.2999C35.2854 24.8136 35.0879 24.3418 34.8505 23.8899L36.0405 21.8899C36.1145 21.7643 36.1449 21.6176 36.1268 21.4729C36.1087 21.3282 36.0432 21.1935 35.9405 21.0899L34.0905 19.2399C33.9885 19.138 33.8556 19.0729 33.7126 19.0548C33.5696 19.0367 33.4246 19.0667 33.3005 19.1399L31.3005 20.3299C30.8509 20.0976 30.3826 19.9036 29.9005 19.7499L29.2705 17.1899C29.2368 17.048 29.1564 16.9215 29.0421 16.8308C28.9278 16.7401 28.7864 16.6905 28.6405 16.6899H26.0705C25.9246 16.6905 25.7831 16.7401 25.6688 16.8308C25.5546 16.9215 25.4741 17.048 25.4405 17.1899C25.4405 17.1899 25.0005 18.9999 24.8105 19.7699C24.2972 19.9297 23.8014 20.1408 23.3305 20.3999L21.2705 19.1599C21.1448 19.0859 20.9982 19.0555 20.8534 19.0736C20.7087 19.0917 20.574 19.1572 20.4705 19.2599L18.6205 21.1099C18.5177 21.2135 18.4522 21.3482 18.4341 21.4929C18.416 21.6376 18.4464 21.7843 18.5205 21.9099L19.8005 23.9999C19.594 24.4055 19.4201 24.8268 19.2805 25.2599L16.7305 25.8899C16.5885 25.9272 16.4628 26.0099 16.3724 26.1255C16.2821 26.2412 16.2322 26.3832 16.2305 26.5299V29.1399C16.231 29.2858 16.2806 29.4273 16.3713 29.5416C16.462 29.6558 16.5885 29.7363 16.7305 29.7699L19.2805 30.3999C19.4381 30.8949 19.6423 31.3737 19.8905 31.8299L18.7405 33.7299C18.6664 33.8556 18.636 34.0022 18.6541 34.147C18.6722 34.2917 18.7377 34.4264 18.8405 34.5299L20.6905 36.3799C20.794 36.4827 20.9287 36.5482 21.0734 36.5663C21.2182 36.5844 21.3648 36.554 21.4905 36.4799L23.3905 35.3399C23.8446 35.5799 24.32 35.7774 24.8105 35.9299L25.4405 38.4899C25.4744 38.6309 25.5553 38.7562 25.6697 38.8452C25.7842 38.9342 25.9255 38.9817 26.0705 38.9799H28.6905C28.8355 38.9817 28.9767 38.9342 29.0912 38.8452C29.2057 38.7562 29.2865 38.6309 29.3205 38.4899L30.0005 35.9999C30.5018 35.8424 30.9873 35.6382 31.4505 35.3899L33.3805 36.5499C33.5061 36.624 33.6528 36.6544 33.7975 36.6363C33.9422 36.6182 34.0769 36.5527 34.1805 36.4499L36.0005 34.5599C36.1032 34.4564 36.1687 34.3217 36.1868 34.177C36.2049 34.0322 36.1745 33.8856 36.1005 33.7599L34.9005 31.8099C35.1387 31.3701 35.333 30.9079 35.4805 30.4299L38.0005 29.7999C38.1414 29.766 38.2667 29.6851 38.3557 29.5707C38.4447 29.4562 38.4922 29.3149 38.4905 29.1699V26.5599C38.491 26.4141 38.4432 26.2722 38.3545 26.1565C38.2659 26.0407 38.1414 25.9575 38.0005 25.9199Z" stroke="#05D89C" stroke-linecap="round" stroke-linejoin="round"/>
</svg>
