<svg width="46" height="55" viewBox="0 0 46 55" fill="none" xmlns="http://www.w3.org/2000/svg">
<path d="M33.45 12.3299C32.5755 12.7534 31.5767 12.8441 30.6402 12.5851C29.7036 12.326 28.8934 11.7349 28.3609 10.9222C27.8283 10.1095 27.6098 9.13065 27.7461 8.16858C27.8825 7.2065 28.3643 6.32695 29.1018 5.69419C29.8392 5.06144 30.7817 4.71874 31.7533 4.73011C32.725 4.74148 33.6592 5.10614 34.3816 5.75598C35.1041 6.40582 35.5652 7.2964 35.679 8.2614C35.7928 9.2264 35.5514 10.1998 35 10.9999M31.68 0.829886C29.3743 0.840463 27.1665 1.76384 25.5399 3.39801C23.9132 5.03219 23 7.24411 23 9.54988C23 14.1499 30.76 23.8899 31.1 24.3099C31.2314 24.4729 31.4221 24.5771 31.6302 24.5996C31.8383 24.6221 32.0468 24.561 32.21 24.4299C32.2549 24.3951 32.2952 24.3547 32.33 24.3099C32.67 23.8899 40.43 14.1499 40.43 9.54988C40.43 8.40223 40.2035 7.26586 39.7634 6.20594C39.3233 5.14602 38.6783 4.1834 37.8654 3.37328C37.0525 2.56316 36.0876 1.92148 35.0262 1.48503C33.9648 1.04857 32.8276 0.825937 31.68 0.829886Z" stroke="#05D89C" stroke-linecap="round" stroke-linejoin="round"/>
<path d="M14.15 11.5698C14.15 11.5698 9.87996 17.6898 11 19.9298C12.12 22.1698 16.64 25.5698 15.52 28.9298C14.4 32.2898 12.12 31.1898 11 34.5798C9.87996 37.9698 9.86996 40.2298 13.25 40.2298C16.63 40.2298 20.03 40.2298 21.16 42.4798C21.585 43.4192 21.7574 44.4533 21.66 45.4798C21.6484 45.7846 21.5768 46.084 21.4494 46.3611C21.3219 46.6382 21.1411 46.8874 20.9173 47.0945C20.6935 47.3016 20.431 47.4626 20.1449 47.5681C19.8588 47.6737 19.5547 47.7219 19.25 47.7098C18.7209 47.6893 18.2139 47.4921 17.81 47.1498V47.1498C16.69 45.9998 15.57 44.8798 13.3 45.9998C11.4448 47.0328 9.32735 47.4987 7.20996 47.3398" stroke="#92A6C2" stroke-linecap="round" stroke-linejoin="round"/>
<path d="M31.3301 52.14C31.3301 52.14 26.8201 44.8 29.0801 42.53C31.3401 40.26 30.2101 35.75 32.4701 34.63C34.7301 33.51 38.1101 34.63 39.2501 38.02C40.3901 41.41 42.2501 42.21 42.2501 42.21" stroke="#92A6C2" stroke-linecap="round" stroke-linejoin="round"/>
<path d="M20.7801 9.86987L19.8701 9.97987" stroke="#92A6C2" stroke-linecap="round" stroke-linejoin="round"/>
<path d="M15.4707 52.5799C20.0595 54.233 25.0675 54.3144 29.7076 52.8111C34.3476 51.3079 38.3565 48.3053 41.1042 44.2754C43.8519 40.2456 45.1824 35.4168 44.8867 30.5483C44.5911 25.6798 42.6859 21.0476 39.4707 17.3799" stroke="#92A6C2" stroke-linecap="round" stroke-linejoin="round"/>
<path d="M19.8702 10C15.1812 10.611 10.8138 12.7166 7.41534 16.0047C4.01693 19.2928 1.76839 23.5883 1.00301 28.2547C0.237627 32.921 0.996139 37.7098 3.16612 41.9112C5.3361 46.1127 8.80204 49.5031 13.0502 51.58" stroke="#92A6C2" stroke-linecap="round" stroke-linejoin="round"/>
</svg>
