<svg width="62" height="54" viewBox="0 0 62 54" fill="none" xmlns="http://www.w3.org/2000/svg">
<path d="M1.12988 35.63L12.2199 11.51L23.3099 35.63" stroke="#92A6C2" stroke-linecap="round" stroke-linejoin="round"/>
<path d="M38.6904 35.6301L49.7804 11.3101L60.8704 35.6301" stroke="#92A6C2" stroke-linecap="round" stroke-linejoin="round"/>
<path d="M30.9998 14.5899C30.0702 14.5899 29.1615 14.3143 28.3886 13.7979C27.6157 13.2814 27.0133 12.5474 26.6576 11.6886C26.3018 10.8297 26.2088 9.88473 26.3901 8.97302C26.5715 8.06131 27.0191 7.22385 27.6764 6.56654C28.3337 5.90924 29.1712 5.4616 30.0829 5.28025C30.9946 5.0989 31.9396 5.19198 32.7984 5.54771C33.6572 5.90344 34.3913 6.50585 34.9077 7.27876C35.4242 8.05167 35.6998 8.96037 35.6998 9.88994C35.6972 11.1356 35.2011 12.3296 34.3203 13.2104C33.4394 14.0913 32.2455 14.5873 30.9998 14.5899Z" stroke="#92A6C2" stroke-linecap="round" stroke-linejoin="round"/>
<path d="M33.8197 6.14V3.32C33.8197 2.94967 33.7467 2.58297 33.605 2.24083C33.4633 1.8987 33.2556 1.58782 32.9937 1.32596C32.7319 1.0641 32.421 0.856377 32.0789 0.714659C31.7367 0.57294 31.37 0.5 30.9997 0.5C30.6294 0.5 30.2627 0.57294 29.9205 0.714659C29.5784 0.856377 29.2675 1.0641 29.0056 1.32596C28.7438 1.58782 28.5361 1.8987 28.3943 2.24083C28.2526 2.58297 28.1797 2.94967 28.1797 3.32V6.14" stroke="#92A6C2" stroke-linecap="round" stroke-linejoin="round"/>
<path d="M21.64 11.31H26.4C26.2666 10.368 26.2666 9.41194 26.4 8.46997H9.39996C8.87996 8.46997 8.45996 9.10997 8.45996 9.88997C8.45996 10.67 8.87996 11.31 9.39996 11.31H17.9" stroke="#92A6C2" stroke-linecap="round" stroke-linejoin="round"/>
<path d="M52.5996 8.46997H35.5996C35.733 9.41194 35.733 10.368 35.5996 11.31H52.5996C53.1196 11.31 53.5396 10.67 53.5396 9.88997C53.5396 9.10997 53.1196 8.46997 52.5996 8.46997Z" stroke="#92A6C2" stroke-linecap="round" stroke-linejoin="round"/>
<path d="M33.82 25.2799V13.6499C33.0091 14.2663 32.0186 14.6 31 14.6C29.9814 14.6 28.9909 14.2663 28.18 13.6499V13.6499V45.9999H24.58C23.7892 45.9933 23.0168 46.2376 22.3736 46.6976C21.7303 47.1575 21.2494 47.8095 21 48.5599V48.5599L19.76 52.2599C19.7108 52.4015 19.6969 52.5529 19.7196 52.701C19.7422 52.8492 19.8007 52.9895 19.89 53.1099C19.98 53.227 20.0948 53.3227 20.2262 53.3901C20.3576 53.4576 20.5024 53.4951 20.65 53.4999H41.33C41.4776 53.4951 41.6223 53.4576 41.7537 53.3901C41.8851 53.3227 42 53.227 42.09 53.1099C42.1792 52.9895 42.2377 52.8492 42.2604 52.701C42.2831 52.5529 42.2692 52.4015 42.22 52.2599L41 48.5599C40.7505 47.8095 40.2696 47.1575 39.6264 46.6976C38.9832 46.2376 38.2107 45.9933 37.42 45.9999H33.82V29.6099" stroke="#92A6C2" stroke-linecap="round" stroke-linejoin="round"/>
<path d="M4.48021 35.24H1.89021C1.74259 35.2448 1.59788 35.2823 1.46647 35.3498C1.33507 35.4172 1.22023 35.5129 1.13021 35.63C1.04095 35.7504 0.98245 35.8907 0.959794 36.0389C0.937137 36.187 0.951011 36.3384 1.00021 36.48L2.24021 40.19C2.48823 40.9381 2.96568 41.5891 3.60475 42.0505C4.24382 42.5118 5.01201 42.7601 5.80021 42.76H18.6402C19.4284 42.7601 20.1966 42.5118 20.8357 42.0505C21.4747 41.5891 21.9522 40.9381 22.2002 40.19L23.4402 36.48C23.4894 36.3384 23.5033 36.187 23.4806 36.0389C23.458 35.8907 23.3995 35.7504 23.3102 35.63C23.2202 35.5129 23.1054 35.4172 22.9739 35.3498C22.8425 35.2823 22.6978 35.2448 22.5502 35.24H4.48021Z" stroke="#05D89C" stroke-linecap="round" stroke-linejoin="round"/>
<path d="M53.8898 35.24H39.4498C39.3022 35.2448 39.1574 35.2823 39.026 35.3498C38.8946 35.4172 38.7798 35.5129 38.6898 35.63C38.6005 35.7504 38.542 35.8907 38.5194 36.0389C38.4967 36.187 38.5106 36.3384 38.5598 36.48L39.7998 40.19C40.0478 40.9381 40.5253 41.5891 41.1643 42.0505C41.8034 42.5118 42.5716 42.7601 43.3598 42.76H56.1998C56.988 42.7601 57.7562 42.5118 58.3952 42.0505C59.0343 41.5891 59.5118 40.9381 59.7598 40.19L60.9998 36.48C61.049 36.3384 61.0629 36.187 61.0402 36.0389C61.0175 35.8907 60.959 35.7504 60.8698 35.63C60.7798 35.5129 60.6649 35.4172 60.5335 35.3498C60.4021 35.2823 60.2574 35.2448 60.1098 35.24H57.6698" stroke="#05D89C" stroke-linecap="round" stroke-linejoin="round"/>
</svg>
