<svg width="58" height="54" viewBox="0 0 58 54" fill="none" xmlns="http://www.w3.org/2000/svg">
<path d="M14.1905 19.3401C12.7249 21.9089 11.9595 24.8174 11.9708 27.7749C11.9822 30.7323 12.7699 33.635 14.2551 36.1924C15.7404 38.7499 17.8712 40.8725 20.4343 42.348C22.9974 43.8235 25.903 44.6 28.8605 44.6001C29.9143 44.5999 30.9657 44.4994 32.0005 44.3001" stroke="#92A6C2" stroke-linecap="round" stroke-linejoin="round"/>
<path d="M45.6398 29.5999C46.0462 25.9796 45.2712 22.3249 43.4303 19.1811C41.5895 16.0374 38.7815 13.5731 35.4254 12.156C32.0692 10.7388 28.3448 10.4448 24.8079 11.3178C21.271 12.1908 18.1111 14.1839 15.7998 16.9999" stroke="#92A6C2" stroke-linecap="round" stroke-linejoin="round"/>
<path d="M28.8598 32.33C32.6209 32.33 35.6698 29.281 35.6698 25.52C35.6698 21.7589 32.6209 18.71 28.8598 18.71C25.0987 18.71 22.0498 21.7589 22.0498 25.52C22.0498 29.281 25.0987 32.33 28.8598 32.33Z" stroke="#92A6C2" stroke-linecap="round" stroke-linejoin="round"/>
<path d="M14.0799 19.54C12.1893 22.9372 11.5309 26.8834 12.2161 30.7104C12.9013 34.5373 14.8881 38.0099 17.8399 40.54C18.3409 38.8872 19.2073 37.3682 20.3751 36.0957C21.5429 34.8232 22.9821 33.8299 24.586 33.1893C26.19 32.5487 27.9175 32.2772 29.6406 32.3951C31.3637 32.5129 33.0382 33.017 34.5399 33.87" stroke="#92A6C2" stroke-linecap="round" stroke-linejoin="round"/>
<path d="M45.67 29.2999C45.67 28.7799 45.74 28.2999 45.74 27.7199C45.7316 24.2689 44.6663 20.9034 42.6874 18.0761C40.7086 15.2489 37.9112 13.0956 34.6717 11.9061C31.4322 10.7166 27.9061 10.548 24.5679 11.4229C21.2297 12.2979 18.2396 14.1744 16 16.7999" stroke="#92A6C2" stroke-linecap="round" stroke-linejoin="round"/>
<path d="M0.620117 40.46V21.5" stroke="#92A6C2" stroke-linecap="round" stroke-linejoin="round"/>
<path d="M0.620131 12V4.26C0.618816 3.76754 0.714509 3.27965 0.901751 2.82417C1.08899 2.3687 1.36411 1.95457 1.7114 1.60542C2.0587 1.25627 2.47136 0.978942 2.92583 0.789274C3.38029 0.599606 3.86767 0.501311 4.36013 0.5H53.6301C54.6247 0.5 55.5785 0.895087 56.2818 1.59835C56.985 2.30161 57.3801 3.25544 57.3801 4.25V49.74C57.3814 50.2325 57.2858 50.7204 57.0985 51.1758C56.9113 51.6313 56.6361 52.0454 56.2889 52.3946C55.9416 52.7437 55.5289 53.0211 55.0744 53.2107C54.62 53.4004 54.1326 53.4987 53.6401 53.5H4.37013C3.37557 53.5 2.42174 53.1049 1.71848 52.4016C1.01522 51.6984 0.620131 50.7446 0.620131 49.75V47.41" stroke="#92A6C2" stroke-linecap="round" stroke-linejoin="round"/>
<path d="M0.620117 7.92993H57.3801" stroke="#92A6C2" stroke-linecap="round" stroke-linejoin="round"/>
<path d="M5.5 5.5C6.32843 5.5 7 4.82843 7 4C7 3.17157 6.32843 2.5 5.5 2.5C4.67157 2.5 4 3.17157 4 4C4 4.82843 4.67157 5.5 5.5 5.5Z" stroke="#05D89C" stroke-linecap="round" stroke-linejoin="round"/>
<path d="M10.5 5.5C11.3284 5.5 12 4.82843 12 4C12 3.17157 11.3284 2.5 10.5 2.5C9.67157 2.5 9 3.17157 9 4C9 4.82843 9.67157 5.5 10.5 5.5Z" stroke="#05D89C" stroke-linecap="round" stroke-linejoin="round"/>
<path d="M15.5 5.5C16.3284 5.5 17 4.82843 17 4C17 3.17157 16.3284 2.5 15.5 2.5C14.6716 2.5 14 3.17157 14 4C14 4.82843 14.6716 5.5 15.5 5.5Z" stroke="#05D89C" stroke-linecap="round" stroke-linejoin="round"/>
<path d="M44 4H53" stroke="#92A6C2" stroke-linecap="round" stroke-linejoin="round"/>
<path d="M32 4H37.5" stroke="#92A6C2" stroke-linecap="round" stroke-linejoin="round"/>
<path d="M0.620117 9.3501V28.8301" stroke="#92A6C2" stroke-linecap="round" stroke-linejoin="round"/>
<path d="M49.2898 48.3401V49.2401C49.2871 49.7396 49.0868 50.2178 48.7327 50.5701C48.3785 50.9223 47.8993 51.1201 47.3998 51.1201H36.3998C35.9002 51.1201 35.421 50.9223 35.0669 50.5701C34.7127 50.2178 34.5124 49.7396 34.5098 49.2401V40.7201C34.5124 40.2206 34.7127 39.7424 35.0669 39.3901C35.421 39.0378 35.9002 38.8401 36.3998 38.8401H47.3998C47.8993 38.8401 48.3785 39.0378 48.7327 39.3901C49.0868 39.7424 49.2871 40.2206 49.2898 40.7201V45.6001" stroke="#05D89C" stroke-linecap="round" stroke-linejoin="round"/>
<path d="M43.6597 43.6001C43.6597 43.1386 43.4764 42.6961 43.1501 42.3697C42.8237 42.0434 42.3812 41.8601 41.9197 41.8601C41.4582 41.8601 41.0156 42.0434 40.6893 42.3697C40.363 42.6961 40.1797 43.1386 40.1797 43.6001C40.1792 43.9122 40.2636 44.2185 40.4239 44.4863C40.5842 44.754 40.8144 44.9731 41.0897 45.1201V47.0001C41.0769 47.1161 41.0887 47.2334 41.1243 47.3445C41.16 47.4556 41.2186 47.558 41.2965 47.6449C41.3743 47.7318 41.4696 47.8013 41.5761 47.8489C41.6827 47.8965 41.798 47.9211 41.9147 47.9211C42.0314 47.9211 42.1467 47.8965 42.2532 47.8489C42.3598 47.8013 42.4551 47.7318 42.5329 47.6449C42.6108 47.558 42.6694 47.4556 42.705 47.3445C42.7407 47.2334 42.7525 47.1161 42.7397 47.0001V45.1301C43.0169 44.982 43.2489 44.7615 43.4109 44.4921C43.5729 44.2227 43.6588 43.9145 43.6597 43.6001V43.6001Z" stroke="#05D89C" stroke-linecap="round" stroke-linejoin="round"/>
<path d="M41.92 31.47C42.5661 31.47 43.2059 31.5972 43.8028 31.8445C44.3997 32.0917 44.9421 32.4541 45.399 32.911C45.8558 33.3679 46.2182 33.9102 46.4655 34.5072C46.7127 35.1041 46.84 35.7439 46.84 36.39V38.84H37V36.38C37 35.0751 37.5184 33.8237 38.441 32.901C39.3637 31.9783 40.6151 31.46 41.92 31.46V31.47Z" stroke="#05D89C" stroke-linecap="round" stroke-linejoin="round"/>
</svg>
