<svg width="56" height="55" viewBox="0 0 56 55" fill="none" xmlns="http://www.w3.org/2000/svg">
<path d="M42.7696 17H49.2696C49.7426 17.0026 50.1953 17.1924 50.5288 17.5278C50.8624 17.8632 51.0496 18.317 51.0496 18.79V47.35H4.55957V18.74C4.57259 18.274 4.76691 17.8314 5.1012 17.5065C5.43549 17.1815 5.88337 16.9998 6.34957 17H12.8096" stroke="#92A6C2" stroke-linecap="round" stroke-linejoin="round"/>
<path d="M8.13965 40V20.53H13.1996" stroke="#92A6C2" stroke-linecap="round" stroke-linejoin="round"/>
<path d="M42.4096 20.53H47.4796V47.35H8.13965V43" stroke="#92A6C2" stroke-linecap="round" stroke-linejoin="round"/>
<path d="M51.05 54.5001H4.56001C4.09119 54.4988 3.62722 54.4051 3.19459 54.2245C2.76196 54.0439 2.36914 53.7798 2.03857 53.4474C1.70799 53.115 1.44613 52.7207 1.26793 52.287C1.08974 51.8534 0.998699 51.3889 1.00001 50.9201V49.1401C1.00001 48.6654 1.1886 48.2101 1.52429 47.8744C1.85998 47.5387 2.31528 47.3501 2.79001 47.3501H52.84C53.3147 47.3501 53.77 47.5387 54.1057 47.8744C54.4414 48.2101 54.63 48.6654 54.63 49.1401V50.9201C54.63 51.8696 54.2528 52.7802 53.5815 53.4515C52.9101 54.1229 51.9995 54.5001 51.05 54.5001V54.5001Z" stroke="#92A6C2" stroke-linecap="round" stroke-linejoin="round"/>
<path d="M20.6604 47.3501H35.0004C35.0004 48.2996 34.6232 49.2102 33.9518 49.8815C33.2805 50.5529 32.3699 50.9301 31.4204 50.9301H24.2304C23.2809 50.9301 22.3703 50.5529 21.6989 49.8815C21.0276 49.2102 20.6504 48.2996 20.6504 47.3501V47.3501H20.6604Z" stroke="#92A6C2" stroke-linecap="round" stroke-linejoin="round"/>
<path d="M41.2595 25.09C40.352 27.596 38.8967 29.8679 36.9995 31.74C34.6132 33.9754 31.7666 35.6615 28.6595 36.68C28.5489 36.7193 28.4351 36.7494 28.3195 36.77C28.1632 36.7847 28.0058 36.7847 27.8495 36.77V36.77C27.5639 36.7682 27.2803 36.721 27.0095 36.63C23.8966 35.6179 21.0454 33.9311 18.6595 31.69C16.7567 29.8206 15.2975 27.5482 14.3895 25.04C12.6695 20.36 12.7695 15.21 12.8395 11.04V10.98C12.8395 10.63 12.8395 10.27 12.8395 9.87998C12.8579 8.9379 13.2302 8.03724 13.8824 7.3572C14.5347 6.67717 15.419 6.2676 16.3595 6.20998C20.0676 6.13316 23.6059 4.64128 26.2495 2.03999C26.6763 1.64559 27.2385 1.43071 27.8195 1.43999C28.3789 1.45052 28.9155 1.66372 29.3295 2.03999V2.03999C31.972 4.643 35.5111 6.13518 39.2195 6.20998C40.1878 6.25903 41.0994 6.68115 41.7631 7.38777C42.4268 8.09438 42.7911 9.03059 42.7795 9.99998C42.7795 10.4 42.7795 10.76 42.7795 11.1C42.8895 15.23 42.9995 20.4 41.2595 25.09Z" stroke="#92A6C2" stroke-linecap="round" stroke-linejoin="round"/>
<path d="M35.4591 14.8199C36.2296 16.1566 36.6348 17.6725 36.6338 19.2154C36.6328 20.7583 36.2258 22.2737 35.4535 23.6095C34.6813 24.9452 33.5711 26.0541 32.2345 26.8248C30.8979 27.5954 29.3819 28.0007 27.8391 27.9999C25.5052 27.9999 23.2668 27.0728 21.6165 25.4224C19.9662 23.7721 19.0391 21.5338 19.0391 19.1999C19.0391 16.866 19.9662 14.6277 21.6165 12.9774C23.2668 11.327 25.5052 10.3999 27.8391 10.3999V10.3999C30.0668 10.4029 32.2106 11.2497 33.8391 12.7699" stroke="#92A6C2" stroke-linecap="round" stroke-linejoin="round"/>
<path d="M31.8 17.8901L27.8 21.8901L26.94 22.7501C26.8465 22.85 26.7334 22.9297 26.6079 22.9841C26.4823 23.0386 26.3469 23.0666 26.21 23.0666C26.0732 23.0666 25.9377 23.0386 25.8122 22.9841C25.6866 22.9297 25.5736 22.85 25.48 22.7501L23.63 20.9001C23.4364 20.7052 23.3282 20.4413 23.3291 20.1666C23.33 19.8918 23.4401 19.6287 23.635 19.4351C23.8299 19.2415 24.0938 19.1332 24.3686 19.1342C24.6433 19.1351 24.9064 19.2452 25.1 19.4401L26.21 20.5501L30.3 16.4601C30.4936 16.2665 30.7562 16.1577 31.03 16.1577C31.3038 16.1577 31.5664 16.2665 31.76 16.4601C31.9536 16.6537 32.0624 16.9163 32.0624 17.1901C32.0624 17.4639 31.9536 17.7265 31.76 17.9201L31.8 17.8901Z" stroke="#05D89C" stroke-linecap="round" stroke-linejoin="round"/>
<path d="M12.6104 43.77H43.0103" stroke="#05D89C" stroke-linecap="round" stroke-linejoin="round"/>
<path d="M12.6104 40.1899H23.3404" stroke="#05D89C" stroke-linecap="round" stroke-linejoin="round"/>
<path d="M32.2803 40.1899H43.0103" stroke="#05D89C" stroke-linecap="round" stroke-linejoin="round"/>
<path d="M37.6396 36.6199H43.0096" stroke="#05D89C" stroke-linecap="round" stroke-linejoin="round"/>
<path d="M41.2197 33.04H43.0097" stroke="#05D89C" stroke-linecap="round" stroke-linejoin="round"/>
<path d="M12.6104 33.04H14.4004" stroke="#05D89C" stroke-linecap="round" stroke-linejoin="round"/>
<path d="M12.6104 36.6199H17.9704" stroke="#05D89C" stroke-linecap="round" stroke-linejoin="round"/>
</svg>
