<svg width="56" height="55" viewBox="0 0 56 55" fill="none" xmlns="http://www.w3.org/2000/svg">
<path d="M32.7002 1H23.3002C21.9802 1 20.9102 2.07004 20.9102 3.39V21.31C20.9102 22.63 21.9802 23.7 23.3002 23.7H32.7002C34.0201 23.7 35.0902 22.63 35.0902 21.31V3.39C35.0902 2.07004 34.0201 1 32.7002 1Z" stroke="#92A6C2" stroke-linecap="round" stroke-linejoin="round"/>
<path d="M26.5498 4.18994H35.0898" stroke="#92A6C2" stroke-linecap="round" stroke-linejoin="round"/>
<path d="M20.9102 4.18994H24.2602" stroke="#92A6C2" stroke-linecap="round" stroke-linejoin="round"/>
<path d="M22.8896 7.80981H27.3196" stroke="#05D89C" stroke-linecap="round" stroke-linejoin="round"/>
<path d="M22.8896 10.26H30.7896" stroke="#05D89C" stroke-linecap="round" stroke-linejoin="round"/>
<path d="M22.8896 12.71H25.6297" stroke="#05D89C" stroke-linecap="round" stroke-linejoin="round"/>
<path d="M27.04 12.71H28.96" stroke="#05D89C" stroke-linecap="round" stroke-linejoin="round"/>
<path d="M20.9102 20.53H35.0902" stroke="#92A6C2" stroke-linecap="round" stroke-linejoin="round"/>
<path d="M12.79 1H3.39C2.07004 1 1 2.07004 1 3.39V21.31C1 22.63 2.07004 23.7 3.39 23.7H12.79C14.11 23.7 15.18 22.63 15.18 21.31V3.39C15.18 2.07004 14.11 1 12.79 1Z" stroke="#92A6C2" stroke-linecap="round" stroke-linejoin="round"/>
<path d="M1 4.18994H15.18" stroke="#92A6C2" stroke-linecap="round" stroke-linejoin="round"/>
<path d="M2.98047 7.80981H7.41047" stroke="#05D89C" stroke-linecap="round" stroke-linejoin="round"/>
<path d="M2.98047 10.26H5.72047" stroke="#05D89C" stroke-linecap="round" stroke-linejoin="round"/>
<path d="M7.19043 10.26H10.3604" stroke="#05D89C" stroke-linecap="round" stroke-linejoin="round"/>
<path d="M2.98047 12.71H8.77047" stroke="#05D89C" stroke-linecap="round" stroke-linejoin="round"/>
<path d="M12.3096 20.53H15.1796" stroke="#92A6C2" stroke-linecap="round" stroke-linejoin="round"/>
<path d="M1 20.53H9.99" stroke="#92A6C2" stroke-linecap="round" stroke-linejoin="round"/>
<path d="M55.0003 9.72V21.82C55.0003 22.3213 54.8012 22.802 54.4467 23.1564C54.0923 23.5109 53.6116 23.71 53.1103 23.71H42.7103C42.2091 23.71 41.7283 23.5109 41.3739 23.1564C41.0194 22.802 40.8203 22.3213 40.8203 21.82V2.89C40.8203 2.38874 41.0194 1.90801 41.3739 1.55357C41.7283 1.19912 42.2091 1 42.7103 1H53.1103C53.6116 1 54.0923 1.19912 54.4467 1.55357C54.8012 1.90801 55.0003 2.38874 55.0003 2.89V6.89" stroke="#92A6C2" stroke-linecap="round" stroke-linejoin="round"/>
<path d="M40.8203 4.18994H55.0003" stroke="#92A6C2" stroke-linecap="round" stroke-linejoin="round"/>
<path d="M42.79 7.80981H45.53" stroke="#05D89C" stroke-linecap="round" stroke-linejoin="round"/>
<path d="M42.79 10.26H50.7" stroke="#05D89C" stroke-linecap="round" stroke-linejoin="round"/>
<path d="M42.79 12.71H46.75" stroke="#05D89C" stroke-linecap="round" stroke-linejoin="round"/>
<path d="M40.8203 20.53H55.0003" stroke="#92A6C2" stroke-linecap="round" stroke-linejoin="round"/>
<path d="M28 28.29V23.71" stroke="#92A6C2" stroke-linecap="round" stroke-linejoin="round"/>
<path d="M47.9102 29V23.71" stroke="#92A6C2" stroke-linecap="round" stroke-linejoin="round"/>
<path d="M41 41.1698H45.8C46.349 41.1698 46.8755 40.9517 47.2637 40.5635C47.6519 40.1753 47.87 39.6488 47.87 39.0998V31.5498" stroke="#92A6C2" stroke-linecap="round" stroke-linejoin="round"/>
<path d="M14.8395 41.17H9.83953C9.29053 41.17 8.76402 40.9519 8.37582 40.5637C7.98762 40.1755 7.76953 39.649 7.76953 39.1V23.71" stroke="#92A6C2" stroke-linecap="round" stroke-linejoin="round"/>
<path d="M40.25 38.9499L37.31 38.2299C37.1335 37.6702 36.9059 37.1279 36.63 36.6099L38 34.3299C38.0857 34.1858 38.1213 34.0175 38.1014 33.8512C38.0815 33.6848 38.0072 33.5296 37.89 33.4099L35.76 31.2899C35.644 31.1704 35.491 31.0935 35.3259 31.0717C35.1607 31.05 34.9931 31.0845 34.85 31.1699L32.56 32.5399C32.0601 32.2724 31.5382 32.0483 31 31.8699L30.28 28.9299C30.2397 28.7668 30.1459 28.6221 30.0135 28.5187C29.8812 28.4154 29.718 28.3594 29.55 28.3599H26.55C26.3821 28.3594 26.2189 28.4154 26.0865 28.5187C25.9542 28.6221 25.8603 28.7668 25.82 28.9299L25.1 31.8699C24.5077 32.0571 23.935 32.3016 23.39 32.5999L21 31.1699C20.8549 31.0855 20.686 31.0515 20.5196 31.0732C20.3532 31.0949 20.1986 31.1711 20.08 31.2899L17.96 33.4099C17.8397 33.5278 17.7632 33.6832 17.7432 33.8505C17.7232 34.0178 17.7609 34.1869 17.85 34.3299L19.31 36.7799C19.0767 37.2474 18.8794 37.7322 18.72 38.2299L15.78 38.9499C15.6179 38.9917 15.4741 39.086 15.371 39.218C15.2679 39.35 15.2113 39.5124 15.21 39.6799V42.6799C15.2078 42.8482 15.2631 43.0123 15.3667 43.1451C15.4703 43.2778 15.6161 43.3712 15.78 43.4099L18.72 44.1399C18.9017 44.7056 19.1326 45.2544 19.41 45.7799L18.07 47.9699C17.9834 48.1119 17.9472 48.2788 17.9672 48.4439C17.9871 48.609 18.0621 48.7626 18.18 48.8799L20.31 51.0099C20.4273 51.1278 20.5808 51.2028 20.7459 51.2227C20.911 51.2427 21.078 51.2064 21.22 51.1199L23.42 49.8099C23.9387 50.0917 24.4849 50.3195 25.05 50.4899L25.77 53.4299C25.8087 53.5938 25.9021 53.7396 26.0348 53.8432C26.1676 53.9468 26.3317 54.0021 26.5 53.9999H29.5C29.6684 54.0021 29.8325 53.9468 29.9652 53.8432C30.0979 53.7396 30.1914 53.5938 30.23 53.4299L31 50.4899C31.5771 50.3085 32.1361 50.0741 32.67 49.7899L34.85 51.1699C34.992 51.2564 35.159 51.2927 35.3241 51.2727C35.4892 51.2528 35.6428 51.1778 35.76 51.0599L37.89 48.9299C38.0204 48.8096 38.1032 48.6465 38.1233 48.4703C38.1435 48.2941 38.0998 48.1165 38 47.9699L36.65 45.7199C36.9158 45.2239 37.1367 44.7052 37.31 44.1699L40.25 43.4399C40.4139 43.4012 40.5597 43.3078 40.6633 43.1751C40.767 43.0423 40.8223 42.8782 40.82 42.7099V39.7099C40.8255 39.5373 40.772 39.368 40.6684 39.2298C40.5648 39.0917 40.4172 38.9929 40.25 38.9499V38.9499Z" stroke="#05D89C" stroke-linecap="round" stroke-linejoin="round"/>
<path d="M31.7597 44.8499C32.6578 43.9291 33.1859 42.7101 33.2433 41.4251C33.3008 40.1402 32.8836 38.8789 32.0712 37.8817C31.2588 36.8844 30.108 36.2208 28.8379 36.0172C27.5679 35.8137 26.2673 36.0843 25.1839 36.7777C24.1005 37.4711 23.31 38.5387 22.9629 39.7772C22.6158 41.0158 22.7364 42.3387 23.3017 43.4941C23.8671 44.6495 24.8376 45.5566 26.0285 46.0427C27.2194 46.5287 28.5474 46.5598 29.7597 46.1299" stroke="#05D89C" stroke-linecap="round" stroke-linejoin="round"/>
</svg>
