<svg width="150" height="98" viewBox="0 0 150 98" fill="none" xmlns="http://www.w3.org/2000/svg">
<g clip-path="url(#clip0)">
<path d="M138.806 98.1405H11.2229C5.04005 98.1405 0 93.1297 0 86.9176V11.0825C0 4.8703 5.04005 -0.140442 11.2229 -0.140442H138.777C144.989 -0.140442 150 4.89961 150 11.0825V86.9176C150.029 93.1297 144.989 98.1405 138.806 98.1405Z" fill="#FFE15A"/>
<path d="M11.2229 -0.140442C5.04005 -0.140442 0 4.8703 0 11.0825V86.9176C0 93.1297 5.04005 98.1405 11.2229 98.1405H49.9902V-0.140442H11.2229Z" fill="#464655"/>
<path d="M138.806 -0.140442H100.01V98.1405H138.777C144.989 98.1405 150 93.1004 150 86.9176V11.0825C150.029 4.8703 144.989 -0.140442 138.806 -0.140442Z" fill="#FF4B55"/>
</g>
<defs>
<clipPath id="clip0">
<rect width="150" height="98" fill="white"/>
</clipPath>
</defs>
</svg>
