<svg width="70" height="46" viewBox="0 0 70 46" fill="none" xmlns="http://www.w3.org/2000/svg">
<path d="M64.7575 45.931H5.24248C2.34705 45.931 0 43.5839 0 40.6885V5.31145C0 2.41616 2.34705 0.0689697 5.24248 0.0689697H64.7575C67.6528 0.0689697 70 2.41602 70 5.31145V40.6887C70 43.584 67.6529 45.931 64.7575 45.931Z" fill="#FF4B55"/>
<path d="M30.6902 24.7667C29.1688 24.7824 27.4604 24.2951 25.9635 22.6451C25.8602 22.5313 25.8746 22.3521 25.992 22.2527L25.9926 22.2523C26.1063 22.1559 26.2745 22.1708 26.375 22.2811C28.6568 24.7868 31.485 24.3482 33.1747 23.7427C32.5504 23.7704 31.7661 23.7235 31.2616 23.392C29.1541 22.0066 30.1086 20.5328 28.7089 18.7512C27.3181 16.981 26.0666 17.0243 24.0959 17.323C22.1449 17.6186 21.5234 16.1876 21.3299 15.3934C21.2953 15.2511 21.0968 15.2422 21.046 15.3793C18.6143 21.9492 25.926 30.0785 33.4328 24.2333C32.6919 24.5061 31.7379 24.756 30.6902 24.7667ZM25.2123 22.5372C25.1697 22.6545 25.0022 22.6499 24.966 22.5304L24.686 21.6077L23.7222 21.5739C23.5974 21.5695 23.5501 21.4089 23.6525 21.3375L24.4436 20.7861L24.1779 19.859C24.1435 19.7391 24.2817 19.6444 24.3812 19.7196L25.1501 20.3014L25.9497 19.7622C26.0532 19.6924 26.1859 19.7945 26.145 19.9125L25.8292 20.8236L26.5891 21.4173C26.6874 21.4943 26.6313 21.6521 26.5065 21.6496L25.5424 21.6308L25.2123 22.5372Z" fill="#F5F5F5"/>
<path d="M36.0757 20.4017C37.2838 19.4768 38.943 18.8422 41.1305 19.2646C41.2813 19.2937 41.3771 19.4458 41.3431 19.5956L41.3429 19.5962C41.3097 19.7416 41.1662 19.8305 41.0196 19.8023C37.6911 19.1656 35.6909 21.2129 34.702 22.7106C35.1849 22.314 35.8407 21.8811 36.4432 21.8441C38.9605 21.6886 39.0804 23.4407 41.2691 24.0268C43.4436 24.6091 44.4191 23.824 45.8172 22.4031C47.2011 20.9964 48.5568 21.7689 49.1877 22.2884C49.3007 22.3815 49.4649 22.2697 49.4233 22.1294C47.4291 15.4138 36.7027 13.2937 34.2012 22.473C34.6301 21.8109 35.2438 21.0387 36.0757 20.4017ZM41.7963 18.9007C41.7601 18.7812 41.8969 18.6844 41.9976 18.7582L42.7751 19.3286L43.5665 18.7776C43.6689 18.7063 43.8032 18.8065 43.7642 18.925L43.462 19.8407L44.2305 20.4232C44.33 20.4986 44.2761 20.6571 44.1514 20.6567L43.1871 20.6522L42.8706 21.5631C42.8296 21.6811 42.6621 21.6789 42.6241 21.5601L42.3305 20.6416L41.3663 20.6222C41.2415 20.6196 41.1917 20.4598 41.2932 20.3869L42.076 19.8238L41.7963 18.9007Z" fill="#F5F5F5"/>
<path d="M32.0465 21.0348C31.4532 19.6337 31.2536 17.8685 32.2099 15.8563C32.2758 15.7175 32.4471 15.6627 32.5836 15.7334L32.5841 15.7337C32.7166 15.8022 32.7666 15.9635 32.7031 16.0983C31.254 19.1619 32.736 21.6105 33.9387 22.9426C33.6754 22.3757 33.4206 21.6327 33.5351 21.0399C34.0143 18.5638 35.7405 18.8857 36.8555 16.9131C37.9633 14.9533 37.4471 13.8125 36.421 12.1035C35.4052 10.4118 36.4922 9.29243 37.1531 8.81146C37.2714 8.72532 37.2043 8.53843 37.0581 8.54362C30.0571 8.79478 25.3215 18.6499 33.5833 23.3678C33.0494 22.7869 32.4552 21.9996 32.0465 21.0348ZM32.024 15.1206C31.8992 15.1258 31.8398 14.9691 31.9365 14.8903L32.6832 14.2802L32.3477 13.3761C32.3043 13.2591 32.4348 13.1541 32.5398 13.2216L33.3508 13.7433L34.1069 13.1449C34.2048 13.0674 34.3449 13.1591 34.3131 13.28L34.0675 14.2124L34.8702 14.7466C34.9741 14.8157 34.9302 14.9773 34.8057 14.9845L33.8429 15.039L33.583 15.9676C33.5493 16.0878 33.382 16.096 33.3368 15.9796L32.9873 15.081L32.024 15.1206Z" fill="#F5F5F5"/>
<path d="M37.5011 24.2139C38.7587 25.0703 39.8824 26.4462 40.1682 28.6557C40.1881 28.8082 40.0736 28.947 39.9206 28.9616H39.9198C39.7714 28.9758 39.6419 28.8672 39.6225 28.7195C39.1815 25.3593 36.6096 24.1034 34.877 23.6349C35.4051 23.9689 36.022 24.4555 36.2466 25.0159C37.1848 27.3569 35.5593 28.0212 35.6902 30.2832C35.8202 32.5306 36.872 33.2101 38.6602 34.0911C40.4303 34.9633 40.1229 36.4927 39.8278 37.2552C39.775 37.3918 39.9327 37.5124 40.0527 37.4288C45.8023 33.4263 44.446 22.577 34.9456 23.085C35.7094 23.2842 36.6353 23.6241 37.5011 24.2139ZM40.7232 29.1735C40.8253 29.1016 40.96 29.2011 40.9216 29.3198L40.6242 30.237L41.3958 30.8155C41.4957 30.8903 41.4429 31.0493 41.3181 31.0494L40.3538 31.05L40.0422 31.9626C40.0019 32.0807 39.8342 32.0794 39.7957 31.9608L39.4971 31.0438L38.533 31.0295C38.408 31.0277 38.3575 30.8678 38.4584 30.7946L39.2383 30.2272L38.9539 29.3057C38.9171 29.1863 39.0533 29.0889 39.1543 29.1623L39.9349 29.7286L40.7232 29.1735Z" fill="#F5F5F5"/>
<path d="M34.3555 26.9405C33.9222 28.399 32.9536 29.8881 30.9357 30.8327C30.7967 30.8979 30.6296 30.8312 30.5692 30.69L30.5689 30.6894C30.5103 30.5523 30.5743 30.396 30.7091 30.3325C33.7757 28.8899 34.1895 26.0579 34.1084 24.2649C33.9511 24.8697 33.6752 25.6053 33.2098 25.9899C31.2652 27.5959 30.1377 26.2495 28.0228 27.0626C25.9214 27.8703 25.5943 29.079 25.2991 31.0505C25.0071 33.002 23.4563 33.1744 22.6405 33.1253C22.4945 33.1166 22.4273 33.3035 22.5434 33.3925C28.1057 37.6513 38.0279 33.0583 34.6531 24.163C34.6961 24.9508 34.6538 25.936 34.3555 26.9405ZM30.6113 31.5186C30.7108 31.5941 30.6571 31.7528 30.5323 31.7521L29.5681 31.7479L29.2521 32.659C29.2112 32.777 29.0436 32.7748 29.0056 32.656L28.7115 31.7375L27.7473 31.7184C27.6225 31.7159 27.5726 31.5561 27.674 31.4831L28.4566 30.9197L28.1769 29.9968C28.1407 29.8773 28.2774 29.7805 28.378 29.8544L29.1557 30.4245L29.947 29.8732C30.0494 29.8019 30.1837 29.9021 30.1447 30.0206L29.8428 30.9363L30.6113 31.5186Z" fill="#F5F5F5"/>
</svg>
