<?xml version="1.0" encoding="UTF-8"?>
<!DOCTYPE svg PUBLIC "-//W3C//DTD SVG 1.1//EN" "http://www.w3.org/Graphics/SVG/1.1/DTD/svg11.dtd">
<!-- Creator: CorelDRAW 2018 (64-Bit Оценочная версия) -->
<svg xmlns="http://www.w3.org/2000/svg" xml:space="preserve" width="174.769mm" height="49.6479mm" version="1.1" style="shape-rendering:geometricPrecision; text-rendering:geometricPrecision; image-rendering:optimizeQuality; fill-rule:evenodd; clip-rule:evenodd"
viewBox="0 0 1075.39 305.49"
 xmlns:xlink="http://www.w3.org/1999/xlink">
 <defs>
  <style type="text/css">
   <![CDATA[
    .str0 {stroke:#6CEF85;stroke-width:4.34;stroke-miterlimit:22.9256}
    .fil19 {fill:#151921}
    .fil1 {fill:#72778B}
    .fil6 {fill:#72778B}
    .fil5 {fill:#008EE6;fill-rule:nonzero}
    .fil2 {fill:#6CEF85;fill-rule:nonzero}
    .fil0 {fill:#72778B;fill-rule:nonzero}
    .fil18 {fill:#7495BB;fill-rule:nonzero}
    .fil12 {fill:#72778B;fill-opacity:0.188235}
    .fil7 {fill:#72778B;fill-opacity:0.231373}
    .fil20 {fill:#72778B;fill-opacity:0.250980}
    .fil9 {fill:#72778B;fill-opacity:0.258824}
    .fil3 {fill:#7495BB;fill-opacity:0.258824}
    .fil4 {fill:#6CEF85;fill-opacity:0.400000}
    .fil13 {fill:#72778B;fill-opacity:0.400000}
    .fil16 {fill:#72778B;fill-opacity:0.419608}
    .fil10 {fill:#72778B;fill-opacity:0.450980}
    .fil15 {fill:#72778B;fill-opacity:0.490196}
    .fil8 {fill:#72778B;fill-opacity:0.549020}
    .fil11 {fill:#72778B;fill-opacity:0.600000}
    .fil14 {fill:#72778B;fill-opacity:0.709804}
    .fil17 {fill:#72778B;fill-opacity:0.741176}
   ]]>
  </style>
 </defs>
 <g id="Слой_x0020_1">
  <metadata id="CorelCorpID_0Corel-Layer"/>
  <path class="fil0" d="M419.41 47.68l-217.56 0c-2.59,0 -4.94,1.06 -6.64,2.76 -1.7,1.7 -2.76,4.06 -2.76,6.64l0 42.97c0,2.58 1.06,4.94 2.76,6.64l0 0c1.7,1.7 4.06,2.76 6.64,2.76l217.56 0c2.58,0 4.94,-1.06 6.64,-2.76l0 0c1.7,-1.7 2.76,-4.06 2.76,-6.64l0 -42.97c0,-2.59 -1.06,-4.94 -2.76,-6.64 -1.7,-1.7 -4.06,-2.76 -6.64,-2.76zm-217.56 2.44l217.56 0c1.91,0 3.66,0.78 4.92,2.05 1.26,1.26 2.05,3 2.05,4.92l0 42.97c0,1.91 -0.78,3.66 -2.05,4.92 -1.26,1.26 -3,2.05 -4.92,2.05l-217.56 0c-1.91,0 -3.66,-0.78 -4.92,-2.05 -1.26,-1.26 -2.05,-3 -2.05,-4.92l0 -42.97c0,-1.91 0.78,-3.66 2.05,-4.92 1.26,-1.26 3,-2.05 4.92,-2.05z"/>
  <polygon class="fil1" points="406.69,68.76 403.07,68.76 403.07,91.32 406.69,91.32 "/>
  <polygon class="fil1" points="391.86,68.76 388.25,68.76 388.25,91.32 391.86,91.32 "/>
  <polygon class="fil1" points="377.96,68.76 374.34,68.76 374.34,91.32 377.96,91.32 "/>
  <polygon class="fil1" points="363.13,68.76 359.52,68.76 359.52,91.32 363.13,91.32 "/>
  <polygon class="fil1" points="349.23,68.76 345.61,68.76 345.61,91.32 349.23,91.32 "/>
  <polygon class="fil1" points="334.4,68.76 330.78,68.76 330.78,91.32 334.4,91.32 "/>
  <polygon class="fil1" points="320.5,68.76 316.88,68.76 316.88,91.32 320.5,91.32 "/>
  <polygon class="fil1" points="305.67,68.76 302.05,68.76 302.05,91.32 305.67,91.32 "/>
  <path class="fil2" d="M419.41 123.68l-217.56 0c-2.59,0 -4.94,1.06 -6.64,2.76 -1.7,1.7 -2.76,4.06 -2.76,6.64l0 42.97c0,2.58 1.06,4.94 2.76,6.64l0 0c1.7,1.7 4.06,2.76 6.64,2.76l217.56 0c2.58,0 4.94,-1.06 6.64,-2.76l0 0c1.7,-1.7 2.76,-4.06 2.76,-6.64l0 -42.97c0,-2.59 -1.06,-4.94 -2.76,-6.64 -1.7,-1.7 -4.06,-2.76 -6.64,-2.76zm-217.56 2.44l217.56 0c1.91,0 3.66,0.78 4.92,2.05 1.26,1.26 2.05,3 2.05,4.92l0 42.97c0,1.91 -0.78,3.66 -2.05,4.92 -1.26,1.26 -3,2.05 -4.92,2.05l-217.56 0c-1.91,0 -3.66,-0.78 -4.92,-2.05 -1.26,-1.26 -2.05,-3 -2.05,-4.92l0 -42.97c0,-1.91 0.78,-3.66 2.05,-4.92 1.26,-1.26 3,-2.05 4.92,-2.05z"/>
  <polygon class="fil1" points="406.69,144.76 403.07,144.76 403.07,167.32 406.69,167.32 "/>
  <polygon class="fil1" points="391.86,144.76 388.25,144.76 388.25,167.32 391.86,167.32 "/>
  <polygon class="fil1" points="377.96,144.76 374.34,144.76 374.34,167.32 377.96,167.32 "/>
  <polygon class="fil1" points="363.13,144.76 359.52,144.76 359.52,167.32 363.13,167.32 "/>
  <polygon class="fil1" points="349.23,144.76 345.61,144.76 345.61,167.32 349.23,167.32 "/>
  <polygon class="fil1" points="334.4,144.76 330.78,144.76 330.78,167.32 334.4,167.32 "/>
  <polygon class="fil1" points="320.5,144.76 316.88,144.76 316.88,167.32 320.5,167.32 "/>
  <polygon class="fil1" points="305.67,144.76 302.05,144.76 302.05,167.32 305.67,167.32 "/>
  <path class="fil0" d="M419.41 199.67l-217.56 0c-2.59,0 -4.94,1.06 -6.64,2.76 -1.7,1.7 -2.76,4.06 -2.76,6.64l0 42.97c0,2.59 1.06,4.94 2.76,6.64 1.7,1.7 4.06,2.76 6.64,2.76l217.56 0c2.58,0 4.94,-1.06 6.64,-2.76l0 0c1.7,-1.7 2.76,-4.06 2.76,-6.64l0 -42.97c0,-2.59 -1.06,-4.94 -2.76,-6.64 -1.7,-1.7 -4.06,-2.76 -6.64,-2.76zm-217.56 2.44l217.56 0c1.91,0 3.66,0.78 4.92,2.05 1.26,1.26 2.05,3 2.05,4.92l0 42.97c0,1.91 -0.78,3.66 -2.05,4.92 -1.26,1.26 -3,2.05 -4.92,2.05l-217.56 0c-1.91,0 -3.66,-0.78 -4.92,-2.05 -1.26,-1.26 -2.05,-3 -2.05,-4.92l0 -42.97c0,-1.91 0.78,-3.66 2.05,-4.92 1.26,-1.26 3,-2.05 4.92,-2.05z"/>
  <polygon class="fil1" points="406.69,220.75 403.07,220.75 403.07,243.31 406.69,243.31 "/>
  <polygon class="fil1" points="391.86,220.75 388.25,220.75 388.25,243.31 391.86,243.31 "/>
  <polygon class="fil1" points="377.96,220.75 374.34,220.75 374.34,243.31 377.96,243.31 "/>
  <polygon class="fil1" points="363.13,220.75 359.52,220.75 359.52,243.31 363.13,243.31 "/>
  <polygon class="fil1" points="349.23,220.75 345.61,220.75 345.61,243.31 349.23,243.31 "/>
  <polygon class="fil1" points="334.4,220.75 330.78,220.75 330.78,243.31 334.4,243.31 "/>
  <polygon class="fil1" points="320.5,220.75 316.88,220.75 316.88,243.31 320.5,243.31 "/>
  <polygon class="fil1" points="305.67,220.75 302.05,220.75 302.05,243.31 305.67,243.31 "/>
  <path class="fil3" d="M413.71 55.18l-206.24 0c-2.95,0 -5.36,2.41 -5.36,5.36l0 36.07c0,2.95 2.41,5.36 5.36,5.36l206.24 0c2.95,0 5.36,-2.41 5.36,-5.36l0 -36.07c0,-2.95 -2.41,-5.36 -5.36,-5.36z"/>
  <path class="fil4" d="M413.71 131.45l-206.24 0c-2.95,0 -5.36,2.41 -5.36,5.36l0 36.07c0,2.95 2.41,5.36 5.36,5.36l206.24 0c2.95,0 5.36,-2.41 5.36,-5.36l0 -36.07c0,-2.95 -2.41,-5.36 -5.36,-5.36z"/>
  <path class="fil3" d="M413.71 207.25l-206.24 0c-2.95,0 -5.36,2.41 -5.36,5.36l0 36.07c0,2.95 2.41,5.36 5.36,5.36l206.24 0c2.95,0 5.36,-2.41 5.36,-5.36l0 -36.07c0,-2.95 -2.41,-5.36 -5.36,-5.36z"/>
  <path class="fil5" d="M262.08 68.4c-3.08,0 -5.87,1.25 -7.89,3.27 -2.02,2.02 -3.27,4.81 -3.27,7.89 0,3.08 1.25,5.87 3.27,7.89 2.02,2.02 4.81,3.27 7.89,3.27 3.08,0 5.87,-1.25 7.89,-3.27 2.02,-2.02 3.27,-4.81 3.27,-7.89 0,-3.08 -1.25,-5.87 -3.27,-7.89 -2.02,-2.02 -4.81,-3.27 -7.89,-3.27zm-6.16 4.99c1.58,-1.58 3.75,-2.55 6.16,-2.55 2.41,0 4.58,0.98 6.16,2.55 1.58,1.58 2.55,3.75 2.55,6.16 0,2.41 -0.97,4.58 -2.55,6.16 -1.58,1.58 -3.75,2.55 -6.16,2.55 -2.41,0 -4.58,-0.97 -6.16,-2.55 -1.58,-1.58 -2.55,-3.75 -2.55,-6.16 0,-2.41 0.98,-4.58 2.55,-6.16z"/>
  <path class="fil5" d="M225.01 68.4c-3.08,0 -5.87,1.25 -7.89,3.27 -2.02,2.02 -3.27,4.81 -3.27,7.89 0,3.08 1.25,5.87 3.27,7.89 2.02,2.02 4.81,3.27 7.89,3.27 3.08,0 5.87,-1.25 7.89,-3.27 2.02,-2.02 3.27,-4.81 3.27,-7.89 0,-3.08 -1.25,-5.87 -3.27,-7.89 -2.02,-2.02 -4.81,-3.27 -7.89,-3.27zm-6.16 4.99c1.58,-1.58 3.75,-2.55 6.16,-2.55 2.41,0 4.58,0.97 6.16,2.55 1.58,1.58 2.55,3.75 2.55,6.16 0,2.41 -0.98,4.58 -2.55,6.16 -1.58,1.58 -3.75,2.55 -6.16,2.55 -2.41,0 -4.58,-0.98 -6.16,-2.55 -1.58,-1.58 -2.55,-3.75 -2.55,-6.16 0,-2.4 0.97,-4.58 2.55,-6.16z"/>
  <path class="fil2" d="M262.08 144.39c-3.08,0 -5.87,1.25 -7.89,3.27 -2.02,2.02 -3.27,4.81 -3.27,7.89 0,3.08 1.25,5.87 3.27,7.89 2.02,2.02 4.81,3.27 7.89,3.27 3.08,0 5.87,-1.25 7.89,-3.27 2.02,-2.02 3.27,-4.81 3.27,-7.89 0,-3.08 -1.25,-5.87 -3.27,-7.89 -2.02,-2.02 -4.81,-3.27 -7.89,-3.27zm-6.16 4.99c1.58,-1.58 3.75,-2.55 6.16,-2.55 2.41,0 4.58,0.98 6.16,2.55 1.58,1.58 2.55,3.75 2.55,6.16 0,2.41 -0.98,4.58 -2.55,6.16 -1.58,1.58 -3.75,2.55 -6.16,2.55 -2.41,0 -4.58,-0.98 -6.16,-2.55 -1.58,-1.58 -2.55,-3.75 -2.55,-6.16 0,-2.41 0.97,-4.58 2.55,-6.16z"/>
  <path class="fil2" d="M225.01 144.39c-3.08,0 -5.87,1.25 -7.89,3.27 -2.02,2.02 -3.27,4.81 -3.27,7.89 0,3.08 1.25,5.87 3.27,7.89 2.02,2.02 4.81,3.27 7.89,3.27 3.08,0 5.87,-1.25 7.89,-3.27 2.02,-2.02 3.27,-4.81 3.27,-7.89 0,-3.08 -1.25,-5.87 -3.27,-7.89 -2.02,-2.02 -4.81,-3.27 -7.89,-3.27zm-6.16 4.99c1.58,-1.58 3.75,-2.55 6.16,-2.55 2.41,0 4.58,0.97 6.16,2.55 1.58,1.58 2.55,3.75 2.55,6.16 0,2.41 -0.98,4.58 -2.55,6.16 -1.58,1.58 -3.75,2.55 -6.16,2.55 -2.4,0 -4.58,-0.98 -6.16,-2.55 -1.58,-1.58 -2.55,-3.75 -2.55,-6.16 0,-2.41 0.97,-4.58 2.55,-6.16z"/>
  <path class="fil5" d="M262.08 220.39c-3.08,0 -5.87,1.25 -7.89,3.27 -2.02,2.02 -3.27,4.81 -3.27,7.89 0,3.08 1.25,5.87 3.27,7.89 2.02,2.02 4.81,3.27 7.89,3.27 3.08,0 5.87,-1.25 7.89,-3.27 2.02,-2.02 3.27,-4.81 3.27,-7.89 0,-3.08 -1.25,-5.87 -3.27,-7.89 -2.02,-2.02 -4.81,-3.27 -7.89,-3.27zm-6.16 4.99c1.58,-1.58 3.75,-2.55 6.16,-2.55 2.41,0 4.58,0.98 6.16,2.55 1.58,1.58 2.55,3.75 2.55,6.16 0,2.41 -0.98,4.58 -2.55,6.16 -1.58,1.58 -3.75,2.55 -6.16,2.55 -2.41,0 -4.58,-0.98 -6.16,-2.55 -1.58,-1.58 -2.55,-3.75 -2.55,-6.16 0,-2.41 0.97,-4.58 2.55,-6.16z"/>
  <path class="fil5" d="M225.01 220.39c-3.08,0 -5.87,1.25 -7.89,3.27 -2.02,2.02 -3.27,4.81 -3.27,7.89 0,3.08 1.25,5.87 3.27,7.89 2.02,2.02 4.81,3.27 7.89,3.27 3.08,0 5.87,-1.25 7.89,-3.27 2.02,-2.02 3.27,-4.81 3.27,-7.89 0,-3.08 -1.25,-5.87 -3.27,-7.89 -2.02,-2.02 -4.81,-3.27 -7.89,-3.27zm-6.16 4.99c1.58,-1.58 3.75,-2.55 6.16,-2.55 2.41,0 4.58,0.97 6.16,2.55 1.58,1.58 2.55,3.75 2.55,6.16 0,2.41 -0.98,4.58 -2.55,6.16 -1.58,1.58 -3.75,2.55 -6.16,2.55 -2.41,0 -4.58,-0.98 -6.16,-2.55 -1.58,-1.58 -2.55,-3.75 -2.55,-6.16 0,-2.41 0.97,-4.58 2.55,-6.16z"/>
  <g id="_3076619125776">
   <rect class="fil6" x="35.94" y="194.02" width="33.18" height="33.18" rx="2.77" ry="2.77"/>
   <path class="fil7" d="M38.7 192.03l27.65 0c1.52,0 2.76,-1.24 2.76,-2.76l0 -27.65c0,-1.52 -1.24,-2.76 -2.76,-2.76l-27.65 0c-1.52,0 -2.76,1.24 -2.76,2.76l0 27.65c0,1.52 1.24,2.76 2.76,2.76z"/>
   <path class="fil8" d="M38.7 156.59l27.65 0c1.52,0 2.76,-1.24 2.76,-2.76l0 -27.65c0,-1.52 -1.24,-2.76 -2.76,-2.76l-27.65 0c-1.52,0 -2.76,1.24 -2.76,2.76l0 27.65c0,1.52 1.24,2.76 2.76,2.76z"/>
   <path class="fil9" d="M38.7 262.64l27.65 0c1.52,0 2.76,-1.24 2.76,-2.76l0 -27.65c0,-1.52 -1.24,-2.76 -2.76,-2.76l-27.65 0c-1.52,0 -2.76,1.24 -2.76,2.76l0 27.65c0,1.52 1.24,2.76 2.76,2.76z"/>
   <rect class="fil6" x="71.37" y="158.86" width="33.18" height="33.18" rx="2.77" ry="2.77"/>
   <path class="fil10" d="M74.14 194.02l27.65 0c1.52,0 2.76,1.24 2.76,2.76l0 27.65c0,1.52 -1.24,2.76 -2.76,2.76l-27.65 0c-1.52,0 -2.76,-1.24 -2.76,-2.76l0 -27.65c0,-1.52 1.24,-2.76 2.76,-2.76z"/>
   <path class="fil11" d="M74.14 229.46l27.65 0c1.52,0 2.76,1.24 2.76,2.76l0 27.65c0,1.52 -1.24,2.76 -2.76,2.76l-27.65 0c-1.52,0 -2.76,-1.24 -2.76,-2.76l0 -27.65c0,-1.52 1.24,-2.76 2.76,-2.76z"/>
   <path class="fil9" d="M74.14 123.42l27.65 0c1.52,0 2.76,1.24 2.76,2.76l0 27.65c0,1.52 -1.24,2.76 -2.76,2.76l-27.65 0c-1.52,0 -2.76,-1.24 -2.76,-2.76l0 -27.65c0,-1.52 1.24,-2.76 2.76,-2.76z"/>
   <path class="fil9" d="M74.14 87.98l27.65 0c1.52,0 2.76,1.24 2.76,2.76l0 27.65c0,1.52 -1.24,2.76 -2.76,2.76l-27.65 0c-1.52,0 -2.76,-1.24 -2.76,-2.76l0 -27.65c0,-1.52 1.24,-2.76 2.76,-2.76z"/>
   <path class="fil9" d="M2.76 194.1l27.65 0c1.52,0 2.76,1.24 2.76,2.76l0 27.65c0,1.52 -1.24,2.76 -2.76,2.76l-27.65 0c-1.52,0 -2.76,-1.24 -2.76,-2.76l0 -27.65c0,-1.52 1.24,-2.76 2.76,-2.76z"/>
   <rect class="fil6" x="106.81" y="194.44" width="33.18" height="33.18" rx="2.77" ry="2.77"/>
   <path class="fil12" d="M109.58 229.61l27.65 0c1.52,0 2.76,1.24 2.76,2.76l0 27.65c0,1.52 -1.24,2.76 -2.76,2.76l-27.65 0c-1.52,0 -2.76,-1.24 -2.76,-2.76l0 -27.65c0,-1.52 1.24,-2.76 2.76,-2.76z"/>
   <path class="fil13" d="M109.58 265.04l27.65 0c1.52,0 2.76,1.24 2.76,2.76l0 27.65c0,1.52 -1.24,2.76 -2.76,2.76l-27.65 0c-1.52,0 -2.76,-1.24 -2.76,-2.76l0 -27.65c0,-1.52 1.24,-2.76 2.76,-2.76z"/>
   <path class="fil9" d="M109.58 159l27.65 0c1.52,0 2.76,1.24 2.76,2.76l0 27.65c0,1.52 -1.24,2.76 -2.76,2.76l-27.65 0c-1.52,0 -2.76,-1.24 -2.76,-2.76l0 -27.65c0,-1.52 1.24,-2.76 2.76,-2.76z"/>
   <path class="fil14" d="M109.58 123.56l27.65 0c1.52,0 2.76,1.24 2.76,2.76l0 27.65c0,1.52 -1.24,2.76 -2.76,2.76l-27.65 0c-1.52,0 -2.76,-1.24 -2.76,-2.76l0 -27.65c0,-1.52 1.24,-2.76 2.76,-2.76z"/>
   <path class="fil15" d="M144.91 227.32l27.65 0c1.52,0 2.76,-1.24 2.76,-2.76l0 -27.65c0,-1.52 -1.24,-2.76 -2.76,-2.76l-27.65 0c-1.52,0 -2.76,1.24 -2.76,2.76l0 27.65c0,1.52 1.24,2.76 2.76,2.76z"/>
   <path class="fil16" d="M144.91 192.16l27.65 0c1.52,0 2.76,-1.24 2.76,-2.76l0 -27.65c0,-1.52 -1.24,-2.76 -2.76,-2.76l-27.65 0c-1.52,0 -2.76,1.24 -2.76,2.76l0 27.65c0,1.52 1.24,2.76 2.76,2.76z"/>
   <path class="fil9" d="M144.91 156.72l27.65 0c1.52,0 2.76,-1.24 2.76,-2.76l0 -27.65c0,-1.52 -1.24,-2.76 -2.76,-2.76l-27.65 0c-1.52,0 -2.76,1.24 -2.76,2.76l0 27.65c0,1.52 1.24,2.76 2.76,2.76z"/>
   <path class="fil17" d="M144.91 262.76l27.65 0c1.52,0 2.76,-1.24 2.76,-2.76l0 -27.65c0,-1.52 -1.24,-2.76 -2.76,-2.76l-27.65 0c-1.52,0 -2.76,1.24 -2.76,2.76l0 27.65c0,1.52 1.24,2.76 2.76,2.76z"/>
  </g>
  <path class="fil18" d="M647.33 2.68l-321.09 0c-7.34,0 -14.01,3 -18.84,7.84 -4.83,4.83 -7.84,11.51 -7.84,18.84l0 9.41 4.34 0 0 -9.41c0,-6.14 2.51,-11.72 6.56,-15.77 4.05,-4.05 9.63,-6.56 15.77,-6.56l321.09 0c6.14,0 11.72,2.51 15.77,6.56 4.05,4.05 6.56,9.63 6.56,15.77l0 249.46c0,6.14 -2.51,11.72 -6.56,15.77 -4.05,4.05 -9.63,6.56 -15.77,6.56l-321.09 0c-6.14,0 -11.72,-2.51 -15.77,-6.56 -4.05,-4.05 -6.56,-9.63 -6.56,-15.77l0 -8.33 -4.34 0 0 8.33c0,7.34 3,14.01 7.84,18.84 4.83,4.83 11.51,7.84 18.84,7.84l321.09 0c7.34,0 14.01,-3 18.84,-7.84 4.83,-4.83 7.84,-11.51 7.84,-18.84l0 -249.46c0,-7.34 -3,-14.01 -7.84,-18.84 -4.83,-4.83 -11.51,-7.84 -18.84,-7.84z"/>
  <g id="_3076480964688">
   <rect class="fil6" x="978.53" y="148.61" width="46.5" height="46.5" rx="3.88" ry="3.88"/>
   <path class="fil7" d="M1021.15 145.83l-38.75 0c-2.13,0 -3.87,-1.74 -3.87,-3.87l0 -38.75c0,-2.13 1.74,-3.87 3.87,-3.87l38.75 0c2.13,0 3.87,1.74 3.87,3.87l0 38.75c0,2.13 -1.74,3.87 -3.87,3.87z"/>
   <path class="fil8" d="M1021.15 96.16l-38.75 0c-2.13,0 -3.87,-1.74 -3.87,-3.87l0 -38.75c0,-2.13 1.74,-3.87 3.87,-3.87l38.75 0c2.13,0 3.87,1.74 3.87,3.87l0 38.75c0,2.13 -1.74,3.87 -3.87,3.87z"/>
   <path class="fil9" d="M1021.15 244.77l-38.75 0c-2.13,0 -3.87,-1.74 -3.87,-3.87l0 -38.75c0,-2.13 1.74,-3.87 3.87,-3.87l38.75 0c2.13,0 3.87,1.74 3.87,3.87l0 38.75c0,2.13 -1.74,3.87 -3.87,3.87z"/>
   <rect class="fil6" x="928.87" y="99.33" width="46.5" height="46.5" rx="3.88" ry="3.88"/>
   <path class="fil10" d="M971.49 148.61l-38.75 0c-2.13,0 -3.87,1.74 -3.87,3.87l0 38.75c0,2.13 1.74,3.87 3.87,3.87l38.75 0c2.13,0 3.87,-1.74 3.87,-3.87l0 -38.75c0,-2.13 -1.74,-3.87 -3.87,-3.87z"/>
   <path class="fil11" d="M971.49 198.28l-38.75 0c-2.13,0 -3.87,1.74 -3.87,3.87l0 38.75c0,2.13 1.74,3.87 3.87,3.87l38.75 0c2.13,0 3.87,-1.74 3.87,-3.87l0 -38.75c0,-2.13 -1.74,-3.87 -3.87,-3.87z"/>
   <path class="fil9" d="M971.49 49.66l-38.75 0c-2.13,0 -3.87,1.74 -3.87,3.87l0 38.75c0,2.13 1.74,3.87 3.87,3.87l38.75 0c2.13,0 3.87,-1.74 3.87,-3.87l0 -38.75c0,-2.13 -1.74,-3.87 -3.87,-3.87z"/>
   <path class="fil9" d="M971.49 0l-38.75 0c-2.13,0 -3.87,1.74 -3.87,3.87l0 38.75c0,2.13 1.74,3.87 3.87,3.87l38.75 0c2.13,0 3.87,-1.74 3.87,-3.87l0 -38.75c0,-2.13 -1.74,-3.87 -3.87,-3.87z"/>
   <path class="fil9" d="M1071.51 148.72l-38.75 0c-2.13,0 -3.87,1.74 -3.87,3.88l0 38.75c0,2.13 1.74,3.87 3.87,3.87l38.75 0c2.13,0 3.87,-1.74 3.87,-3.87l0 -38.75c0,-2.13 -1.74,-3.88 -3.87,-3.88z"/>
   <rect class="fil6" x="879.2" y="149.19" width="46.5" height="46.5" rx="3.88" ry="3.88"/>
   <path class="fil12" d="M921.83 198.48l-38.75 0c-2.13,0 -3.87,1.74 -3.87,3.87l0 38.75c0,2.13 1.74,3.87 3.87,3.87l38.75 0c2.13,0 3.87,-1.74 3.87,-3.87l0 -38.75c0,-2.13 -1.74,-3.87 -3.87,-3.87z"/>
   <path class="fil13" d="M921.83 248.14l-38.75 0c-2.13,0 -3.87,1.74 -3.87,3.87l0 38.75c0,2.13 1.74,3.87 3.87,3.87l38.75 0c2.13,0 3.87,-1.74 3.87,-3.87l0 -38.75c0,-2.13 -1.74,-3.87 -3.87,-3.87z"/>
   <path class="fil9" d="M921.83 99.53l-38.75 0c-2.13,0 -3.87,1.74 -3.87,3.87l0 38.75c0,2.13 1.74,3.87 3.87,3.87l38.75 0c2.13,0 3.87,-1.74 3.87,-3.87l0 -38.75c0,-2.13 -1.74,-3.87 -3.87,-3.87z"/>
   <path class="fil14" d="M921.83 49.87l-38.75 0c-2.13,0 -3.87,1.74 -3.87,3.87l0 38.75c0,2.13 1.74,3.87 3.87,3.87l38.75 0c2.13,0 3.87,-1.74 3.87,-3.87l0 -38.75c0,-2.13 -1.74,-3.87 -3.87,-3.87z"/>
   <path class="fil15" d="M872.32 195.28l-38.75 0c-2.13,0 -3.87,-1.74 -3.87,-3.87l0 -38.75c0,-2.13 1.74,-3.87 3.87,-3.87l38.75 0c2.13,0 3.87,1.74 3.87,3.87l0 38.75c0,2.13 -1.74,3.87 -3.87,3.87z"/>
   <path class="fil16" d="M872.32 146l-38.75 0c-2.13,0 -3.87,-1.74 -3.87,-3.87l0 -38.75c0,-2.13 1.74,-3.87 3.87,-3.87l38.75 0c2.13,0 3.87,1.74 3.87,3.87l0 38.75c0,2.13 -1.74,3.87 -3.87,3.87z"/>
   <path class="fil9" d="M872.32 96.33l-38.75 0c-2.13,0 -3.87,-1.74 -3.87,-3.87l0 -38.75c0,-2.13 1.74,-3.87 3.87,-3.87l38.75 0c2.13,0 3.87,1.74 3.87,3.87l0 38.75c0,2.13 -1.74,3.87 -3.87,3.87z"/>
   <path class="fil17" d="M872.32 244.94l-38.75 0c-2.13,0 -3.87,-1.74 -3.87,-3.87l0 -38.75c0,-2.13 1.74,-3.88 3.87,-3.88l38.75 0c2.13,0 3.87,1.74 3.87,3.88l0 38.75c0,2.13 -1.74,3.87 -3.87,3.87z"/>
  </g>
  <path class="fil19 str0" d="M793.15 110.05c-1.46,-51.95 -44.03,-93.66 -96.36,-93.66 -49.4,0 -90.14,37.19 -95.78,85.07 -8.37,-5.24 -18.28,-8.31 -28.93,-8.31 -30.11,0 -54.52,24.41 -54.52,54.52 0,2.28 0.43,0 -9.35,0 -32.38,0 -58.6,26.24 -58.6,58.55 0,29.46 21.77,53.85 50.11,57.97 2.21,0.39 4.5,0.62 6.84,0.62l276.4 0c0.95,0 1.27,-0.12 1.33,-0.2 1.21,0.06 2.4,0.2 3.67,0.2 42.8,0 77.51,-34.73 77.51,-77.53 -0.01,-41.06 -31.93,-74.55 -72.31,-77.23z"/>
  <path class="fil20" d="M779.45 140.16c-1.3,-41.82 -39.14,-75.4 -85.66,-75.4 -43.91,0 -80.13,29.94 -85.15,68.48 -7.44,-4.22 -16.25,-6.69 -25.72,-6.69 -26.77,0 -48.47,19.65 -48.47,43.89 0,1.84 0.39,0 -8.32,0 -28.78,0 -52.09,21.13 -52.09,47.13 0,23.72 19.35,43.35 44.54,46.67 1.96,0.31 4,0.5 6.08,0.5l245.72 0c0.85,0 1.13,-0.09 1.18,-0.16 1.08,0.05 2.13,0.16 3.26,0.16 38.05,0 68.9,-27.96 68.9,-62.42 -0.01,-33.05 -28.39,-60.01 -64.28,-62.17z"/>
 </g>
</svg>
