<svg width="37" height="36" viewBox="0 0 37 36" fill="none" xmlns="http://www.w3.org/2000/svg">
<g clip-path="url(#clip0_6088:23520)">
<path d="M27.2488 4.86004C25.6869 3.53934 23.8802 2.53932 21.9317 1.91711C19.9833 1.2949 17.9314 1.06269 15.8931 1.23375C13.8549 1.4048 11.8704 1.97578 10.0529 2.91405C8.23544 3.85232 6.62064 5.13949 5.30078 6.70204" stroke="white" stroke-linecap="round" stroke-linejoin="round"/>
<path d="M32.7141 15.5401C32.668 14.9093 32.5819 14.282 32.4561 13.6621" stroke="white" stroke-linecap="round" stroke-linejoin="round"/>
<path d="M4.29199 25.4761C5.47953 27.2353 7.01474 28.7328 8.80302 29.8761C10.5913 31.0195 12.5948 31.7845 14.69 32.1241" stroke="white" stroke-linecap="round" stroke-linejoin="round"/>
<path d="M1.75391 18.8281C1.91839 20.0831 2.23886 21.3126 2.70791 22.4881" stroke="white" stroke-linecap="round" stroke-linejoin="round"/>
<path d="M9.03821 24.228H11.1922C11.281 24.2273 11.3695 24.2172 11.4562 24.198H11.5462L11.7022 24.15L11.7982 24.102C11.8441 24.0816 11.8882 24.0575 11.9302 24.03L12.0202 23.964L12.0982 23.904C12.2433 23.7753 12.3594 23.6173 12.4391 23.4405C12.5187 23.2636 12.56 23.0719 12.5602 22.878C12.5615 22.6982 12.5266 22.5201 12.4576 22.3541C12.3885 22.1881 12.2867 22.0378 12.1582 21.912C11.9022 21.6553 11.5548 21.5107 11.1922 21.51H9.03821C8.68474 21.5177 8.34797 21.662 8.09853 21.9125C7.84908 22.1631 7.70633 22.5005 7.70021 22.854C7.69925 23.0369 7.7339 23.2183 7.80221 23.388C7.87312 23.5505 7.97271 23.6988 8.09621 23.826L8.30021 24C8.52813 24.1508 8.79495 24.2321 9.06821 24.234" stroke="white" stroke-linecap="round" stroke-linejoin="round"/>
<path d="M25.4239 13.6741H23.5879C23.1792 13.6491 22.7955 13.4691 22.5149 13.1709C22.2343 12.8726 22.0781 12.4786 22.0781 12.0691C22.0781 11.6596 22.2343 11.2656 22.5149 10.9673C22.7955 10.6691 23.1792 10.4891 23.5879 10.4641H25.3459C25.4961 10.4657 25.6451 10.4373 25.7841 10.3806C25.9231 10.3239 26.0494 10.24 26.1556 10.1338C26.2618 10.0276 26.3457 9.9013 26.4024 9.76226C26.4592 9.62322 26.4876 9.47426 26.4859 9.32411C26.4859 9.02176 26.3658 8.7318 26.152 8.51801C25.9383 8.30421 25.6483 8.18411 25.3459 8.18411H24.7759C24.3563 8.15877 23.9622 7.97421 23.674 7.66812C23.3859 7.36204 23.2254 6.9575 23.2254 6.53711C23.2254 6.11672 23.3859 5.71218 23.674 5.40609C23.9622 5.1 24.3563 4.91545 24.7759 4.89011L27.2479 4.86011C29.9263 7.12337 31.7615 10.225 32.4559 13.6621" stroke="white" stroke-linecap="round" stroke-linejoin="round"/>
<path d="M32.4565 13.6621H28.7305" stroke="white" stroke-linecap="round" stroke-linejoin="round"/>
<path d="M8.22223 6.70215H5.30023C2.91624 9.5075 1.6101 13.0707 1.61623 16.7521C1.61658 17.4464 1.66268 18.1399 1.75423 18.8281H3.67423C3.98361 18.8274 4.28979 18.7655 4.57524 18.6462C4.86069 18.5269 5.1198 18.3525 5.33772 18.1329C5.55565 17.9133 5.72811 17.6529 5.84522 17.3665C5.96234 17.0802 6.02181 16.7735 6.02023 16.4641H17.0842C17.4832 16.4626 17.8653 16.3034 18.1474 16.0213C18.4295 15.7392 18.5887 15.3571 18.5902 14.9581C18.5902 14.5587 18.4316 14.1757 18.1491 13.8932C17.8667 13.6108 17.4836 13.4521 17.0842 13.4521H13.7002C13.5155 13.4697 13.3291 13.4485 13.1531 13.3899C12.977 13.3313 12.8151 13.2365 12.6778 13.1117C12.5405 12.9868 12.4308 12.8347 12.3558 12.6649C12.2807 12.4952 12.2419 12.3117 12.2419 12.1261C12.2419 11.9406 12.2807 11.7571 12.3558 11.5873C12.4308 11.4176 12.5405 11.2655 12.6778 11.1406C12.8151 11.0158 12.977 10.921 13.1531 10.8624C13.3291 10.8038 13.5155 10.7826 13.7002 10.8001H14.8342C15.1118 10.8152 15.3896 10.7735 15.6506 10.6776C15.9115 10.5818 16.1502 10.4337 16.352 10.2425C16.5539 10.0513 16.7146 9.82103 16.8245 9.56564C16.9343 9.31025 16.991 9.03516 16.991 8.75715C16.991 8.47914 16.9343 8.20404 16.8245 7.94866C16.7146 7.69327 16.5539 7.46295 16.352 7.27177C16.1502 7.08058 15.9115 6.93253 15.6506 6.83665C15.3896 6.74078 15.1118 6.6991 14.8342 6.71415H11.0422" stroke="white" stroke-linecap="round" stroke-linejoin="round"/>
<path d="M34.4125 18.936H18.3745C17.6488 18.936 17.0605 19.5243 17.0605 20.25V21.804C17.0605 22.5297 17.6488 23.118 18.3745 23.118H34.4125C35.1383 23.118 35.7265 22.5297 35.7265 21.804V20.25C35.7265 19.5243 35.1383 18.936 34.4125 18.936Z" stroke="#40E095" stroke-linecap="round" stroke-linejoin="round"/>
<path d="M34.4125 23.1182H18.3745C17.6488 23.1182 17.0605 23.7065 17.0605 24.4322V25.9862C17.0605 26.7119 17.6488 27.3002 18.3745 27.3002H34.4125C35.1383 27.3002 35.7265 26.7119 35.7265 25.9862V24.4322C35.7265 23.7065 35.1383 23.1182 34.4125 23.1182Z" stroke="#40E095" stroke-linecap="round" stroke-linejoin="round"/>
<path d="M26.3906 31.4761V33.1681" stroke="#40E095" stroke-linecap="round" stroke-linejoin="round"/>
<path d="M26.391 35.406C26.9974 35.406 27.489 34.9144 27.489 34.308C27.489 33.7016 26.9974 33.21 26.391 33.21C25.7846 33.21 25.293 33.7016 25.293 34.308C25.293 34.9144 25.7846 35.406 26.391 35.406Z" stroke="#40E095" stroke-linecap="round" stroke-linejoin="round"/>
<path d="M19.1905 21.942C19.6975 21.942 20.1085 21.531 20.1085 21.024C20.1085 20.517 19.6975 20.106 19.1905 20.106C18.6835 20.106 18.2725 20.517 18.2725 21.024C18.2725 21.531 18.6835 21.942 19.1905 21.942Z" stroke="#40E095" stroke-linecap="round" stroke-linejoin="round"/>
<path d="M19.1905 26.1241C19.6975 26.1241 20.1085 25.7131 20.1085 25.2061C20.1085 24.6991 19.6975 24.2881 19.1905 24.2881C18.6835 24.2881 18.2725 24.6991 18.2725 25.2061C18.2725 25.7131 18.6835 26.1241 19.1905 26.1241Z" stroke="#40E095" stroke-linecap="round" stroke-linejoin="round"/>
<path d="M19.1905 30.306C19.6975 30.306 20.1085 29.895 20.1085 29.388C20.1085 28.881 19.6975 28.47 19.1905 28.47C18.6835 28.47 18.2725 28.881 18.2725 29.388C18.2725 29.895 18.6835 30.306 19.1905 30.306Z" stroke="#40E095" stroke-linecap="round" stroke-linejoin="round"/>
<path d="M25.2925 34.3081H17.0605" stroke="#40E095" stroke-linecap="round" stroke-linejoin="round"/>
<path d="M27.4883 34.3081H35.7263" stroke="#40E095" stroke-linecap="round" stroke-linejoin="round"/>
<path d="M34.4125 27.2939H18.3745C17.6488 27.2939 17.0605 27.8822 17.0605 28.6079V30.1619C17.0605 30.8876 17.6488 31.4759 18.3745 31.4759H34.4125C35.1383 31.4759 35.7265 30.8876 35.7265 30.1619V28.6079C35.7265 27.8822 35.1383 27.2939 34.4125 27.2939Z" stroke="#40E095" stroke-linecap="round" stroke-linejoin="round"/>
<path d="M32.5166 20.106V21.942" stroke="#40E095" stroke-linecap="round" stroke-linejoin="round"/>
<path d="M33.7764 20.106V21.942" stroke="#40E095" stroke-linecap="round" stroke-linejoin="round"/>
<path d="M31.2568 20.106V21.942" stroke="#40E095" stroke-linecap="round" stroke-linejoin="round"/>
<path d="M29.9971 20.106V21.942" stroke="#40E095" stroke-linecap="round" stroke-linejoin="round"/>
<path d="M28.7305 20.106V21.942" stroke="#40E095" stroke-linecap="round" stroke-linejoin="round"/>
<path d="M32.5166 24.2041V26.0401" stroke="#40E095" stroke-linecap="round" stroke-linejoin="round"/>
<path d="M33.7764 24.2041V26.0401" stroke="#40E095" stroke-linecap="round" stroke-linejoin="round"/>
<path d="M31.2568 24.2041V26.0401" stroke="#40E095" stroke-linecap="round" stroke-linejoin="round"/>
<path d="M29.9971 24.2041V26.0401" stroke="#40E095" stroke-linecap="round" stroke-linejoin="round"/>
<path d="M28.7305 24.2041V26.0401" stroke="#40E095" stroke-linecap="round" stroke-linejoin="round"/>
<path d="M32.5166 28.47V30.306" stroke="#40E095" stroke-linecap="round" stroke-linejoin="round"/>
<path d="M33.7764 28.47V30.306" stroke="#40E095" stroke-linecap="round" stroke-linejoin="round"/>
<path d="M31.2568 28.47V30.306" stroke="#40E095" stroke-linecap="round" stroke-linejoin="round"/>
<path d="M29.9971 28.47V30.306" stroke="#40E095" stroke-linecap="round" stroke-linejoin="round"/>
<path d="M28.7305 28.47V30.306" stroke="#40E095" stroke-linecap="round" stroke-linejoin="round"/>
</g>
<defs>
<clipPath id="clip0_6088:23520">
<rect width="36" height="36" fill="white" transform="translate(0.5)"/>
</clipPath>
</defs>
</svg>
