<svg width="37" height="36" viewBox="0 0 37 36" fill="none" xmlns="http://www.w3.org/2000/svg">
<path d="M10.922 13.0021C10.7914 13.4599 10.7686 13.9418 10.8553 14.4099C10.942 14.878 11.1359 15.3197 11.4219 15.7004C11.7078 16.081 12.078 16.3903 12.5034 16.604C12.9288 16.8177 13.3979 16.93 13.874 16.9321V16.9321C14.5347 16.9352 15.1787 16.7247 15.71 16.3321C15.8328 16.2425 15.9491 16.1442 16.058 16.0381C16.615 15.4811 16.9382 14.7325 16.9616 13.9451C16.985 13.1578 16.7069 12.3912 16.184 11.8021L16.1 11.7001C16.0651 11.6592 16.027 11.6211 15.986 11.5861C15.4862 11.1276 14.8494 10.8463 14.1739 10.7856C13.4983 10.7249 12.8216 10.8881 12.248 11.2501" stroke="white" stroke-linecap="round" stroke-linejoin="round"/>
<path d="M14.4495 1.63798C14.3125 1.52565 14.1408 1.46417 13.9635 1.46398V1.46398C13.8622 1.4622 13.7616 1.48095 13.6678 1.5191C13.574 1.55726 13.4888 1.61402 13.4175 1.68598C11.9957 3.21131 10.7701 4.90848 9.76953 6.73798H13.9335L18.0915 6.76798C17.1097 4.92583 15.9003 3.21441 14.4915 1.67398L14.4495 1.63798Z" stroke="white" stroke-linecap="round" stroke-linejoin="round"/>
<path d="M13.3999 26.4359H16.8319L16.1599 27.7799C16.0734 27.9487 15.9418 28.0901 15.7798 28.1886C15.6177 28.2872 15.4315 28.3388 15.2419 28.3379H12.3259C12.1337 28.3334 11.9467 28.2748 11.7864 28.1686C11.6261 28.0624 11.499 27.9131 11.4199 27.7379L10.7539 26.3999H12.0679" stroke="white" stroke-linecap="round" stroke-linejoin="round"/>
<path d="M13.5078 26.436H16.8318C16.8318 26.436 16.8318 26.472 16.8678 26.436C17.6012 25.3321 18.2472 24.1726 18.7998 22.968C18.9618 22.62 19.1118 22.266 19.2558 21.906" stroke="white" stroke-linecap="round" stroke-linejoin="round"/>
<path d="M18.0925 6.79196L13.9345 6.76196H9.77649C8.20039 9.47119 7.32977 12.5328 7.24449 15.666C7.2404 16.2773 7.27246 16.8884 7.34049 17.496C7.58612 19.3738 8.11197 21.2041 8.90049 22.926C9.42482 24.1327 10.0469 25.2946 10.7605 26.4V26.4H11.6845" stroke="white" stroke-linecap="round" stroke-linejoin="round"/>
<path d="M19.3276 21.7319C19.1656 22.1579 18.9916 22.5779 18.7996 22.9859C18.6076 23.3939 18.5056 23.5859 18.3496 23.9159L22.0996 27.2639C22.2409 27.3968 22.4276 27.4708 22.6216 27.4708C22.8156 27.4708 23.0023 27.3968 23.1436 27.2639C23.2383 27.1739 23.3068 27.0599 23.3416 26.9339C23.6649 25.6669 23.7624 24.3528 23.6296 23.0519C23.588 22.6483 23.5219 22.2476 23.4316 21.8519" stroke="white" stroke-linecap="round" stroke-linejoin="round"/>
<path d="M3.96805 24.096C3.96171 25.003 4.06445 25.9075 4.27405 26.79C4.30817 26.9025 4.36539 27.0068 4.44205 27.096C4.57673 27.2455 4.76471 27.3362 4.96556 27.3485C5.16641 27.3608 5.36408 27.2939 5.51605 27.162L9.30205 23.862C9.15205 23.55 9.00805 23.262 8.87005 22.926C8.08956 21.1949 7.5738 19.3564 7.34005 17.472C7.34005 17.322 7.34005 17.172 7.30405 17.022C6.03383 17.9631 5.07125 19.2597 4.53805 20.748" stroke="white" stroke-linecap="round" stroke-linejoin="round"/>
<path d="M4.53777 20.748C4.28772 21.446 4.12057 22.171 4.03977 22.908C3.99577 23.308 3.97177 23.708 3.96777 24.108" stroke="white" stroke-linecap="round" stroke-linejoin="round"/>
<path d="M25.8382 3.87611C24.5485 4.04529 23.3236 4.54153 22.2798 5.31767C21.236 6.0938 20.408 7.12402 19.8747 8.31038C19.3413 9.49674 19.1203 10.7998 19.2326 12.0957C19.3449 13.3916 19.7868 14.6372 20.5162 15.7141L19.4482 18.9061C19.4398 18.9347 19.4391 18.965 19.4462 18.9939C19.4534 19.0228 19.4681 19.0494 19.4889 19.0707C19.5096 19.0921 19.5357 19.1076 19.5644 19.1155C19.5931 19.1235 19.6234 19.1237 19.6522 19.1161L23.0602 18.0661C24.1117 18.6642 25.2904 19.0035 26.499 19.0561C27.7075 19.1087 28.9112 18.873 30.0107 18.3685C31.1101 17.8641 32.0738 17.1053 32.8222 16.1548C33.5705 15.2044 34.082 14.0896 34.3144 12.9024C34.5468 11.7153 34.4935 10.4899 34.1588 9.32742C33.8241 8.16496 33.2177 7.09879 32.3896 6.21697C31.5615 5.33514 30.5355 4.66296 29.3964 4.25593C28.2573 3.84891 27.0376 3.71871 25.8382 3.87611V3.87611Z" stroke="#40E095" stroke-linecap="round" stroke-linejoin="round"/>
<path d="M22.4961 9.28809H29.1081" stroke="white" stroke-width="1.5" stroke-miterlimit="10" stroke-linecap="round"/>
<path d="M22.4961 11.688H27.3921" stroke="white" stroke-width="1.5" stroke-miterlimit="10" stroke-linecap="round"/>
<path d="M29.1084 11.688H31.5564" stroke="white" stroke-width="1.5" stroke-miterlimit="10" stroke-linecap="round"/>
<path d="M22.4961 14.0879H25.4481" stroke="white" stroke-width="1.5" stroke-miterlimit="10" stroke-linecap="round"/>
<path d="M13.9346 30.792V34.962" stroke="white" stroke-width="1.5" stroke-linecap="round" stroke-linejoin="round"/>
<path d="M10.9346 29.592V32.718" stroke="white" stroke-width="1.5" stroke-linecap="round" stroke-linejoin="round"/>
<path d="M7.93457 27.624V30.618" stroke="white" stroke-width="1.5" stroke-linecap="round" stroke-linejoin="round"/>
<path d="M16.9346 29.592V32.718" stroke="white" stroke-width="1.5" stroke-linecap="round" stroke-linejoin="round"/>
<path d="M19.9346 27.1921V30.1861" stroke="white" stroke-width="1.5" stroke-linecap="round" stroke-linejoin="round"/>
</svg>
