<svg width="37" height="36" viewBox="0 0 37 36" fill="none" xmlns="http://www.w3.org/2000/svg">
<path d="M6.03829 30.2281V30.8821C6.00541 31.0556 6.0112 31.2341 6.05524 31.4051C6.09929 31.576 6.18051 31.7351 6.29311 31.8711C6.40571 32.007 6.54691 32.1165 6.70666 32.1916C6.86641 32.2667 7.04076 32.3057 7.21729 32.3057C7.39381 32.3057 7.56817 32.2667 7.72791 32.1916C7.88766 32.1165 8.02887 32.007 8.14147 31.8711C8.25407 31.7351 8.33528 31.576 8.37933 31.4051C8.42338 31.2341 8.42917 31.0556 8.39629 30.8821V21.6001C8.39629 21.2819 8.26986 20.9767 8.04481 20.7516C7.81977 20.5266 7.51455 20.4001 7.19629 20.4001H5.22829C4.95017 20.4489 4.69814 20.5941 4.51653 20.8103C4.33491 21.0265 4.23535 21.2998 4.23535 21.5821C4.23535 21.8645 4.33491 22.1378 4.51653 22.354C4.69814 22.5702 4.95017 22.7154 5.22829 22.7641H6.03829V28.2661" stroke="#40E095" stroke-linecap="round" stroke-linejoin="round"/>
<path d="M12.7937 24.0841C12.7667 23.8712 12.7854 23.655 12.8484 23.4499C12.9114 23.2447 13.0174 23.0553 13.1593 22.8943C13.3012 22.7333 13.4757 22.6044 13.6713 22.516C13.8669 22.4277 14.0791 22.382 14.2937 22.382C14.5083 22.382 14.7204 22.4277 14.916 22.516C15.1116 22.6044 15.2862 22.7333 15.4281 22.8943C15.57 23.0553 15.6759 23.2447 15.739 23.4499C15.802 23.655 15.8207 23.8712 15.7937 24.0841V28.3861C15.7474 28.7513 15.5695 29.087 15.2934 29.3304C15.0172 29.5737 14.6618 29.708 14.2937 29.708C13.9256 29.708 13.5702 29.5737 13.294 29.3304C13.0179 29.087 12.84 28.7513 12.7937 28.3861V25.9321M14.2997 20.2141C13.2738 20.2157 12.2904 20.6239 11.5649 21.3494C10.8395 22.0748 10.4313 23.0582 10.4297 24.0841V28.3861C10.4691 29.3869 10.8944 30.3336 11.6164 31.0278C12.3384 31.7219 13.3011 32.1096 14.3027 32.1096C15.3043 32.1096 16.267 31.7219 16.989 31.0278C17.711 30.3336 18.1363 29.3869 18.1757 28.3861V24.0841C18.1741 23.0572 17.765 22.0728 17.0383 21.3472C16.3116 20.6216 15.3266 20.2141 14.2997 20.2141V20.2141Z" stroke="#40E095" stroke-linecap="round" stroke-linejoin="round"/>
<path d="M27.2186 29.5081C27.3273 29.1441 27.3819 28.766 27.3806 28.3861V24.0841C27.3806 23.5759 27.2805 23.0727 27.086 22.6031C26.8916 22.1336 26.6065 21.707 26.2471 21.3476C25.8878 20.9882 25.4611 20.7032 24.9916 20.5087C24.5221 20.3142 24.0188 20.2141 23.5106 20.2141V20.2141C23.0024 20.2141 22.4992 20.3142 22.0296 20.5087C21.5601 20.7032 21.1335 20.9882 20.7741 21.3476C20.4148 21.707 20.1297 22.1336 19.9352 22.6031C19.7407 23.0727 19.6406 23.5759 19.6406 24.0841V28.3861C19.6407 29.1244 19.8519 29.8472 20.2494 30.4693C20.6469 31.0914 21.214 31.5868 21.8838 31.8971C22.5537 32.2075 23.2983 32.3197 24.0299 32.2207C24.7614 32.1216 25.4494 31.8154 26.0126 31.3381L27.2186 29.5081ZM26.0126 31.3381C26.1989 31.1808 26.3697 31.006 26.5226 30.8161L26.0126 31.3381ZM25.0226 28.4161C24.9763 28.7813 24.7984 29.117 24.5223 29.3604C24.2461 29.6037 23.8907 29.738 23.5226 29.738C23.1545 29.738 22.7991 29.6037 22.523 29.3604C22.2468 29.117 22.0689 28.7813 22.0226 28.4161V24.0841C21.9956 23.8712 22.0143 23.655 22.0773 23.4499C22.1404 23.2447 22.2464 23.0553 22.3883 22.8943C22.5301 22.7333 22.7047 22.6044 22.9003 22.516C23.0959 22.4277 23.308 22.382 23.5226 22.382C23.7372 22.382 23.9494 22.4277 24.145 22.516C24.3406 22.6044 24.5151 22.7333 24.657 22.8943C24.7989 23.0553 24.9049 23.2447 24.9679 23.4499C25.031 23.655 25.0496 23.8712 25.0226 24.0841V28.4161Z" stroke="#40E095" stroke-linecap="round" stroke-linejoin="round"/>
<path d="M28.5323 30.8581H33.9323C34.2637 30.8158 34.5684 30.6542 34.7892 30.4035C35.0101 30.1528 35.1321 29.8302 35.1323 29.4961V3.1861C35.1339 3.00364 35.0991 2.82269 35.0301 2.65381C34.961 2.48493 34.8589 2.33151 34.7299 2.20248C34.6009 2.07346 34.4475 1.97143 34.2786 1.90234C34.1097 1.83326 33.9288 1.7985 33.7463 1.8001H16.9043" stroke="white" stroke-linecap="round" stroke-linejoin="round"/>
<path d="M24.4999 18.3362V6.75618C24.4859 6.39275 24.3283 6.04973 24.0617 5.80229C23.7952 5.55486 23.4414 5.4232 23.0779 5.43618H18.1699" stroke="white" stroke-linecap="round" stroke-linejoin="round"/>
<path d="M8.22188 5.43616H3.30788C3.12741 5.42893 2.94729 5.45735 2.77781 5.51979C2.60834 5.58224 2.45283 5.67749 2.3202 5.80009C2.18757 5.92269 2.08041 6.07024 2.00486 6.23429C1.92931 6.39834 1.88684 6.57568 1.87988 6.75616V32.9642C1.89395 33.3292 2.05216 33.6737 2.31984 33.9223C2.58752 34.1708 2.94283 34.3031 3.30788 34.2902H23.1079" stroke="white" stroke-linecap="round" stroke-linejoin="round"/>
<path d="M15.4995 4.09212C15.4995 3.48901 15.2599 2.91061 14.8334 2.48415C14.407 2.0577 13.8286 1.81812 13.2255 1.81812C12.6224 1.81812 12.044 2.0577 11.6175 2.48415C11.191 2.91061 10.9515 3.48901 10.9515 4.09212H9.03147C8.91849 4.09212 8.81013 4.137 8.73024 4.21689C8.65035 4.29678 8.60547 4.40513 8.60547 4.51812V6.66012C8.60547 6.80811 8.66426 6.95004 8.7689 7.05468C8.87355 7.15933 9.01548 7.21811 9.16347 7.21811H17.2515C17.4 7.21812 17.5426 7.15953 17.6482 7.05505C17.7538 6.95057 17.8139 6.80866 17.8155 6.66012V4.53611C17.8155 4.41836 17.7687 4.30543 17.6854 4.22216C17.6022 4.13889 17.4892 4.09212 17.3715 4.09212H15.4995Z" stroke="white" stroke-linecap="round" stroke-linejoin="round"/>
<path d="M13.1963 10.896H17.9543" stroke="white" stroke-linecap="round" stroke-linejoin="round"/>
<path d="M13.1963 12.7019H21.3383" stroke="white" stroke-linecap="round" stroke-linejoin="round"/>
<path d="M13.1963 14.5139H15.5783" stroke="white" stroke-linecap="round" stroke-linejoin="round"/>
<path d="M17.5283 14.5139H21.3383" stroke="white" stroke-linecap="round" stroke-linejoin="round"/>
<path d="M24.5059 7.22998H29.2699" stroke="white" stroke-linecap="round" stroke-linejoin="round"/>
<path d="M24.5059 9.04199H32.6479" stroke="white" stroke-linecap="round" stroke-linejoin="round"/>
<path d="M24.5059 10.8479H26.8879" stroke="white" stroke-linecap="round" stroke-linejoin="round"/>
<path d="M28.8379 10.8479H32.6479" stroke="white" stroke-linecap="round" stroke-linejoin="round"/>
<path d="M24.5059 15.042H30.2719" stroke="white" stroke-linecap="round" stroke-linejoin="round"/>
<path d="M24.5059 16.854H26.5159" stroke="white" stroke-linecap="round" stroke-linejoin="round"/>
<path d="M28.874 16.854H32.618" stroke="white" stroke-linecap="round" stroke-linejoin="round"/>
<path d="M27.7041 18.6599H32.6481" stroke="white" stroke-linecap="round" stroke-linejoin="round"/>
<path d="M28.376 22.542H31.382" stroke="white" stroke-linecap="round" stroke-linejoin="round"/>
<path d="M28.874 24.354H30.05" stroke="white" stroke-linecap="round" stroke-linejoin="round"/>
<path d="M31.124 24.354H32.648" stroke="white" stroke-linecap="round" stroke-linejoin="round"/>
<path d="M28.8135 26.1599H30.4755" stroke="white" stroke-linecap="round" stroke-linejoin="round"/>
<path d="M9.46418 13.398V15.42H4.03418V9.98999H7.77818" stroke="white" stroke-linecap="round" stroke-linejoin="round"/>
<path d="M9.63775 9.68994L6.49975 12.8579L5.71975 12.1019L4.84375 12.9479L6.49975 14.5679L10.5198 10.5479L9.63775 9.68994Z" stroke="#40E095" stroke-linecap="round" stroke-linejoin="round"/>
</svg>
