<svg width="110" height="38" viewBox="0 0 110 38" fill="none" xmlns="http://www.w3.org/2000/svg">
<g clip-path="url(#clip0)">
<path fill-rule="evenodd" clip-rule="evenodd" d="M9.92875 0.000137329H51.1261C52.4403 0.000137329 53.516 1.08696 53.516 2.41477V8.73882C53.516 10.0666 52.4403 11.1534 51.1261 11.1534H9.92875C8.61459 11.1534 7.53894 10.0666 7.53894 8.73882V2.41477C7.53894 1.08696 8.61459 0.000137329 9.92875 0.000137329V0.000137329ZM41.517 2.55889H42.259C42.4149 2.55889 42.542 2.68726 42.542 2.84478V8.3096C42.542 8.46711 42.4149 8.59548 42.259 8.59548H41.517C41.3611 8.59548 41.2341 8.46711 41.2341 8.3096V2.84478C41.2341 2.68726 41.3611 2.55889 41.517 2.55889ZM44.528 2.55889H45.2701C45.426 2.55889 45.553 2.68726 45.553 2.84478V8.3096C45.553 8.46711 45.426 8.59548 45.2701 8.59548H44.528C44.3722 8.59548 44.2451 8.46711 44.2451 8.3096V2.84478C44.2451 2.68726 44.3722 2.55889 44.528 2.55889ZM47.5391 2.55889H48.2811C48.437 2.55889 48.5641 2.68726 48.5641 2.84478V8.3096C48.5641 8.46711 48.437 8.59548 48.2811 8.59548H47.5391C47.3832 8.59548 47.2561 8.46711 47.2561 8.3096V2.84478C47.2561 2.68726 47.3832 2.55889 47.5391 2.55889ZM19.4186 4.08281C20.2823 4.08281 20.983 4.79082 20.983 5.66342C20.983 6.53603 20.2823 7.24404 19.4186 7.24404C18.555 7.24404 17.8543 6.53603 17.8543 5.66342C17.8543 4.79082 18.555 4.08281 19.4186 4.08281ZM13.8268 4.08281C14.6905 4.08281 15.3912 4.79082 15.3912 5.66342C15.3912 6.53603 14.6905 7.24404 13.8268 7.24404C12.9632 7.24404 12.2624 6.53603 12.2624 5.66342C12.2624 4.79082 12.9632 4.08281 13.8268 4.08281Z" fill="#6CEF85"/>
<path fill-rule="evenodd" clip-rule="evenodd" d="M9.92875 13.0381H51.1261C52.4403 13.0381 53.516 14.1249 53.516 15.4527V21.7767C53.516 23.1046 52.4403 24.1914 51.1261 24.1914H9.92875C8.61459 24.1914 7.53894 23.1046 7.53894 21.7767V15.4527C7.53894 14.1249 8.61459 13.0381 9.92875 13.0381ZM41.517 15.5968H42.259C42.4149 15.5968 42.542 15.7252 42.542 15.8827V21.3467C42.542 21.5043 42.4149 21.6326 42.259 21.6326H41.517C41.3611 21.6326 41.2341 21.5043 41.2341 21.3467V15.8827C41.2341 15.7252 41.3611 15.5968 41.517 15.5968ZM44.528 15.5968H45.2701C45.426 15.5968 45.553 15.7252 45.553 15.8827V21.3467C45.553 21.5043 45.426 21.6326 45.2701 21.6326H44.528C44.3722 21.6326 44.2451 21.5043 44.2451 21.3467V15.8827C44.2451 15.7252 44.3722 15.5968 44.528 15.5968ZM47.5391 15.5968H48.2811C48.437 15.5968 48.5641 15.7252 48.5641 15.8827V21.3467C48.5641 21.5043 48.437 21.6326 48.2811 21.6326H47.5391C47.3832 21.6326 47.2561 21.5043 47.2561 21.3467V15.8827C47.2561 15.7252 47.3832 15.5968 47.5391 15.5968ZM19.4186 17.1207C20.2823 17.1207 20.983 17.8287 20.983 18.7014C20.983 19.574 20.2823 20.282 19.4186 20.282C18.555 20.282 17.8543 19.574 17.8543 18.7014C17.8543 17.8287 18.555 17.1207 19.4186 17.1207ZM13.8268 17.1207C14.6905 17.1207 15.3912 17.8287 15.3912 18.7014C15.3912 19.574 14.6905 20.282 13.8268 20.282C12.9632 20.282 12.2624 19.574 12.2624 18.7014C12.2624 17.8287 12.9632 17.1207 13.8268 17.1207Z" fill="#6CEF85"/>
<path fill-rule="evenodd" clip-rule="evenodd" d="M9.92875 26.2934H51.1261C52.4403 26.2934 53.516 27.3802 53.516 28.708V35.032C53.516 36.3599 52.4403 37.4467 51.1261 37.4467H9.92875C8.61459 37.4467 7.53894 36.3599 7.53894 35.032V28.708C7.53894 27.3802 8.61459 26.2934 9.92875 26.2934ZM41.517 28.8521H42.259C42.4149 28.8521 42.542 28.9805 42.542 29.138V34.6028C42.542 34.7603 42.4149 34.8887 42.259 34.8887H41.517C41.3611 34.8887 41.2341 34.7603 41.2341 34.6028V29.138C41.2341 28.9805 41.3611 28.8521 41.517 28.8521ZM44.528 28.8521H45.2701C45.426 28.8521 45.553 28.9805 45.553 29.138V34.6028C45.553 34.7603 45.426 34.8887 45.2701 34.8887H44.528C44.3722 34.8887 44.2451 34.7603 44.2451 34.6028V29.138C44.2451 28.9805 44.3722 28.8521 44.528 28.8521ZM47.5391 28.8521H48.2811C48.437 28.8521 48.5641 28.9805 48.5641 29.138V34.6028C48.5641 34.7603 48.437 34.8887 48.2811 34.8887H47.5391C47.3832 34.8887 47.2561 34.7603 47.2561 34.6028V29.138C47.2561 28.9805 47.3832 28.8521 47.5391 28.8521ZM19.4186 30.376C20.2823 30.376 20.983 31.084 20.983 31.9567C20.983 32.8293 20.2823 33.5373 19.4186 33.5373C18.555 33.5373 17.8543 32.8293 17.8543 31.9567C17.8543 31.084 18.555 30.376 19.4186 30.376ZM13.8268 30.376C14.6905 30.376 15.3912 31.084 15.3912 31.9567C15.3912 32.8293 14.6905 33.5373 13.8268 33.5373C12.9632 33.5373 12.2624 32.8293 12.2624 31.9567C12.2624 31.084 12.9632 30.376 13.8268 30.376Z" fill="#6CEF85"/>
<path d="M60.7205 17.1271H52.42V20.1765H60.7205V17.1271Z" fill="#6CEF85"/>
<path fill-rule="evenodd" clip-rule="evenodd" d="M59.209 0.000137329H100.406C101.721 0.000137329 102.796 1.08696 102.796 2.41477V8.73882C102.796 10.0666 101.721 11.1534 100.406 11.1534H59.209C57.8949 11.1534 56.8192 10.0666 56.8192 8.73882V2.41477C56.8192 1.08696 57.8949 0.000137329 59.209 0.000137329V0.000137329ZM90.7973 2.55889H91.5393C91.6952 2.55889 91.8223 2.68726 91.8223 2.84478V8.3096C91.8223 8.46711 91.6952 8.59548 91.5393 8.59548H90.7973C90.6414 8.59548 90.5143 8.46711 90.5143 8.3096V2.84478C90.5143 2.68726 90.6414 2.55889 90.7973 2.55889ZM93.8083 2.55889H94.5504C94.7063 2.55889 94.8333 2.68726 94.8333 2.84478V8.3096C94.8333 8.46711 94.7063 8.59548 94.5504 8.59548H93.8083C93.6524 8.59548 93.5254 8.46711 93.5254 8.3096V2.84478C93.5254 2.68726 93.6524 2.55889 93.8083 2.55889ZM96.8194 2.55889H97.5614C97.7173 2.55889 97.8444 2.68726 97.8444 2.84478V8.3096C97.8444 8.46711 97.7173 8.59548 97.5614 8.59548H96.8194C96.6635 8.59548 96.5364 8.46711 96.5364 8.3096V2.84478C96.5364 2.68726 96.6635 2.55889 96.8194 2.55889ZM68.6989 4.08281C69.5625 4.08281 70.2633 4.79082 70.2633 5.66342C70.2633 6.53603 69.5625 7.24404 68.6989 7.24404C67.8353 7.24404 67.1345 6.53603 67.1345 5.66342C67.1345 4.79082 67.8353 4.08281 68.6989 4.08281ZM63.1071 4.08281C63.9707 4.08281 64.6715 4.79082 64.6715 5.66342C64.6715 6.53603 63.9707 7.24404 63.1071 7.24404C62.2435 7.24404 61.5427 6.53603 61.5427 5.66342C61.5427 4.79082 62.2435 4.08281 63.1071 4.08281Z" fill="#75859D"/>
<path fill-rule="evenodd" clip-rule="evenodd" d="M59.209 13.0381H100.406C101.721 13.0381 102.796 14.1249 102.796 15.4527V21.7767C102.796 23.1046 101.721 24.1914 100.406 24.1914H59.209C57.8949 24.1914 56.8192 23.1046 56.8192 21.7767V15.4527C56.8192 14.1249 57.8949 13.0381 59.209 13.0381ZM90.7973 15.5968H91.5393C91.6952 15.5968 91.8223 15.7252 91.8223 15.8827V21.3467C91.8223 21.5043 91.6952 21.6326 91.5393 21.6326H90.7973C90.6414 21.6326 90.5143 21.5043 90.5143 21.3467V15.8827C90.5143 15.7252 90.6414 15.5968 90.7973 15.5968ZM93.8083 15.5968H94.5504C94.7063 15.5968 94.8333 15.7252 94.8333 15.8827V21.3467C94.8333 21.5043 94.7063 21.6326 94.5504 21.6326H93.8083C93.6524 21.6326 93.5254 21.5043 93.5254 21.3467V15.8827C93.5254 15.7252 93.6524 15.5968 93.8083 15.5968ZM96.8194 15.5968H97.5614C97.7173 15.5968 97.8444 15.7252 97.8444 15.8827V21.3467C97.8444 21.5043 97.7173 21.6326 97.5614 21.6326H96.8194C96.6635 21.6326 96.5364 21.5043 96.5364 21.3467V15.8827C96.5364 15.7252 96.6635 15.5968 96.8194 15.5968ZM68.6989 17.1207C69.5625 17.1207 70.2633 17.8287 70.2633 18.7014C70.2633 19.574 69.5625 20.282 68.6989 20.282C67.8353 20.282 67.1345 19.574 67.1345 18.7014C67.1345 17.8287 67.8353 17.1207 68.6989 17.1207ZM63.1071 17.1207C63.9707 17.1207 64.6715 17.8287 64.6715 18.7014C64.6715 19.574 63.9707 20.282 63.1071 20.282C62.2435 20.282 61.5427 19.574 61.5427 18.7014C61.5427 17.8287 62.2435 17.1207 63.1071 17.1207Z" fill="#75859D"/>
<path fill-rule="evenodd" clip-rule="evenodd" d="M59.209 26.2934H100.406C101.721 26.2934 102.796 27.3802 102.796 28.708V35.032C102.796 36.3599 101.721 37.4467 100.406 37.4467H59.209C57.8949 37.4467 56.8192 36.3599 56.8192 35.032V28.708C56.8192 27.3802 57.8949 26.2934 59.209 26.2934ZM90.7973 28.8521H91.5393C91.6952 28.8521 91.8223 28.9805 91.8223 29.138V34.6028C91.8223 34.7603 91.6952 34.8887 91.5393 34.8887H90.7973C90.6414 34.8887 90.5143 34.7603 90.5143 34.6028V29.138C90.5143 28.9805 90.6414 28.8521 90.7973 28.8521ZM93.8083 28.8521H94.5504C94.7063 28.8521 94.8333 28.9805 94.8333 29.138V34.6028C94.8333 34.7603 94.7063 34.8887 94.5504 34.8887H93.8083C93.6524 34.8887 93.5254 34.7603 93.5254 34.6028V29.138C93.5254 28.9805 93.6524 28.8521 93.8083 28.8521ZM96.8194 28.8521H97.5614C97.7173 28.8521 97.8444 28.9805 97.8444 29.138V34.6028C97.8444 34.7603 97.7173 34.8887 97.5614 34.8887H96.8194C96.6635 34.8887 96.5364 34.7603 96.5364 34.6028V29.138C96.5364 28.9805 96.6635 28.8521 96.8194 28.8521ZM68.6989 30.376C69.5625 30.376 70.2633 31.084 70.2633 31.9567C70.2633 32.8293 69.5625 33.5373 68.6989 33.5373C67.8353 33.5373 67.1345 32.8293 67.1345 31.9567C67.1345 31.084 67.8353 30.376 68.6989 30.376ZM63.1071 30.376C63.9707 30.376 64.6715 31.084 64.6715 31.9567C64.6715 32.8293 63.9707 33.5373 63.1071 33.5373C62.2435 33.5373 61.5427 32.8293 61.5427 31.9567C61.5427 31.084 62.2435 30.376 63.1071 30.376Z" fill="#75859D"/>
<path d="M110 17.1271H101.699V20.1765H110V17.1271Z" fill="#75859D"/>
<path d="M9.35659 17.1271H0V20.1765H9.35659V17.1271Z" fill="#6CEF85"/>
</g>
<defs>
<clipPath id="clip0">
<rect width="110" height="37.4468" fill="white"/>
</clipPath>
</defs>
</svg>
