<svg width="60" height="37" viewBox="0 0 60 37" fill="none" xmlns="http://www.w3.org/2000/svg">
<path fill-rule="evenodd" clip-rule="evenodd" d="M9.81092 0H50.5195C51.8181 0 52.881 1.07163 52.881 2.38088V8.61652C52.881 9.92577 51.8181 10.9974 50.5195 10.9974H9.81092C8.51235 10.9974 7.44946 9.92577 7.44946 8.61652V2.38088C7.44946 1.07163 8.51235 0 9.81092 0V0ZM41.0244 2.52299H41.7576C41.9117 2.52299 42.0372 2.64956 42.0372 2.80487V8.1933C42.0372 8.34861 41.9117 8.47519 41.7576 8.47519H41.0244C40.8703 8.47519 40.7448 8.34861 40.7448 8.1933V2.80487C40.7448 2.64956 40.8703 2.52299 41.0244 2.52299ZM43.9997 2.52299H44.7329C44.887 2.52299 45.0125 2.64956 45.0125 2.80487V8.1933C45.0125 8.34861 44.887 8.47519 44.7329 8.47519H43.9997C43.8457 8.47519 43.7201 8.34861 43.7201 8.1933V2.80487C43.7201 2.64956 43.8457 2.52299 43.9997 2.52299ZM46.975 2.52299H47.7083C47.8623 2.52299 47.9878 2.64956 47.9878 2.80487V8.1933C47.9878 8.34861 47.8623 8.47519 47.7083 8.47519H46.975C46.821 8.47519 46.6954 8.34861 46.6954 8.1933V2.80487C46.6954 2.64956 46.821 2.52299 46.975 2.52299ZM19.1882 4.0256C20.0416 4.0256 20.734 4.72371 20.734 5.58412C20.734 6.44453 20.0416 7.14264 19.1882 7.14264C18.3348 7.14264 17.6424 6.44453 17.6424 5.58412C17.6424 4.72371 18.3348 4.0256 19.1882 4.0256ZM13.6627 4.0256C14.5161 4.0256 15.2085 4.72371 15.2085 5.58412C15.2085 6.44453 14.5161 7.14264 13.6627 7.14264C12.8093 7.14264 12.1169 6.44453 12.1169 5.58412C12.1169 4.72371 12.8093 4.0256 13.6627 4.0256Z" fill="#6CEF85"/>
<path fill-rule="evenodd" clip-rule="evenodd" d="M9.81092 12.8557H50.5195C51.8181 12.8557 52.881 13.9273 52.881 15.2366V21.4722C52.881 22.7815 51.8181 23.8531 50.5195 23.8531H9.81092C8.51235 23.8531 7.44946 22.7815 7.44946 21.4722V15.2366C7.44946 13.9273 8.51235 12.8557 9.81092 12.8557ZM41.0244 15.3787H41.7576C41.9117 15.3787 42.0372 15.5052 42.0372 15.6606V21.0482C42.0372 21.2035 41.9117 21.3301 41.7576 21.3301H41.0244C40.8703 21.3301 40.7448 21.2035 40.7448 21.0482V15.6606C40.7448 15.5052 40.8703 15.3787 41.0244 15.3787ZM43.9997 15.3787H44.7329C44.887 15.3787 45.0125 15.5052 45.0125 15.6606V21.0482C45.0125 21.2035 44.887 21.3301 44.7329 21.3301H43.9997C43.8457 21.3301 43.7201 21.2035 43.7201 21.0482V15.6606C43.7201 15.5052 43.8457 15.3787 43.9997 15.3787ZM46.975 15.3787H47.7083C47.8623 15.3787 47.9878 15.5052 47.9878 15.6606V21.0482C47.9878 21.2035 47.8623 21.3301 47.7083 21.3301H46.975C46.821 21.3301 46.6954 21.2035 46.6954 21.0482V15.6606C46.6954 15.5052 46.821 15.3787 46.975 15.3787ZM19.1882 16.8813C20.0416 16.8813 20.734 17.5794 20.734 18.4398C20.734 19.3002 20.0416 19.9983 19.1882 19.9983C18.3348 19.9983 17.6424 19.3002 17.6424 18.4398C17.6424 17.5794 18.3348 16.8813 19.1882 16.8813ZM13.6627 16.8813C14.5161 16.8813 15.2085 17.5794 15.2085 18.4398C15.2085 19.3002 14.5161 19.9983 13.6627 19.9983C12.8093 19.9983 12.1169 19.3002 12.1169 18.4398C12.1169 17.5794 12.8093 16.8813 13.6627 16.8813Z" fill="#6CEF85"/>
<path fill-rule="evenodd" clip-rule="evenodd" d="M9.81092 25.9257H50.5195C51.8181 25.9257 52.881 26.9973 52.881 28.3065V34.5422C52.881 35.8514 51.8181 36.9231 50.5195 36.9231H9.81092C8.51235 36.9231 7.44946 35.8514 7.44946 34.5422V28.3065C7.44946 26.9973 8.51235 25.9257 9.81092 25.9257ZM41.0244 28.4486H41.7576C41.9117 28.4486 42.0372 28.5752 42.0372 28.7305V34.119C42.0372 34.2743 41.9117 34.4009 41.7576 34.4009H41.0244C40.8703 34.4009 40.7448 34.2743 40.7448 34.119V28.7305C40.7448 28.5752 40.8703 28.4486 41.0244 28.4486ZM43.9997 28.4486H44.7329C44.887 28.4486 45.0125 28.5752 45.0125 28.7305V34.119C45.0125 34.2743 44.887 34.4009 44.7329 34.4009H43.9997C43.8457 34.4009 43.7201 34.2743 43.7201 34.119V28.7305C43.7201 28.5752 43.8457 28.4486 43.9997 28.4486ZM46.975 28.4486H47.7083C47.8623 28.4486 47.9878 28.5752 47.9878 28.7305V34.119C47.9878 34.2743 47.8623 34.4009 47.7083 34.4009H46.975C46.821 34.4009 46.6954 34.2743 46.6954 34.119V28.7305C46.6954 28.5752 46.821 28.4486 46.975 28.4486ZM19.1882 29.9513C20.0416 29.9513 20.734 30.6494 20.734 31.5098C20.734 32.3702 20.0416 33.0683 19.1882 33.0683C18.3348 33.0683 17.6424 32.3702 17.6424 31.5098C17.6424 30.6494 18.3348 29.9513 19.1882 29.9513ZM13.6627 29.9513C14.5161 29.9513 15.2085 30.6494 15.2085 31.5098C15.2085 32.3702 14.5161 33.0683 13.6627 33.0683C12.8093 33.0683 12.1169 32.3702 12.1169 31.5098C12.1169 30.6494 12.8093 29.9513 13.6627 29.9513Z" fill="#6CEF85"/>
<path d="M60 16.8875H51.7981V19.8943H60V16.8875Z" fill="#6CEF85"/>
<path d="M9.24558 16.8875H0V19.8943H9.24558V16.8875Z" fill="#6CEF85"/>
</svg>
