<svg xmlns="http://www.w3.org/2000/svg" viewBox="0 0 60.1 49.37"><defs><style>.cls-1{fill:#374153;fill-rule:evenodd;}</style></defs><title>api</title><g id="Слой_2" data-name="Слой 2"><g id="_1" data-name="1"><path class="cls-1" d="M9.22,9.22,15,3.44V15H3.44L9.22,9.22ZM46.71,11V2H17V16a1,1,0,0,1-1,1H2V47.36H46.71V39l-.2-.14c-.42.22-.85.41-1.28.59a15.63,15.63,0,0,1-1.92.68l-.9,4.93a1,1,0,0,1-1,.83h-5a1,1,0,0,1-1-.83L34.47,40a15.73,15.73,0,0,1-3.15-1.36l-4.12,2.85a1,1,0,0,1-1.29-.12L22.35,37.8a1,1,0,0,1-.12-1.29l2.93-4.24a15.62,15.62,0,0,1-1.27-3.2L19,28.18a1,1,0,0,1-.83-1v-5a1,1,0,0,1,.83-1L24,20.24a15.71,15.71,0,0,1,1.36-3.16L22.54,13a1,1,0,0,1,.12-1.29l3.56-3.55A1,1,0,0,1,27.5,8l4.24,2.92a15.72,15.72,0,0,1,3.2-1.27l.9-4.93a1,1,0,0,1,1-.83h5a1,1,0,0,1,1,.83l.93,5.07a15.64,15.64,0,0,1,1.56.57l.53.26c.29.13.57.26.85.41Zm4.8-.59,2.37,2.37-2.8,4.06A1,1,0,0,0,51,18a13.7,13.7,0,0,1,1.53,3.85,1,1,0,0,0,.8.77l4.74.87v3.35l-4.86.89a1,1,0,0,0-.79.74A13.7,13.7,0,0,1,50.8,32.2a1,1,0,0,0,0,1.11l2.74,4-2.37,2.37-2.9-2h0l-1.15-.8a1,1,0,0,0-1.08,0,13.69,13.69,0,0,1-3.85,1.52,1,1,0,0,0-.77.8l-.87,4.74H37.23L36.34,39a1,1,0,0,0-.73-.79,13.68,13.68,0,0,1-3.79-1.64,1,1,0,0,0-1.11,0l-4,2.74L24.37,37l2.8-4.06a1,1,0,0,0,0-1.08A13.67,13.67,0,0,1,25.69,28a1,1,0,0,0-.8-.77l-4.74-.87V23L25,22.11a1,1,0,0,0,.79-.74,14.7,14.7,0,0,1,1.64-3.79,1,1,0,0,0,0-1.11l-2.74-4L27,10.14l4.06,2.8a1,1,0,0,0,1,.06l0,0h0l.41-.22a13.7,13.7,0,0,1,2.43-1q.49-.15,1-.27a1,1,0,0,0,.77-.8l.87-4.74H41l.89,4.86a1,1,0,0,0,.73.79,13.64,13.64,0,0,1,3.79,1.64,1,1,0,0,0,1.11,0h0l.5-.34.25-.17h0l3.22-2.22ZM1,49.37H47.71a1,1,0,0,0,1-1v-8l2,1.39A1,1,0,0,0,52,41.66l3.55-3.55a1,1,0,0,0,.12-1.29L52.85,32.7a15.76,15.76,0,0,0,1.36-3.16l5.07-.93a1,1,0,0,0,.83-1v-5a1,1,0,0,0-.83-1l-4.93-.9a15.68,15.68,0,0,0-1.27-3.2L56,13.27A1,1,0,0,0,55.89,12L52.33,8.43A1,1,0,0,0,51,8.31L48.72,9.92V1a1,1,0,0,0-1-1H16a1,1,0,0,0-.26.05l-.1,0a1,1,0,0,0-.29.2l-15,15a1,1,0,0,0-.2.3l0,.09A1,1,0,0,0,0,16V48.36A1,1,0,0,0,1,49.37Z"/><path class="cls-1" d="M39.12,32.48a7.58,7.58,0,1,1,7.58-7.58,7.59,7.59,0,0,1-7.58,7.58Zm0-17.19a9.6,9.6,0,1,0,9.6,9.6A9.61,9.61,0,0,0,39.12,15.29Z"/><path class="cls-1" d="M39.12,28.91a4,4,0,1,1,4-4,4,4,0,0,1-4,4Zm0-10.06a6,6,0,1,0,6,6A6,6,0,0,0,39.12,18.85Z"/><path class="cls-1" d="M7.25,38.3a1,1,0,0,0-1,1v8a1,1,0,1,0,2,0v-8A1,1,0,0,0,7.25,38.3Z"/><path class="cls-1" d="M7.25,28.91a1,1,0,0,0-1,1v4a1,1,0,1,0,2,0v-4A1,1,0,0,0,7.25,28.91Z"/></g></g></svg>