<svg xmlns="http://www.w3.org/2000/svg" viewBox="0 0 50.04 50.16"><defs><style>.cls-1,.cls-2{fill:#374153;stroke:#374153;stroke-miterlimit:22.93;stroke-width:0.22px;}.cls-2{fill-rule:evenodd;}</style></defs><title>brand</title><g id="Слой_2" data-name="Слой 2"><g id="_1" data-name="1"><rect class="cls-1" x="0.11" y="49.07" width="42.37" height="0.98"/><path class="cls-2" d="M45.53,20a1.71,1.71,0,0,1-2.37.51L39.23,18l-.83-.53-5.15-3.33-.83-.53L28.48,11A1.71,1.71,0,0,1,28,8.65l2.52-3.9A1.69,1.69,0,0,1,31.56,4a1.66,1.66,0,0,1,1.05.09l.26.13,14.68,9.49.22.17a1.72,1.72,0,0,1,.29,2.19L45.53,20ZM25.79,38.75l3.82,2.47,12.9-20-3.82-2.47-12.9,20Zm-5.85,6.84L15.16,42.5,15,33l3.43,2.22.83.54,5.15,3.33.83.53,3.43,2.22-8.71,3.73Zm-4.68,2,3.59-1.54-3.67-2.37.08,3.91ZM32.71,14.92l-12.9,20L25,38.21l12.9-20-5.15-3.33Zm-4.65-3-12.9,20L19,34.35l12.9-20-3.82-2.47ZM40.72,2a5.7,5.7,0,0,0-7.57,1.27l.25.14L48.08,12.9l.23.16a5.7,5.7,0,0,0-2-7.43L40.72,2ZM49,13.87a6.68,6.68,0,0,0-2.09-9.06L41.25,1.17A6.69,6.69,0,0,0,32.13,3a2.69,2.69,0,0,0-2.47,1.23l-2.52,3.9a2.69,2.69,0,0,0,.17,3.15l-13,20.08-.37.57v.46l.18,9.48,0,1.18.12,6,5.54-2.37,1.09-.47,8.71-3.73.43-.18.37-.57,13-20.08a2.7,2.7,0,0,0,2.95-1.14l2.52-3.9A2.7,2.7,0,0,0,49,13.87Z"/></g></g></svg>