<svg xmlns="http://www.w3.org/2000/svg" viewBox="0 0 52.41 52.41"><defs><style>.cls-1{fill:#374153;stroke:#fff;stroke-miterlimit:22.93;stroke-width:1px;fill-rule:evenodd;}</style></defs><title>fast</title><g id="Слой_2" data-name="Слой 2"><g id="_1" data-name="1"><path class="cls-1" d="M37.29,18.13a2.11,2.11,0,0,1-1.5.62h0a2.12,2.12,0,1,1,1.5-.62Zm1.93-4.93a4.85,4.85,0,1,0-3.43,8.29h0a4.85,4.85,0,0,0,3.43-8.29Z"/><path class="cls-1" d="M1.87,42.58a1.37,1.37,0,0,1-1-2.33l7.89-7.89a1.36,1.36,0,0,1,1.93,1.93L2.83,42.18A1.36,1.36,0,0,1,1.87,42.58Z"/><path class="cls-1" d="M3.63,50.15a1.37,1.37,0,0,1-1-2.33l8.23-8.23a1.37,1.37,0,0,1,1.93,1.93L4.6,49.75A1.37,1.37,0,0,1,3.63,50.15Z"/><path class="cls-1" d="M11.19,51.91a1.37,1.37,0,0,1-1-2.33l7.89-7.89a1.37,1.37,0,1,1,1.93,1.93l-7.89,7.89A1.36,1.36,0,0,1,11.19,51.91Z"/><path class="cls-1" d="M46.7,10.27A47.38,47.38,0,0,1,36.45,26.6a42.16,42.16,0,0,1-8.57,6.55l-.17.1A51.85,51.85,0,0,1,22.2,36l-1.93-1.93,3.9-3.9a1.36,1.36,0,1,0-1.93-1.93l-3.9,3.9L16.4,30.21a51.8,51.8,0,0,1,2.76-5.51,1.42,1.42,0,0,0,.1-.16A42.24,42.24,0,0,1,25.81,16,47.32,47.32,0,0,1,42.14,5.71a54.45,54.45,0,0,1,6.64-2.08,53.66,53.66,0,0,1-2.07,6.64ZM33.93,37.75l1.23-6.32a46.66,46.66,0,0,1-5.45,3.81l-1.63,8.38,5.86-5.87ZM8.79,24.33l8.38-1.63A46.72,46.72,0,0,1,21,17.25l-6.32,1.23L8.79,24.33ZM51.51.9A1.36,1.36,0,0,0,50.33.52a50.43,50.43,0,0,0-9.1,2.62,55.11,55.11,0,0,0-8.54,4.11A45,45,0,0,0,24,13.87l-10.31,2a1.35,1.35,0,0,0-.7.37L3.69,25.56a1.37,1.37,0,0,0,1,2.33l.26,0,10.54-2.05q-1,2-1.92,4.19a1.37,1.37,0,0,0,.3,1.48l2.58,2.58L14,36.47a1.37,1.37,0,0,0,1.93,1.93l2.4-2.4,2.58,2.58a1.37,1.37,0,0,0,1.49.3Q24.57,38,26.59,37l-2,10.54a1.36,1.36,0,0,0,2.31,1.22l9.31-9.34a1.37,1.37,0,0,0,.37-.7l2-10.31a45,45,0,0,0,6.62-8.64,55.23,55.23,0,0,0,4.11-8.54,50.53,50.53,0,0,0,2.62-9.1A1.37,1.37,0,0,0,51.51.9Z"/></g></g></svg>