<svg xmlns="http://www.w3.org/2000/svg" viewBox="0 0 50.17 50.17"><defs><style>.cls-1{fill:#374153;fill-rule:evenodd;}</style></defs><title>language</title><g id="Слой_2" data-name="Слой 2"><g id="_1" data-name="1"><path class="cls-1" d="M18.4,6.63a18,18,0,0,0-4.23,5.71h-4A19.69,19.69,0,0,1,18.4,6.63ZM40,12.33H36a18,18,0,0,0-4.23-5.71A19.7,19.7,0,0,1,40,12.33Zm-8.22,31.2a18.16,18.16,0,0,0,4.34-5.93h4.07a19.71,19.71,0,0,1-8.41,5.93ZM10,37.61h4.07a18.17,18.17,0,0,0,4.34,5.93A19.7,19.7,0,0,1,10,37.61Zm1.42-13.3H5.48A19.52,19.52,0,0,1,9,13.87h4.49a29.77,29.77,0,0,0-2.08,10.45ZM24.32,13.87h-9.2a28.21,28.21,0,0,0-2.18,10.45H24.32V13.87Zm0-8.37c-3.38.34-6.39,2.92-8.47,6.84h8.47V5.5Zm1.53,6.84h8.47c-2.08-3.91-5.09-6.5-8.47-6.84v6.84Zm11.38,12H25.85V13.87h9.2a28.2,28.2,0,0,1,2.18,10.45ZM25.85,36.08V25.85H37.23a28.34,28.34,0,0,1-2.08,10.23Zm0,8.59c3.45-.35,6.51-3,8.59-7.06H25.85v7.06Zm-1.53-7.06H15.74c2.08,4,5.14,6.71,8.59,7.06V37.61ZM12.94,25.85H24.32V36.08H15a28.35,28.35,0,0,1-2.08-10.23Zm-7.46,0A19.51,19.51,0,0,0,8.84,36.08h4.56a29.87,29.87,0,0,1-2-10.23ZM41.34,36.08A19.51,19.51,0,0,0,44.7,25.85H38.77a29.88,29.88,0,0,1-2,10.23ZM44.7,24.32a19.51,19.51,0,0,0-3.52-10.45H36.69a29.77,29.77,0,0,1,2.08,10.45ZM8,12.6a21.16,21.16,0,1,0,34.16,0l0-.07A21.14,21.14,0,0,0,8,12.56Z"/><path class="cls-1" d="M1.53,19a.75.75,0,0,0,.22,0,.77.77,0,0,0,.73-.55,23.51,23.51,0,0,1,1-2.81A.77.77,0,0,0,2.1,15,25,25,0,0,0,1,18,.77.77,0,0,0,1.53,19Z"/><path class="cls-1" d="M25.53,48.63a.77.77,0,0,0,0,1.53h0a25.38,25.38,0,0,0,3.17-.26.77.77,0,1,0-.22-1.52A23.75,23.75,0,0,1,25.53,48.63Z"/><path class="cls-1" d="M18.88,47.81a.77.77,0,0,0-.4,1.48,25.08,25.08,0,0,0,3.12.64h.11a.77.77,0,0,0,.1-1.52A23.74,23.74,0,0,1,18.88,47.81Z"/><path class="cls-1" d="M34.93,46.49a23.58,23.58,0,0,1-2.79,1.07A.77.77,0,1,0,32.61,49a24.91,24.91,0,0,0,3-1.14.77.77,0,1,0-.64-1.39Z"/><path class="cls-1" d="M12.74,45.14a.77.77,0,1,0-.81,1.3,25.13,25.13,0,0,0,2.81,1.5.77.77,0,0,0,.63-1.4A23.52,23.52,0,0,1,12.74,45.14Z"/><path class="cls-1" d="M46,37.54a.76.76,0,0,0-1.06.23,23.69,23.69,0,0,1-1.77,2.41.77.77,0,1,0,1.17,1,24.88,24.88,0,0,0,1.88-2.56A.77.77,0,0,0,46,37.54Z"/><path class="cls-1" d="M40.56,42.85a23.88,23.88,0,0,1-2.37,1.82A.77.77,0,1,0,39,45.94,25.26,25.26,0,0,0,41.56,44a.77.77,0,0,0-1-1.16Z"/><path class="cls-1" d="M5.86,9A25.19,25.19,0,0,0,4,11.52a.77.77,0,1,0,1.29.83A23.6,23.6,0,0,1,7,9.95.77.77,0,0,0,5.86,9Z"/><path class="cls-1" d="M1.84,28.9a.77.77,0,1,0-1.51.25A25.12,25.12,0,0,0,1,32.25a.77.77,0,0,0,.73.55.78.78,0,0,0,.22,0,.77.77,0,0,0,.52-1A23.51,23.51,0,0,1,1.84,28.9Z"/><path class="cls-1" d="M.77,26a.77.77,0,0,0,.77-.77v-.1a23.92,23.92,0,0,1,.19-3A.77.77,0,1,0,.2,21.91,25.36,25.36,0,0,0,0,25.08v.1A.77.77,0,0,0,.77,26Z"/><path class="cls-1" d="M46.17,11.49a.77.77,0,1,0-1.29.83,23.66,23.66,0,0,1,1.46,2.6.77.77,0,0,0,.69.43.76.76,0,0,0,.33-.08.77.77,0,0,0,.36-1A25.24,25.24,0,0,0,46.17,11.49Z"/><path class="cls-1" d="M2.83,34.93a.77.77,0,0,0-.36,1A25.41,25.41,0,0,0,4,38.73a.77.77,0,0,0,1.29-.83,23.61,23.61,0,0,1-1.46-2.6A.77.77,0,0,0,2.83,34.93Z"/><path class="cls-1" d="M7.59,40.85a.77.77,0,0,0-1.14,1A25.55,25.55,0,0,0,8.72,44.1a.77.77,0,1,0,1-1.16A23.81,23.81,0,0,1,7.59,40.85Z"/><path class="cls-1" d="M15,3.73a.76.76,0,0,0,.32-.07,23.57,23.57,0,0,1,2.79-1.07.77.77,0,1,0-.46-1.46,25.05,25.05,0,0,0-3,1.14A.77.77,0,0,0,15,3.73Z"/><path class="cls-1" d="M31.34,2.37l.2,0a.77.77,0,0,0,.2-1.51A25.09,25.09,0,0,0,28.63.24a.77.77,0,1,0-.21,1.52A23.5,23.5,0,0,1,31.34,2.37Z"/><path class="cls-1" d="M50,28.2a25.49,25.49,0,0,0,.19-3.12V25a.74.74,0,0,0-.77-.74.79.79,0,0,0-.77.79A24,24,0,0,1,48.46,28a.77.77,0,0,0,.67.85h.09A.77.77,0,0,0,50,28.2Z"/><path class="cls-1" d="M42.62,9.35a.77.77,0,0,0,1.14-1A25.5,25.5,0,0,0,41.49,6.1a.77.77,0,1,0-1,1.16A23.81,23.81,0,0,1,42.62,9.35Z"/><path class="cls-1" d="M48.66,31.15a.76.76,0,0,0-.95.52,23.53,23.53,0,0,1-1,2.81.77.77,0,1,0,1.4.61,25,25,0,0,0,1.08-3A.77.77,0,0,0,48.66,31.15Z"/><path class="cls-1" d="M9.65,7.29A23.61,23.61,0,0,1,12,5.48a.77.77,0,0,0-.85-1.28A25.21,25.21,0,0,0,8.65,6.13a.77.77,0,0,0,1,1.16Z"/><path class="cls-1" d="M37.48,5a.77.77,0,0,0,.81-1.3,25.06,25.06,0,0,0-2.81-1.5.77.77,0,0,0-.64,1.39A23.43,23.43,0,0,1,37.48,5Z"/><path class="cls-1" d="M48.2,17.45a.77.77,0,0,0-.52,1,23.35,23.35,0,0,1,.66,2.91.77.77,0,0,0,.76.64h.12a.77.77,0,0,0,.64-.88,25,25,0,0,0-.7-3.1A.76.76,0,0,0,48.2,17.45Z"/><path class="cls-1" d="M21.71,1.77a23.82,23.82,0,0,1,3-.24.77.77,0,0,0,0-1.53h0a25.45,25.45,0,0,0-3.17.25.77.77,0,0,0,.11,1.52Z"/></g></g></svg>