<svg xmlns="http://www.w3.org/2000/svg" viewBox="0 0 53.1 49.8"><defs><style>.cls-1{fill:none;stroke:#374153;stroke-miterlimit:22.93;stroke-width:1.5px;fill-rule:evenodd;}</style></defs><title>support</title><g id="Слой_2" data-name="Слой 2"><g id="_1" data-name="1"><path class="cls-1" d="M29.36.75a23,23,0,0,0-18.82,9.8,11.25,11.25,0,0,1,2.51,2.32A19.62,19.62,0,0,1,27,4.27l2.36,4,2.36-4A19.65,19.65,0,0,1,48.83,21.38l-4,2.36,4,2.36a19.63,19.63,0,0,1-9,14.2,6,6,0,0,1,.51,2.17A5.73,5.73,0,0,1,40.2,44,23,23,0,0,0,29.36.75Zm5.87,37.87c-5.3-4.26-6.78-2.17-9.19.24-1.68,1.68-5.93-1.83-9.6-5.5s-7.18-7.92-5.5-9.6c2.41-2.4,4.5-3.89.24-9.19s-7.1-1.23-9.43,1.1c-2.69,2.69-.14,12.71,9.76,22.61S31.44,50.74,34.13,48c2.33-2.33,6.4-5.17,1.1-9.43ZM19.08,27.34c0-4.71,5.52-5.55,5.52-7.39a1.26,1.26,0,0,0-1.37-1.27C22,18.69,21.33,20,21.33,20L19,18.49a4.92,4.92,0,0,1,4.5-2.75c2.09,0,4.35,1.2,4.35,3.91,0,4-5.14,4.75-5.23,6.39h5.43v2.68H19.23a7.81,7.81,0,0,1-.14-1.37Zm10.28-3.6L34.29,16h3.82V23h1.52v2.59H38.11v3.09H35V25.63H29.37V23.74ZM35,23V20.18a11.41,11.41,0,0,1,.11-1.43h0a6.77,6.77,0,0,1-.62,1.32L32.54,23v0H35Z"/></g></g></svg>