<svg xmlns="http://www.w3.org/2000/svg" viewBox="0 0 53.28 49.48"><defs><style>.cls-1{fill:none;stroke:#374153;stroke-miterlimit:22.93;stroke-width:1.5px;fill-rule:evenodd;}</style></defs><title>update</title><g id="Слой_2" data-name="Слой 2"><g id="_1" data-name="1"><path class="cls-1" d="M50.85,18.48h-3a24,24,0,1,0-2.42,18.31,1.76,1.76,0,0,0-.8-2.49l0,0a1.74,1.74,0,0,0-2.22.7,20.43,20.43,0,1,1,1.77-16.5H41.06a1.68,1.68,0,0,0-1.41,2.59l4.85,7.5a1.68,1.68,0,0,0,2.82,0l4.94-7.5A1.68,1.68,0,0,0,50.85,18.48Z"/><path class="cls-1" d="M25,31.67A6.68,6.68,0,1,0,18.36,25,6.7,6.7,0,0,0,25,31.67Z"/><path class="cls-1" d="M25,36a11,11,0,1,0-11-11A11,11,0,0,0,25,36Z"/></g></g></svg>