<?xml version="1.0" encoding="UTF-8"?>
<!DOCTYPE svg PUBLIC "-//W3C//DTD SVG 1.1//EN" "http://www.w3.org/Graphics/SVG/1.1/DTD/svg11.dtd">
<!-- Creator: CorelDRAW 2018 (64-Bit Оценочная версия) -->
<svg xmlns="http://www.w3.org/2000/svg" xml:space="preserve" width="2092px" height="2480px" version="1.1" style="shape-rendering:geometricPrecision; text-rendering:geometricPrecision; image-rendering:optimizeQuality; fill-rule:evenodd; clip-rule:evenodd"
viewBox="0 0 149.81 177.61"
 xmlns:xlink="http://www.w3.org/1999/xlink">
 <defs>
  <style type="text/css">
   <![CDATA[
    .fil0 {fill:#52C163}
   ]]>
  </style>
 </defs>
 <g id="Слой_x0020_1">
  <metadata id="CorelCorpID_0Corel-Layer"/>
  <g id="_2298875100880">
   <g>
    <g>
     <path class="fil0" d="M90.78 0c-1.76,0 -3.18,1.43 -3.18,3.18 0,1.76 1.42,3.19 3.18,3.19l48.14 0 -80.43 80.43c-1.24,1.24 -1.24,3.27 0,4.5 0.63,0.64 1.45,0.93 2.26,0.93 0.82,0 1.63,-0.31 2.25,-0.93l80.44 -80.43 0 48.12c0,1.76 1.42,3.18 3.18,3.18 1.75,0 3.19,-1.42 3.19,-3.18l0 -58.99 -59.03 0z"/>
     <path class="fil0" d="M114.43 64.4c-1.75,0 -3.18,1.43 -3.18,3.18l0 60.06 -43.61 0 0 43.6 -61.27 0 0 -139.45 78.41 0c1.76,0 3.19,-1.43 3.19,-3.19 0,-1.75 -1.43,-3.18 -3.19,-3.18l-84.78 0 0 152.19 72.41 0 45.2 -44.36 0 -65.67c0,-1.75 -1.43,-3.18 -3.18,-3.18zm-6.69 69.61l-33.73 33.1 0 -33.1 33.73 0z"/>
    </g>
   </g>
   <g>
   </g>
   <g>
   </g>
   <g>
   </g>
   <g>
   </g>
   <g>
   </g>
   <g>
   </g>
   <g>
   </g>
   <g>
   </g>
   <g>
   </g>
   <g>
   </g>
   <g>
   </g>
   <g>
   </g>
   <g>
   </g>
   <g>
   </g>
   <g>
   </g>
  </g>
 </g>
</svg>
