<?xml version="1.0" encoding="UTF-8"?>
<!DOCTYPE svg PUBLIC "-//W3C//DTD SVG 1.1//EN" "http://www.w3.org/Graphics/SVG/1.1/DTD/svg11.dtd">
<!-- Creator: CorelDRAW 2018 (64-Bit Оценочная версия) -->
<svg xmlns="http://www.w3.org/2000/svg" xml:space="preserve" width="2129px" height="2058px" version="1.1" style="shape-rendering:geometricPrecision; text-rendering:geometricPrecision; image-rendering:optimizeQuality; fill-rule:evenodd; clip-rule:evenodd"
viewBox="0 0 207.99 201.07"
 xmlns:xlink="http://www.w3.org/1999/xlink">
 <defs>
  <style type="text/css">
   <![CDATA[
    .fil0 {fill:#52C163}
   ]]>
  </style>
 </defs>
 <g id="Слой_x0020_1">
  <metadata id="CorelCorpID_0Corel-Layer"/>
  <path class="fil0" d="M205.05 156.73l-37.04 -53.77c-3.3,-5.3 -7.97,-9.6 -13.52,-12.46l4.69 -9.36c5.72,-11.44 4.87,-25.07 -2.23,-35.71l-17.73 -26.57c-12.97,-19.46 -39.25,-24.71 -58.7,-11.75 -4.65,3.1 -8.64,7.09 -11.74,11.75l-17.73 26.58c-7.09,10.64 -7.94,24.27 -2.22,35.71l4.68 9.36c-5.51,2.82 -10.15,7.08 -13.44,12.32l-37.12 53.9c-5.34,7.95 -3.23,18.72 4.72,24.06 2.86,1.92 6.22,2.94 9.66,2.94l27.74 0 0 13.87c0,1.91 1.55,3.47 3.46,3.47l110.93 0c1.92,0 3.47,-1.56 3.47,-3.47l0 -13.87 27.73 0c9.57,0 17.33,-7.77 17.33,-17.34 -0.01,-3.44 -1.03,-6.8 -2.95,-9.65l0.01 -0.01zm-148.23 -107.46l17.71 -26.57c10.84,-16.27 32.82,-20.66 49.09,-9.82 3.89,2.6 7.22,5.93 9.81,9.82l17.73 26.59c1.46,2.21 2.62,4.62 3.42,7.15l-24.92 -11.07 -0.03 0c-0.43,-0.19 -0.9,-0.29 -1.37,-0.3l-48.53 0c-0.48,0 -0.95,0.1 -1.39,0.29l-0.02 0 -24.93 11.09c0.81,-2.53 1.96,-4.94 3.43,-7.16l0 -0.02zm61.23 17.81c-2.11,1.06 -4.62,0.9 -6.59,-0.41 -4.53,-3.03 -10.44,-3.03 -14.96,0 -1.96,1.3 -4.47,1.46 -6.57,0.41l-6.73 -3.35 0 -11.73 41.6 0 0 11.73 -6.75 3.35zm6.75 4.4l0 11.18c-0.01,6.04 -4.91,10.93 -10.95,10.94l-19.7 0c-6.05,-0.01 -10.94,-4.9 -10.95,-10.94l0 -11.18 3.64 1.83c4.34,2.15 9.49,1.83 13.52,-0.85 2.21,-1.47 5.08,-1.47 7.28,0 4.03,2.68 9.19,3 13.52,0.85l3.64 -1.83zm-72.8 -6.27c0,-0.19 0.04,-0.38 0.04,-0.57l24.22 -10.77 0 28.77c0.01,9.88 8.01,17.89 17.89,17.9l19.7 0c9.87,-0.01 17.87,-8.01 17.88,-17.88l0 -28.78 24.22 10.77c0,0.19 0.04,0.38 0.04,0.57 0,4.45 -1.04,8.84 -3.03,12.83l-19.91 39.82 -58.11 0 -19.91 -39.83c-1.99,-3.98 -3.03,-8.37 -3.03,-12.83zm-6.93 111.59l-27.74 0c-5.74,0 -10.4,-4.66 -10.4,-10.4 0,-5.74 4.66,-10.4 10.4,-10.4l27.74 0 0 20.8zm0 -55.47l0 27.74 -27.74 0c-0.25,0 -0.49,0.06 -0.74,0.07l29.28 -42.52c2.64,-4.19 6.35,-7.6 10.75,-9.86l10.57 21.11 -18.66 0c-1.91,0 -3.46,1.55 -3.46,3.46l0 0zm110.93 72.8l-104 0 0 -69.33 104 0 0 69.33zm3.46 -76.26l-18.66 0 10.56 -21.11c4.45,2.29 8.2,5.75 10.85,10l29.19 42.38c-0.25,0 -0.49,-0.07 -0.74,-0.07l-27.73 0 0 -27.74c0,-1.91 -1.55,-3.46 -3.47,-3.46l0 0zm31.2 58.93l-27.73 0 0 -20.8 27.73 0c5.74,0 10.4,4.66 10.4,10.4 0,5.74 -4.66,10.4 -10.4,10.4zm0 0z"/>
 </g>
</svg>
