<?xml version="1.0" encoding="UTF-8"?>
<!DOCTYPE svg PUBLIC "-//W3C//DTD SVG 1.1//EN" "http://www.w3.org/Graphics/SVG/1.1/DTD/svg11.dtd">
<!-- Creator: CorelDRAW 2018 (64-Bit Оценочная версия) -->
<svg xmlns="http://www.w3.org/2000/svg" xml:space="preserve" width="1532px" height="2133px" version="1.1" style="shape-rendering:geometricPrecision; text-rendering:geometricPrecision; image-rendering:optimizeQuality; fill-rule:evenodd; clip-rule:evenodd"
viewBox="0 0 163.55 227.72"
 xmlns:xlink="http://www.w3.org/1999/xlink">
 <defs>
  <style type="text/css">
   <![CDATA[
    .fil0 {fill:#52C163}
   ]]>
  </style>
 </defs>
 <g id="Слой_x0020_1">
  <metadata id="CorelCorpID_0Corel-Layer"/>
  <g id="_2298867509584">
   <path class="fil0" d="M67.08 115.14c1.44,-1.15 1.69,-3.24 0.54,-4.69 -23.85,-30.15 -28.86,-49.68 -28.86,-60.76 0,-23.72 19.29,-43.02 43.01,-43.02 23.72,0 43.02,19.3 43.02,43.02 0,29.32 -33.71,67.26 -43.02,77.18 -1.19,-1.26 -2.78,-2.98 -4.63,-5.07 -1.22,-1.38 -3.33,-1.5 -4.71,-0.28 -1.38,1.23 -1.5,3.33 -0.28,4.71 4.3,4.84 7.14,7.7 7.26,7.82 0.63,0.62 1.48,0.97 2.36,0.97 0.89,0 1.74,-0.35 2.36,-0.97 1.93,-1.94 47.33,-47.75 47.33,-84.36 0,-27.4 -22.29,-49.69 -49.69,-49.69 -27.39,0 -49.68,22.29 -49.68,49.69 0,21.99 16.48,47.43 30.3,64.9 1.14,1.45 3.24,1.69 4.69,0.55l0 0zm0 0z"/>
   <path class="fil0" d="M156.65 142.61l-5.19 0c-3.22,-16.1 -11.95,-30.6 -24.79,-41.07 -1.43,-1.17 -3.53,-0.95 -4.7,0.48 -1.16,1.42 -0.95,3.52 0.48,4.69 11.29,9.2 19.07,21.84 22.19,35.9l-2.26 0c-3.8,0 -6.9,3.1 -6.9,6.9l0 3.8 -39.68 0 0 -3.8c0,-3.8 -3.09,-6.9 -6.9,-6.9l-14.26 0c-3.8,0 -6.9,3.1 -6.9,6.9l0 3.8 -39.68 0 0 -3.8c0,-3.8 -3.09,-6.9 -6.9,-6.9l-2.26 0c3.13,-14.06 10.91,-26.7 22.2,-35.9 1.42,-1.17 1.64,-3.27 0.47,-4.7 -1.16,-1.42 -3.26,-1.64 -4.69,-0.47 -12.84,10.47 -21.57,24.97 -24.79,41.07l-5.19 0c-3.8,0 -6.9,3.1 -6.9,6.9l0 14.27c0,3.8 3.1,6.9 6.9,6.9l5.19 0c3.09,15.42 11.3,29.48 23.31,39.83 12.88,11.1 29.35,17.21 46.37,17.21 17.02,0 33.49,-6.11 46.37,-17.21 12.02,-10.35 20.22,-24.41 23.32,-39.83l5.19 0c3.8,0 6.9,-3.1 6.9,-6.9l0 -14.27c0,-3.8 -3.1,-6.9 -6.9,-6.9l0 0zm-82.24 6.9c0,-0.12 0.11,-0.23 0.23,-0.23l14.26 0c0.13,0 0.23,0.11 0.23,0.23l0 14.27c0,0.12 -0.1,0.22 -0.23,0.22l-14.26 0c-0.12,0 -0.23,-0.1 -0.23,-0.22l0 -14.27zm-67.74 14.27l0 -14.27c0,-0.12 0.1,-0.23 0.23,-0.23l14.26 0c0.13,0 0.23,0.11 0.23,0.23l0 14.27c0,0.12 -0.1,0.22 -0.23,0.22l-14.26 0c-0.13,0 -0.23,-0.1 -0.23,-0.22zm117.12 41.68c-11.67,10.05 -26.59,15.59 -42.02,15.59 -15.42,0 -30.34,-5.54 -42.01,-15.59 -10.55,-9.09 -17.86,-21.33 -20.86,-34.78l2.26 0c3.81,0 6.9,-3.1 6.9,-6.9l0 -3.8 39.68 0 0 3.8c0,3.8 3.1,6.9 6.9,6.9l14.26 0c3.81,0 6.9,-3.1 6.9,-6.9l0 -3.8 39.68 0 0 3.8c0,3.8 3.1,6.9 6.9,6.9l2.26 0c-2.99,13.45 -10.3,25.69 -20.85,34.78zm33.08 -41.68c0,0.12 -0.1,0.22 -0.22,0.22l-14.27 0c-0.12,0 -0.23,-0.1 -0.23,-0.22l0 -14.27c0,-0.12 0.11,-0.23 0.23,-0.23l14.27 0c0.12,0 0.22,0.11 0.22,0.23l0 14.27zm0 0z"/>
   <path class="fil0" d="M64.18 35.42l0 32.09c0,1.84 1.49,3.34 3.33,3.34 1.84,0 3.34,-1.5 3.34,-3.34l0 -32.09c0,-1.84 -1.5,-3.33 -3.34,-3.33 -1.84,0 -3.33,1.49 -3.33,3.33zm0 0z"/>
   <path class="fil0" d="M85.11 67.51l0 -10.92 5.58 0c6.75,0 12.25,-5.5 12.25,-12.25 0,-6.76 -5.5,-12.25 -12.25,-12.25l-8.92 0c-1.84,0 -3.33,1.49 -3.33,3.33l0 32.09c0,1.84 1.49,3.34 3.33,3.34 1.84,0 3.34,-1.5 3.34,-3.34zm0 -28.75l5.58 0c3.07,0 5.57,2.5 5.57,5.58 0,3.07 -2.5,5.57 -5.57,5.57l-5.58 0 0 -11.15zm0 0z"/>
  </g>
 </g>
</svg>
