<?xml version="1.0" encoding="UTF-8"?>
<!DOCTYPE svg PUBLIC "-//W3C//DTD SVG 1.1//EN" "http://www.w3.org/Graphics/SVG/1.1/DTD/svg11.dtd">
<!-- Creator: CorelDRAW 2018 (64-Bit Оценочная версия) -->
<svg xmlns="http://www.w3.org/2000/svg" xml:space="preserve" width="1996px" height="1994px" version="1.1" style="shape-rendering:geometricPrecision; text-rendering:geometricPrecision; image-rendering:optimizeQuality; fill-rule:evenodd; clip-rule:evenodd"
viewBox="0 0 167.77 167.63"
 xmlns:xlink="http://www.w3.org/1999/xlink">
 <defs>
  <style type="text/css">
   <![CDATA[
    .fil0 {fill:#52C163}
   ]]>
  </style>
 </defs>
 <g id="Слой_x0020_1">
  <metadata id="CorelCorpID_0Corel-Layer"/>
  <g id="_2298875083344">
   <path class="fil0" d="M167.49 77.52c0.1,-0.26 0.16,-0.54 0.17,-0.82 0,-0.29 -0.05,-0.59 -0.14,-0.87l-0.22 -0.61c-2.28,-22.09 -13.25,-42.36 -30.48,-56.36 -1.23,-1.01 -2.52,-1.91 -3.81,-2.84 -0.06,-0.05 -0.1,-0.13 -0.17,-0.18 -0.07,-0.05 -0.12,-0.05 -0.18,-0.08 -14.25,-10.22 -31.33,-15.72 -48.86,-15.76 -0.72,0 -1.45,0 -1.99,0.06 -9.35,0.18 -18.6,1.96 -27.35,5.26 -7.59,-5.92 -17.89,-6.99 -26.54,-2.76 -8.64,4.23 -14.12,13.01 -14.1,22.64 0.16,3.2 0.91,6.34 2.19,9.28 -2.85,3.9 -5.37,8.04 -7.51,12.38 -0.04,0.07 -0.07,0.14 -0.11,0.21 -19.84,41.04 -3.33,90.41 37.21,111.25 40.54,20.84 90.3,5.53 112.12,-34.49 5.98,-11.01 9.38,-23.23 9.94,-35.75 0.08,-1.35 0.11,-2.72 0.11,-4.1 0,-2.17 -0.11,-4.32 -0.28,-6.46l0 0zm-8.13 -14.37c-0.36,-0.31 -0.68,-0.68 -1.06,-0.97 -3.65,-2.77 -7.8,-4.85 -12.22,-6.1 -4.02,-1.01 -8.23,-1.06 -12.27,-0.13 -3.44,0.78 -7.01,0.8 -10.46,0.05 -6.69,-1.46 -11.98,-2.61 -14.78,-7.09 -4.02,-6.44 -2.14,-15.49 2.1,-18.67 1.4,-0.97 3.12,-1.33 4.79,-1.03 2.97,0.25 5.95,-0.26 8.68,-1.46 2.9,-1.36 5.48,-3.32 7.56,-5.75 0.53,0.41 1.09,0.77 1.6,1.2 12.64,10.28 21.74,24.25 26.06,39.95l0 0zm-120.35 -57.55c10.81,0.02 19.58,8.78 19.59,19.6 0,8.37 -12.57,27.54 -19.59,37.26 -6.66,-9 -12.44,-18.6 -17.27,-28.7 -1.32,-2.68 -2.11,-5.58 -2.33,-8.56 0.02,-10.82 8.78,-19.59 19.6,-19.6zm-33.59 78.38c0.01,-5.22 0.54,-10.42 1.57,-15.53 0.3,3.89 0.81,7.35 1.26,10.35 1.73,11.48 3.37,22.3 11.83,32.2 3.54,4.16 9.46,11.13 18.62,12.16 9.16,1.03 20.63,-4.23 23.94,-5.87l1.27 -0.65c1.76,-1.1 3.78,-1.75 5.85,-1.87 3.54,0.32 6.82,2 9.16,4.68 4.78,5.29 5.99,14.12 2.6,18.89 -1.09,1.42 -2.59,2.47 -4.3,2.99 -2.93,0.98 -5.42,2.96 -7.02,5.6 -2.37,4.28 -2.81,9.37 -1.21,14 -36.87,-7.15 -63.51,-39.4 -63.57,-76.95l0 0zm78.38 78.38c-2.71,0 -5.41,-0.14 -8.1,-0.42 -0.23,-0.29 -0.44,-0.6 -0.64,-0.92 -1.89,-3.5 -1.91,-7.71 -0.05,-11.23 1.01,-1.6 2.57,-2.78 4.39,-3.3 2.67,-0.92 5,-2.63 6.68,-4.9 4.87,-6.85 3.49,-18.71 -3,-25.89 -3.37,-3.85 -8.14,-6.2 -13.26,-6.53l-0.12 0c-2.95,0.09 -5.82,0.95 -8.34,2.49l-1.19 0.6c-6.12,3.02 -14.82,6 -20.85,5.32 -6.95,-0.78 -11.78,-6.47 -14.98,-10.23 -7.42,-8.68 -8.88,-18.28 -10.55,-29.4 -1.81,-9.5 -1.88,-19.25 -0.22,-28.79 1.5,-3.03 3.2,-5.97 5.08,-8.79 0.09,0.19 0.19,0.38 0.28,0.56 0.17,0.36 0.36,0.71 0.55,1.07 0.28,0.53 0.56,1.06 0.84,1.59 0.2,0.36 0.39,0.71 0.59,1.08 0.3,0.53 0.6,1.06 0.9,1.59 0.2,0.35 0.4,0.71 0.61,1.06 0.31,0.53 0.62,1.06 0.94,1.59 0.2,0.35 0.41,0.69 0.62,1.04 0.33,0.55 0.66,1.08 0.99,1.62 0.19,0.3 0.38,0.61 0.56,0.92 0.42,0.66 0.83,1.3 1.24,1.96 0.11,0.16 0.22,0.34 0.33,0.51 0.51,0.79 1.02,1.57 1.52,2.32 0.19,0.28 0.37,0.56 0.56,0.84 0.3,0.46 0.61,0.93 0.91,1.37l0.66 0.97c0.25,0.35 0.49,0.71 0.72,1.05l0.67 0.96c0.21,0.3 0.42,0.6 0.62,0.88 0.2,0.28 0.42,0.6 0.63,0.89 0.21,0.29 0.35,0.49 0.51,0.72l0.56 0.77 0.46 0.64 0.44 0.61 0.37 0.49 0.34 0.47 0.2 0.28c0.25,0.34 0.44,0.59 0.49,0.66 0.53,0.71 1.36,1.12 2.24,1.12 0.89,0 1.71,-0.41 2.24,-1.12 2.35,-3.11 22.96,-30.75 22.96,-43.68 0,-0.82 -0.05,-1.63 -0.13,-2.44 -0.02,-0.25 -0.06,-0.5 -0.09,-0.75 -0.07,-0.56 -0.16,-1.12 -0.28,-1.68 -0.05,-0.28 -0.11,-0.54 -0.17,-0.81 -0.13,-0.56 -0.28,-1.12 -0.46,-1.68 -0.07,-0.22 -0.12,-0.45 -0.2,-0.67 -0.25,-0.75 -0.53,-1.49 -0.85,-2.21 -0.07,-0.14 -0.14,-0.28 -0.2,-0.41 -0.28,-0.58 -0.56,-1.16 -0.88,-1.72 -0.14,-0.25 -0.3,-0.5 -0.45,-0.74 -0.27,-0.44 -0.55,-0.88 -0.84,-1.31 -0.17,-0.25 -0.35,-0.49 -0.53,-0.74 -0.1,-0.12 -0.18,-0.25 -0.28,-0.37 5.82,-1.96 11.86,-3.22 17.99,-3.73 -4.37,8.24 -5.79,15.86 -4.16,22.67 1.21,4.57 3.52,8.77 6.72,12.25 2.63,3.26 4.52,5.61 4.41,9.45 -0.24,8.12 -9.41,14.87 -12.88,17.43 -4.55,3.27 -9.64,5.73 -15.03,7.26 -5.09,1.66 -9.47,3.09 -11.15,8.1 -1.66,6.61 1.07,13.54 6.78,17.26 3.42,1.85 7.46,2.2 11.15,0.98 4.05,-0.94 8.24,-1.14 12.36,-0.59 5.32,0.75 9.9,1.4 12.08,4.45 1.29,1.81 1.22,3.7 0.97,7.15 -0.58,4.88 -0.08,9.83 1.45,14.5 1.28,3.83 3.2,9.62 7.84,10.28 0.3,0.05 0.6,0.07 0.91,0.07 3.28,0 5.28,-2.89 7.39,-5.94 0.93,-1.34 1.96,-2.79 3.19,-4.25 5.76,9.31 11.62,17.07 11.89,17.44 0.53,0.71 1.36,1.12 2.24,1.12 0.88,0 1.71,-0.41 2.24,-1.12 6.07,-8.13 11.61,-16.65 16.57,-25.51 3.44,1 6.71,2.49 9.72,4.43 -14.01,24.14 -39.81,39 -67.72,38.99l0 0zm52.24 -76.18c4.16,3.71 6.54,9.02 6.54,14.6 0,2.01 -0.82,6 -4.7,13.58 -4.43,8.21 -9.41,16.12 -14.89,23.67 -2.64,-3.67 -7.17,-10.19 -11.23,-17.04 -2.26,-3.75 -4.28,-7.64 -6.04,-11.65 -1.32,-2.68 -2.11,-5.59 -2.33,-8.56 0.01,-10.82 8.78,-19.59 19.6,-19.6 0.6,0 1.2,0.03 1.8,0.08 4.18,0.38 8.13,2.11 11.25,4.92zm26.04 1.62c-0.49,10.64 -3.17,21.08 -7.89,30.63 -3.06,-1.94 -6.37,-3.48 -9.83,-4.58 2.17,-4.04 3.47,-8.5 3.82,-13.07 -0.02,-9.61 -5.49,-18.37 -14.1,-22.63l-0.18 -0.08c-0.62,-0.3 -1.26,-0.58 -1.91,-0.83 -0.44,-0.18 -0.91,-0.31 -1.36,-0.46 -0.28,-0.08 -0.53,-0.19 -0.81,-0.28 -0.72,-0.2 -1.45,-0.37 -2.19,-0.51l-0.04 0c-0.44,-0.08 -0.9,-0.13 -1.35,-0.19 -7.2,-0.99 -14.47,1.19 -19.93,5.98 -5.47,4.8 -8.57,11.73 -8.52,19 0.22,3.73 1.16,7.38 2.77,10.75 1.57,3.58 3.34,7.06 5.31,10.43 -1.75,1.91 -3.36,3.96 -4.8,6.11 -0.77,1.32 -1.74,2.51 -2.88,3.53 -0.56,-0.09 -1.59,-1.28 -3.36,-6.52 -1.28,-3.97 -1.68,-8.18 -1.17,-12.33 0.72,-3.73 0.01,-7.59 -2,-10.8 -3.58,-5 -9.82,-5.88 -15.89,-6.74 -4.72,-0.65 -9.52,-0.43 -14.16,0.63 -3.58,0.69 -5.24,0.94 -7.14,-0.24 -3.47,-2.38 -5.21,-6.6 -4.42,-10.73 0.74,-2.24 2.98,-3.05 7.55,-4.55 5.97,-1.71 11.6,-4.45 16.63,-8.08 4.08,-2.99 14.84,-10.93 15.16,-21.77 0.18,-5.92 -2.78,-9.58 -5.65,-13.11 -2.65,-2.84 -4.57,-6.27 -5.62,-10.01 -1.48,-6.24 0.36,-13.55 5.36,-21.75l0.32 0c15.41,0.02 30.47,4.58 43.31,13.1 -1.48,1.65 -3.27,2.99 -5.28,3.95 -1.95,0.84 -4.08,1.18 -6.2,0.97 -2.94,-0.37 -5.92,0.4 -8.32,2.14 -6.35,4.78 -9.19,16.96 -3.49,26.11 4.06,6.49 11,8 18.57,9.65 4.08,0.86 8.3,0.84 12.37,-0.05 3.26,-0.78 6.67,-0.77 9.93,0.03 3.67,1.06 7.11,2.78 10.16,5.08 3.17,2.63 5.57,6.06 6.95,9.93 0.23,2.47 0.37,4.95 0.37,7.47 0,1.25 -0.02,2.52 -0.1,3.82l0.01 0zm0 0z"/>
   <path class="fil0" d="M39.01 33.59c6.18,0 11.2,-5.01 11.2,-11.19 0,-6.19 -5.02,-11.2 -11.2,-11.2 -6.18,0 -11.2,5.01 -11.2,11.2 0,6.18 5.02,11.19 11.2,11.19zm0 -16.79c3.09,0 5.6,2.51 5.6,5.6 0,3.09 -2.51,5.6 -5.6,5.6 -3.09,0 -5.6,-2.51 -5.6,-5.6 0,-3.09 2.51,-5.6 5.6,-5.6zm0 0z"/>
   <path class="fil0" d="M111.79 97.98c0,6.18 5.01,11.19 11.2,11.19 6.18,0 11.19,-5.01 11.19,-11.19 0,-6.19 -5.01,-11.2 -11.19,-11.2 -6.19,0 -11.2,5.01 -11.2,11.2zm16.79 0c0,3.09 -2.5,5.59 -5.59,5.59 -3.1,0 -5.6,-2.5 -5.6,-5.59 0,-3.1 2.5,-5.6 5.6,-5.6 3.09,0 5.59,2.5 5.59,5.6zm0 0z"/>
  </g>
 </g>
</svg>
