<?xml version="1.0" encoding="UTF-8"?>
<!DOCTYPE svg PUBLIC "-//W3C//DTD SVG 1.1//EN" "http://www.w3.org/Graphics/SVG/1.1/DTD/svg11.dtd">
<!-- Creator: CorelDRAW 2018 (64-Bit Оценочная версия) -->
<svg xmlns="http://www.w3.org/2000/svg" xml:space="preserve" width="1550px" height="1550px" version="1.1" style="shape-rendering:geometricPrecision; text-rendering:geometricPrecision; image-rendering:optimizeQuality; fill-rule:evenodd; clip-rule:evenodd"
viewBox="0 0 85.68 85.68"
 xmlns:xlink="http://www.w3.org/1999/xlink"
 enable-background="new 0 0 64 64">
 <defs>
  <style type="text/css">
   <![CDATA[
    .fil0 {fill:#52C163}
   ]]>
  </style>
 </defs>
 <g id="Слой_x0020_1">
  <metadata id="CorelCorpID_0Corel-Layer"/>
  <g id="_2298874502368">
   <path class="fil0" d="M20.73 33.17c-8.38,0 -15.2,6.82 -15.2,15.2 0,8.38 6.82,15.2 15.2,15.2 8.38,0 15.2,-6.82 15.2,-15.2 0,-8.38 -6.82,-15.2 -15.2,-15.2zm-4.15 22.11c-0.76,0 -1.38,-0.62 -1.38,-1.38 0,-0.76 0.62,-1.38 1.38,-1.38l9.68 0c2.28,0 4.14,-1.86 4.14,-4.15 0,-2.29 -1.86,-4.15 -4.14,-4.15l-2.77 0c-0.76,0 -1.38,-0.61 -1.38,-1.38 0,-0.76 0.62,-1.38 1.38,-1.38l7.57 0c1.33,1.98 2.11,4.35 2.11,6.91 0,2.56 -0.78,4.93 -2.11,6.91l-14.48 0zm-2.67 -17.3c0.82,0.99 1.29,2.21 1.29,3.48 0,3.05 -2.48,5.53 -5.53,5.53 -0.43,0 -0.85,-0.07 -1.27,-0.17 0.46,-3.69 2.54,-6.88 5.51,-8.84l0 0zm-5.55 11.66c0.43,0.07 0.87,0.11 1.31,0.11 4.58,0 8.3,-3.72 8.3,-8.29 0,-1.71 -0.55,-3.36 -1.54,-4.75 1.34,-0.49 2.79,-0.78 4.3,-0.78 2.95,0 5.67,1.04 7.8,2.77l-5.04 0c-2.28,0 -4.14,1.86 -4.14,4.14 0,2.29 1.86,4.15 4.14,4.15l2.77 0c0.76,0 1.38,0.62 1.38,1.38 0,0.76 -0.62,1.38 -1.38,1.38l-9.68 0c-2.28,0 -4.14,1.86 -4.14,4.15 0,2.28 1.86,4.14 4.14,4.14l11.95 0c-2.13,1.73 -4.85,2.77 -7.8,2.77 -6.43,0 -11.74,-4.91 -12.37,-11.17z"/>
   <circle class="fil0" cx="6.91" cy="34.55" r="1.38"/>
   <circle class="fil0" cx="35.93" cy="34.55" r="1.38"/>
   <circle class="fil0" cx="6.91" cy="62.19" r="1.38"/>
   <circle class="fil0" cx="35.93" cy="62.19" r="1.38"/>
   <path class="fil0" d="M78.77 0l-44.22 0c-3.81,0 -6.91,3.1 -6.91,6.91l0 20.73 -23.49 0c-2.29,0 -4.15,1.86 -4.15,4.15l0 33.16c0,2.29 1.86,4.15 4.15,4.15l23.49 0 0 9.67c0,3.81 3.1,6.91 6.91,6.91l44.22 0c3.81,0 6.91,-3.1 6.91,-6.91l0 -71.86c0,-3.81 -3.1,-6.91 -6.91,-6.91l0 0zm-44.22 2.76l44.22 0c2.29,0 4.15,1.86 4.15,4.15l0 4.15 -52.52 0 0 -4.15c0,-2.29 1.86,-4.15 4.15,-4.15zm-31.79 62.19l0 -33.16c0,-0.77 0.62,-1.39 1.39,-1.39l33.16 0c0.77,0 1.39,0.62 1.39,1.39l0 33.16c0,0.77 -0.62,1.39 -1.39,1.39l-33.16 0c-0.77,0 -1.39,-0.62 -1.39,-1.39l0 0zm34.55 4.15c2.29,0 4.15,-1.86 4.15,-4.15l0 -33.16c0,-2.29 -1.86,-4.15 -4.15,-4.15l-6.91 0 0 -13.82 52.52 0 0 58.04 -52.52 0 0 -2.76 6.91 0zm41.46 13.82l-44.22 0c-2.29,0 -4.15,-1.86 -4.15,-4.15l0 -4.14 52.52 0 0 4.14c0,2.29 -1.86,4.15 -4.15,4.15z"/>
   <polygon class="fil0" points="48.37,5.53 64.95,5.53 64.95,8.29 48.37,8.29 "/>
   <polygon class="fil0" points="48.37,77.39 64.95,77.39 64.95,80.16 48.37,80.16 "/>
   <path class="fil0" d="M49.75 38.7l2.77 0 0 4.14 -2.77 0 0 11.06 2.77 0 0 4.14 -2.77 0 0 11.06 30.41 0 0 -11.06 -2.77 0 0 -4.14 2.77 0 0 -11.06 -2.77 0 0 -4.14 2.77 0 0 -11.06 -30.41 0 0 11.06zm27.64 27.64l-24.87 0 0 -5.53 24.87 0 0 5.53zm-2.76 -8.3l-19.35 0 0 -4.14 19.35 0 0 4.14zm2.76 -6.91l-24.87 0 0 -5.52 24.87 0 0 5.52zm-2.76 -8.29l-19.35 0 0 -4.14 19.35 0 0 4.14zm-22.11 -12.44l24.87 0 0 5.53 -24.87 0 0 -5.53z"/>
   <polygon class="fil0" points="63.57,16.58 66.34,16.58 66.34,19.35 63.57,19.35 "/>
   <polygon class="fil0" points="58.04,16.58 60.81,16.58 60.81,19.35 58.04,19.35 "/>
   <polygon class="fil0" points="52.52,16.58 55.28,16.58 55.28,19.35 52.52,19.35 "/>
   <polygon class="fil0" points="46.99,16.58 49.75,16.58 49.75,19.35 46.99,19.35 "/>
   <polygon class="fil0" points="41.46,16.58 44.22,16.58 44.22,19.35 41.46,19.35 "/>
   <polygon class="fil0" points="63.57,22.11 66.34,22.11 66.34,24.88 63.57,24.88 "/>
   <polygon class="fil0" points="35.93,16.58 38.7,16.58 38.7,19.35 35.93,19.35 "/>
   <polygon class="fil0" points="35.93,22.11 38.7,22.11 38.7,24.88 35.93,24.88 "/>
  </g>
 </g>
</svg>
