<?xml version="1.0" encoding="UTF-8"?>
<!DOCTYPE svg PUBLIC "-//W3C//DTD SVG 1.1//EN" "http://www.w3.org/Graphics/SVG/1.1/DTD/svg11.dtd">
<!-- Creator: CorelDRAW 2018 (64-Bit Оценочная версия) -->
<svg xmlns="http://www.w3.org/2000/svg" xml:space="preserve" width="1600px" height="1536px" version="1.1" style="shape-rendering:geometricPrecision; text-rendering:geometricPrecision; image-rendering:optimizeQuality; fill-rule:evenodd; clip-rule:evenodd"
viewBox="0 0 134.58 129.19"
 xmlns:xlink="http://www.w3.org/1999/xlink">
 <defs>
  <style type="text/css">
   <![CDATA[
    .fil0 {fill:#52C163}
   ]]>
  </style>
 </defs>
 <g id="Слой_x0020_1">
  <metadata id="CorelCorpID_0Corel-Layer"/>
  <g id="_2298874228864">
   <g id="XMLID_806_">
    <g id="XMLID_386_">
     <path id="XMLID_389_" class="fil0" d="M134.32 70.81c-1.21,-12.15 -6.64,-23.61 -15.29,-32.26 -7.39,-7.4 -16.44,-12.15 -25.96,-14.26l0 -6.68c3.88,-0.97 6.78,-4.49 6.78,-8.67 0,-4.93 -4.01,-8.94 -8.94,-8.94l-18.93 0c-4.93,0 -8.93,4.01 -8.93,8.94 0,4.18 2.89,7.7 6.78,8.67l0 6.7c-9.5,2.12 -18.52,6.86 -25.89,14.24 -1.61,1.61 -3.1,3.3 -4.46,5.06 -0.07,0 -0.13,-0.01 -0.2,-0.01l-18.73 0c-1.45,0 -2.63,1.18 -2.63,2.63 0,1.45 1.18,2.63 2.63,2.63l15.35 0c-1.93,3.22 -3.48,6.61 -4.66,10.1l-28.61 0c-1.45,0 -2.63,1.18 -2.63,2.63 0,1.45 1.18,2.63 2.63,2.63l27.12 0c-0.76,3.32 -1.19,6.71 -1.3,10.1l-11.63 0c-1.45,0 -2.63,1.18 -2.63,2.63 0,1.45 1.18,2.63 2.63,2.63l11.71 0c0.22,3.4 0.77,6.79 1.64,10.1l-17.03 0c-1.45,0 -2.63,1.18 -2.63,2.63 0,1.45 1.18,2.63 2.63,2.63l18.71 0c2.58,6.82 6.61,13.21 12.09,18.7 8.66,8.66 20.13,14.09 32.3,15.29 1.73,0.17 3.47,0.26 5.21,0.26 10.25,0 20.38,-2.97 28.97,-8.57 1.22,-0.79 1.56,-2.42 0.77,-3.64 -0.79,-1.21 -2.42,-1.56 -3.64,-0.76 -18.8,12.24 -43.99,9.6 -59.89,-6.3 -18.66,-18.65 -18.66,-49 0,-67.66 18.65,-18.65 49,-18.65 67.65,0 15.88,15.88 18.54,41.05 6.33,59.85 -0.79,1.22 -0.44,2.84 0.78,3.63 1.22,0.8 2.84,0.45 3.63,-0.77 6.53,-10.04 9.46,-22.18 8.27,-34.16zm-66.02 -61.87c0,-2.03 1.65,-3.68 3.68,-3.68l18.93 0c2.03,0 3.68,1.65 3.68,3.68 0,2.03 -1.65,3.68 -3.68,3.68l-0.47 0 -17.99 0 -0.47 0c-2.03,0 -3.68,-1.65 -3.68,-3.68zm6.78 14.46l0 -5.53 12.73 0 0 5.52c-4.23,-0.5 -8.5,-0.5 -12.73,0.01z"/>
     <path id="XMLID_391_" class="fil0" d="M117.17 109.15c-0.69,0 -1.37,0.28 -1.85,0.77 -0.5,0.49 -0.78,1.16 -0.78,1.86 0,0.69 0.28,1.37 0.78,1.85 0.48,0.5 1.16,0.77 1.85,0.77 0.69,0 1.37,-0.27 1.86,-0.77 0.49,-0.48 0.77,-1.16 0.77,-1.85 0,-0.7 -0.28,-1.37 -0.77,-1.86 -0.49,-0.49 -1.17,-0.77 -1.86,-0.77z"/>
     <path id="XMLID_394_" class="fil0" d="M81.49 35.31c-22.49,0 -40.78,18.3 -40.78,40.78 0,22.48 18.29,40.78 40.78,40.78 22.48,0 40.77,-18.3 40.77,-40.78 0,-22.48 -18.29,-40.78 -40.77,-40.78zm0 76.3c-19.59,0 -35.52,-15.93 -35.52,-35.52 0,-19.58 15.93,-35.52 35.52,-35.52 19.58,0 35.52,15.94 35.52,35.52 0,19.59 -15.94,35.52 -35.52,35.52z"/>
     <path id="XMLID_397_" class="fil0" d="M98.11 55.75l-13.02 13.01c-1.09,-0.53 -2.31,-0.84 -3.6,-0.84 -1.3,0 -2.52,0.31 -3.61,0.84l-5.83 -5.82c-1.03,-1.03 -2.69,-1.03 -3.72,0 -1.02,1.02 -1.02,2.69 0,3.72l5.83 5.82c-0.54,1.09 -0.84,2.32 -0.84,3.61 0,4.5 3.66,8.17 8.17,8.17 4.5,0 8.16,-3.67 8.16,-8.17 0,-1.29 -0.3,-2.52 -0.84,-3.61l12.64 -12.63 0 0 0.38 -0.39c1.03,-1.02 1.03,-2.69 0,-3.71 -1.03,-1.03 -2.69,-1.03 -3.72,0zm-16.62 23.25c-1.61,0 -2.92,-1.3 -2.92,-2.91 0,-1.6 1.31,-2.91 2.92,-2.91 1.6,0 2.91,1.31 2.91,2.91 0,1.61 -1.31,2.91 -2.91,2.91z"/>
     <path id="XMLID_398_" class="fil0" d="M109.59 73.49l-2.44 0c-1.45,0 -2.62,1.18 -2.62,2.63 0,1.45 1.17,2.63 2.62,2.63l2.44 0c1.45,0 2.63,-1.18 2.63,-2.63 0,-1.45 -1.18,-2.63 -2.63,-2.63z"/>
     <path id="XMLID_399_" class="fil0" d="M55.82 73.43l-2.44 0c-1.45,0 -2.63,1.18 -2.63,2.63 0,1.45 1.18,2.63 2.63,2.63l2.44 0c1.45,0 2.63,-1.18 2.63,-2.63 0,-1.45 -1.18,-2.63 -2.63,-2.63z"/>
     <path id="XMLID_400_" class="fil0" d="M81.52 53.05c1.45,0 2.63,-1.18 2.63,-2.63l0 -2.43c0,-1.46 -1.18,-2.63 -2.63,-2.63 -1.45,0 -2.63,1.17 -2.63,2.63l0 2.43c0,1.45 1.18,2.63 2.63,2.63z"/>
     <path id="XMLID_424_" class="fil0" d="M81.45 99.13c-1.45,0 -2.62,1.18 -2.62,2.63l0 2.43c0,1.46 1.17,2.63 2.62,2.63 1.46,0 2.63,-1.17 2.63,-2.63l0 -2.43c0,-1.45 -1.17,-2.63 -2.63,-2.63z"/>
     <path id="XMLID_425_" class="fil0" d="M2.63 89.68c-0.69,0 -1.37,0.28 -1.86,0.77 -0.49,0.49 -0.77,1.17 -0.77,1.86 0,0.69 0.28,1.37 0.77,1.86 0.49,0.49 1.17,0.77 1.86,0.77 0.69,0 1.37,-0.28 1.86,-0.77 0.49,-0.49 0.77,-1.17 0.77,-1.86 0,-0.69 -0.28,-1.37 -0.77,-1.86 -0.49,-0.49 -1.17,-0.77 -1.86,-0.77z"/>
    </g>
   </g>
  </g>
 </g>
</svg>
